{
    "asset" : {
        "generator" : "Khronos glTF Blender I/O v3.3.32",
        "version" : "2.0"
    },
    "scene" : 0,
    "scenes" : [
        {
            "name" : "Scene",
            "nodes" : [
                0
            ]
        }
    ],
    "nodes" : [
        {
            "mesh" : 0,
            "name" : "4UpConnector_Col"
        }
    ],
    "meshes" : [
        {
            "name" : "Scene.138",
            "primitives" : [
                {
                    "attributes" : {
                        "POSITION" : 0,
                        "NORMAL" : 1,
                        "TEXCOORD_0" : 2,
                        "TEXCOORD_1" : 3
                    },
                    "indices" : 4
                }
            ]
        }
    ],
    "accessors" : [
        {
            "bufferView" : 0,
            "componentType" : 5126,
            "count" : 1656,
            "max" : [
                2.500000238418579,
                5.000000476837158,
                2.733992576599121
            ],
            "min" : [
                -2.6376991271972656,
                0.07857757806777954,
                -2.500002384185791
            ],
            "type" : "VEC3"
        },
        {
            "bufferView" : 1,
            "componentType" : 5126,
            "count" : 1656,
            "type" : "VEC3"
        },
        {
            "bufferView" : 2,
            "componentType" : 5126,
            "count" : 1656,
            "type" : "VEC2"
        },
        {
            "bufferView" : 3,
            "componentType" : 5126,
            "count" : 1656,
            "type" : "VEC2"
        },
        {
            "bufferView" : 4,
            "componentType" : 5123,
            "count" : 1710,
            "type" : "SCALAR"
        }
    ],
    "bufferViews" : [
        {
            "buffer" : 0,
            "byteLength" : 19872,
            "byteOffset" : 0,
            "target" : 34962
        },
        {
            "buffer" : 0,
            "byteLength" : 19872,
            "byteOffset" : 19872,
            "target" : 34962
        },
        {
            "buffer" : 0,
            "byteLength" : 13248,
            "byteOffset" : 39744,
            "target" : 34962
        },
        {
            "buffer" : 0,
            "byteLength" : 13248,
            "byteOffset" : 52992,
            "target" : 34962
        },
        {
            "buffer" : 0,
            "byteLength" : 3420,
            "byteOffset" : 66240,
            "target" : 34963
        }
    ],
    "buffers" : [
        {
            "byteLength" : 69660,
            "uri" : "4UpConnector_Col.bin"
        }
    ]
}
