{
    "asset" : {
        "generator" : "Khronos glTF Blender I/O v3.3.32",
        "version" : "2.0"
    },
    "scene" : 0,
    "scenes" : [
        {
            "name" : "Scene",
            "nodes" : [
                0
            ]
        }
    ],
    "nodes" : [
        {
            "mesh" : 0,
            "name" : "4UpConnector"
        }
    ],
    "materials" : [
        {
            "doubleSided" : true,
            "name" : "Simple_Chrome_metal",
            "normalTexture" : {
                "index" : 0,
                "scale" : 10
            },
            "pbrMetallicRoughness" : {
                "baseColorTexture" : {
                    "index" : 1
                },
                "metallicFactor" : 0
            }
        },
        {
            "doubleSided" : true,
            "name" : "Ground",
            "normalTexture" : {
                "index" : 2,
                "scale" : 10
            },
            "pbrMetallicRoughness" : {
                "baseColorTexture" : {
                    "index" : 3
                },
                "metallicFactor" : 0,
                "roughnessFactor" : 0.6863636374473572
            }
        }
    ],
    "meshes" : [
        {
            "name" : "Scene.030",
            "primitives" : [
                {
                    "attributes" : {
                        "POSITION" : 0,
                        "NORMAL" : 1,
                        "TEXCOORD_0" : 2,
                        "TEXCOORD_1" : 3
                    },
                    "indices" : 4,
                    "material" : 0
                },
                {
                    "attributes" : {
                        "POSITION" : 5,
                        "NORMAL" : 6,
                        "TEXCOORD_0" : 7,
                        "TEXCOORD_1" : 8
                    },
                    "indices" : 9,
                    "material" : 1
                }
            ]
        }
    ],
    "textures" : [
        {
            "sampler" : 0,
            "source" : 0
        },
        {
            "sampler" : 0,
            "source" : 1
        },
        {
            "sampler" : 0,
            "source" : 0
        },
        {
            "sampler" : 0,
            "source" : 1
        }
    ],
    "images" : [
        {
            "mimeType" : "image/png",
            "name" : "NormalGroup11",
            "uri" : "Textures/NormalGroup11.png"
        },
        {
            "mimeType" : "image/png",
            "name" : "DiffuseGroup11",
            "uri" : "Textures/DiffuseGroup11.png"
        }
    ],
    "accessors" : [
        {
            "bufferView" : 0,
            "componentType" : 5126,
            "count" : 1036,
            "max" : [
                1.7186245918273926,
                5.1223955154418945,
                2.0077056884765625
            ],
            "min" : [
                -2.0751967430114746,
                0.7888178825378418,
                -1.4078807830810547
            ],
            "type" : "VEC3"
        },
        {
            "bufferView" : 1,
            "componentType" : 5126,
            "count" : 1036,
            "type" : "VEC3"
        },
        {
            "bufferView" : 2,
            "componentType" : 5126,
            "count" : 1036,
            "type" : "VEC2"
        },
        {
            "bufferView" : 3,
            "componentType" : 5126,
            "count" : 1036,
            "type" : "VEC2"
        },
        {
            "bufferView" : 4,
            "componentType" : 5123,
            "count" : 1056,
            "type" : "SCALAR"
        },
        {
            "bufferView" : 5,
            "componentType" : 5126,
            "count" : 1532,
            "max" : [
                2.500000238418579,
                5.000000476837158,
                2.733992576599121
            ],
            "min" : [
                -2.6376991271972656,
                0.07857757806777954,
                -2.500002384185791
            ],
            "type" : "VEC3"
        },
        {
            "bufferView" : 6,
            "componentType" : 5126,
            "count" : 1532,
            "type" : "VEC3"
        },
        {
            "bufferView" : 7,
            "componentType" : 5126,
            "count" : 1532,
            "type" : "VEC2"
        },
        {
            "bufferView" : 8,
            "componentType" : 5126,
            "count" : 1532,
            "type" : "VEC2"
        },
        {
            "bufferView" : 9,
            "componentType" : 5123,
            "count" : 1566,
            "type" : "SCALAR"
        }
    ],
    "bufferViews" : [
        {
            "buffer" : 0,
            "byteLength" : 12432,
            "byteOffset" : 0,
            "target" : 34962
        },
        {
            "buffer" : 0,
            "byteLength" : 12432,
            "byteOffset" : 12432,
            "target" : 34962
        },
        {
            "buffer" : 0,
            "byteLength" : 8288,
            "byteOffset" : 24864,
            "target" : 34962
        },
        {
            "buffer" : 0,
            "byteLength" : 8288,
            "byteOffset" : 33152,
            "target" : 34962
        },
        {
            "buffer" : 0,
            "byteLength" : 2112,
            "byteOffset" : 41440,
            "target" : 34963
        },
        {
            "buffer" : 0,
            "byteLength" : 18384,
            "byteOffset" : 43552,
            "target" : 34962
        },
        {
            "buffer" : 0,
            "byteLength" : 18384,
            "byteOffset" : 61936,
            "target" : 34962
        },
        {
            "buffer" : 0,
            "byteLength" : 12256,
            "byteOffset" : 80320,
            "target" : 34962
        },
        {
            "buffer" : 0,
            "byteLength" : 12256,
            "byteOffset" : 92576,
            "target" : 34962
        },
        {
            "buffer" : 0,
            "byteLength" : 3132,
            "byteOffset" : 104832,
            "target" : 34963
        }
    ],
    "samplers" : [
        {
            "magFilter" : 9729,
            "minFilter" : 9987
        }
    ],
    "buffers" : [
        {
            "byteLength" : 107964,
            "uri" : "4UpConnector.bin"
        }
    ]
}
