{
    "asset" : {
        "generator" : "Khronos glTF Blender I/O v3.2.43",
        "version" : "2.0"
    },
    "scene" : 0,
    "scenes" : [
        {
            "name" : "Scene",
            "nodes" : [
                0
            ]
        }
    ],
    "nodes" : [
        {
            "mesh" : 0,
            "name" : "4UpConnector_Col"
        }
    ],
    "meshes" : [
        {
            "name" : "Scene.002",
            "primitives" : [
                {
                    "attributes" : {
                        "POSITION" : 0,
                        "NORMAL" : 1,
                        "TEXCOORD_0" : 2,
                        "TEXCOORD_1" : 3
                    },
                    "indices" : 4
                }
            ]
        }
    ],
    "accessors" : [
        {
            "bufferView" : 0,
            "componentType" : 5126,
            "count" : 548,
            "max" : [
                2.500000238418579,
                5.000000476837158,
                2.500000476837158
            ],
            "min" : [
                -1.9268652200698853,
                0.7270100712776184,
                -2.500002145767212
            ],
            "type" : "VEC3"
        },
        {
            "bufferView" : 1,
            "componentType" : 5126,
            "count" : 548,
            "type" : "VEC3"
        },
        {
            "bufferView" : 2,
            "componentType" : 5126,
            "count" : 548,
            "type" : "VEC2"
        },
        {
            "bufferView" : 3,
            "componentType" : 5126,
            "count" : 548,
            "type" : "VEC2"
        },
        {
            "bufferView" : 4,
            "componentType" : 5123,
            "count" : 1059,
            "type" : "SCALAR"
        }
    ],
    "bufferViews" : [
        {
            "buffer" : 0,
            "byteLength" : 6576,
            "byteOffset" : 0
        },
        {
            "buffer" : 0,
            "byteLength" : 6576,
            "byteOffset" : 6576
        },
        {
            "buffer" : 0,
            "byteLength" : 4384,
            "byteOffset" : 13152
        },
        {
            "buffer" : 0,
            "byteLength" : 4384,
            "byteOffset" : 17536
        },
        {
            "buffer" : 0,
            "byteLength" : 2118,
            "byteOffset" : 21920
        }
    ],
    "buffers" : [
        {
            "byteLength" : 24040,
            "uri" : "4UpConnector_Col.bin"
        }
    ]
}
