{
    "asset" : {
        "generator" : "Khronos glTF Blender I/O v3.2.43",
        "version" : "2.0"
    },
    "scene" : 0,
    "scenes" : [
        {
            "name" : "Scene",
            "nodes" : [
                0
            ]
        }
    ],
    "nodes" : [
        {
            "mesh" : 0,
            "name" : "4UpDownConnector"
        }
    ],
    "materials" : [
        {
            "doubleSided" : true,
            "name" : "PP_Standard_Material.136",
            "pbrMetallicRoughness" : {
                "baseColorTexture" : {
                    "index" : 0
                },
                "metallicFactor" : 0,
                "roughnessFactor" : 0.5527864098548889
            }
        },
        {
            "doubleSided" : true,
            "name" : "PP_Standard_Material.138",
            "pbrMetallicRoughness" : {
                "baseColorTexture" : {
                    "index" : 1
                },
                "metallicFactor" : 0,
                "roughnessFactor" : 0.5527864098548889
            }
        }
    ],
    "meshes" : [
        {
            "name" : "Scene.036",
            "primitives" : [
                {
                    "attributes" : {
                        "POSITION" : 0,
                        "NORMAL" : 1,
                        "TEXCOORD_0" : 2,
                        "TEXCOORD_1" : 3
                    },
                    "indices" : 4,
                    "material" : 0
                },
                {
                    "attributes" : {
                        "POSITION" : 5,
                        "NORMAL" : 6,
                        "TEXCOORD_0" : 7,
                        "TEXCOORD_1" : 8
                    },
                    "indices" : 9,
                    "material" : 1
                }
            ]
        }
    ],
    "textures" : [
        {
            "sampler" : 0,
            "source" : 0
        },
        {
            "sampler" : 0,
            "source" : 0
        }
    ],
    "images" : [
        {
            "mimeType" : "image/png",
            "name" : "PP_Color_Palette",
            "uri" : "Textures/PP_Color_Palette.png"
        }
    ],
    "accessors" : [
        {
            "bufferView" : 0,
            "componentType" : 5126,
            "count" : 781,
            "max" : [
                2.399813175201416,
                4.864232063293457,
                2.667843818664551
            ],
            "min" : [
                -2.5000030994415283,
                -2.915218829002697e-06,
                -2.532740592956543
            ],
            "type" : "VEC3"
        },
        {
            "bufferView" : 1,
            "componentType" : 5126,
            "count" : 781,
            "type" : "VEC3"
        },
        {
            "bufferView" : 2,
            "componentType" : 5126,
            "count" : 781,
            "type" : "VEC2"
        },
        {
            "bufferView" : 3,
            "componentType" : 5126,
            "count" : 781,
            "type" : "VEC2"
        },
        {
            "bufferView" : 4,
            "componentType" : 5123,
            "count" : 783,
            "type" : "SCALAR"
        },
        {
            "bufferView" : 5,
            "componentType" : 5126,
            "count" : 690,
            "max" : [
                2.0994672775268555,
                5.000000476837158,
                2.6623315811157227
            ],
            "min" : [
                -2.500002384185791,
                -2.2452236407843884e-06,
                -2.500001907348633
            ],
            "type" : "VEC3"
        },
        {
            "bufferView" : 6,
            "componentType" : 5126,
            "count" : 690,
            "type" : "VEC3"
        },
        {
            "bufferView" : 7,
            "componentType" : 5126,
            "count" : 690,
            "type" : "VEC2"
        },
        {
            "bufferView" : 8,
            "componentType" : 5126,
            "count" : 690,
            "type" : "VEC2"
        },
        {
            "bufferView" : 9,
            "componentType" : 5123,
            "count" : 711,
            "type" : "SCALAR"
        }
    ],
    "bufferViews" : [
        {
            "buffer" : 0,
            "byteLength" : 9372,
            "byteOffset" : 0
        },
        {
            "buffer" : 0,
            "byteLength" : 9372,
            "byteOffset" : 9372
        },
        {
            "buffer" : 0,
            "byteLength" : 6248,
            "byteOffset" : 18744
        },
        {
            "buffer" : 0,
            "byteLength" : 6248,
            "byteOffset" : 24992
        },
        {
            "buffer" : 0,
            "byteLength" : 1566,
            "byteOffset" : 31240
        },
        {
            "buffer" : 0,
            "byteLength" : 8280,
            "byteOffset" : 32808
        },
        {
            "buffer" : 0,
            "byteLength" : 8280,
            "byteOffset" : 41088
        },
        {
            "buffer" : 0,
            "byteLength" : 5520,
            "byteOffset" : 49368
        },
        {
            "buffer" : 0,
            "byteLength" : 5520,
            "byteOffset" : 54888
        },
        {
            "buffer" : 0,
            "byteLength" : 1422,
            "byteOffset" : 60408
        }
    ],
    "samplers" : [
        {
            "magFilter" : 9729,
            "minFilter" : 9987
        }
    ],
    "buffers" : [
        {
            "byteLength" : 61832,
            "uri" : "4UpDownConnector.bin"
        }
    ]
}
