{
    "asset" : {
        "generator" : "Khronos glTF Blender I/O v3.3.32",
        "version" : "2.0"
    },
    "scene" : 0,
    "scenes" : [
        {
            "name" : "Scene",
            "nodes" : [
                0
            ]
        }
    ],
    "nodes" : [
        {
            "mesh" : 0,
            "name" : "4UpDownConnector_Col"
        }
    ],
    "meshes" : [
        {
            "name" : "Scene.139",
            "primitives" : [
                {
                    "attributes" : {
                        "POSITION" : 0,
                        "NORMAL" : 1,
                        "TEXCOORD_0" : 2,
                        "TEXCOORD_1" : 3
                    },
                    "indices" : 4
                }
            ]
        }
    ],
    "accessors" : [
        {
            "bufferView" : 0,
            "componentType" : 5126,
            "count" : 1583,
            "max" : [
                2.399813175201416,
                5.000000953674316,
                2.667843818664551
            ],
            "min" : [
                -2.5000030994415283,
                -2.915218829002697e-06,
                -2.532740592956543
            ],
            "type" : "VEC3"
        },
        {
            "bufferView" : 1,
            "componentType" : 5126,
            "count" : 1583,
            "type" : "VEC3"
        },
        {
            "bufferView" : 2,
            "componentType" : 5126,
            "count" : 1583,
            "type" : "VEC2"
        },
        {
            "bufferView" : 3,
            "componentType" : 5126,
            "count" : 1583,
            "type" : "VEC2"
        },
        {
            "bufferView" : 4,
            "componentType" : 5123,
            "count" : 1674,
            "type" : "SCALAR"
        }
    ],
    "bufferViews" : [
        {
            "buffer" : 0,
            "byteLength" : 18996,
            "byteOffset" : 0,
            "target" : 34962
        },
        {
            "buffer" : 0,
            "byteLength" : 18996,
            "byteOffset" : 18996,
            "target" : 34962
        },
        {
            "buffer" : 0,
            "byteLength" : 12664,
            "byteOffset" : 37992,
            "target" : 34962
        },
        {
            "buffer" : 0,
            "byteLength" : 12664,
            "byteOffset" : 50656,
            "target" : 34962
        },
        {
            "buffer" : 0,
            "byteLength" : 3348,
            "byteOffset" : 63320,
            "target" : 34963
        }
    ],
    "buffers" : [
        {
            "byteLength" : 66668,
            "uri" : "4UpDownConnector_Col.bin"
        }
    ]
}
