{
    "asset" : {
        "generator" : "Khronos glTF Blender I/O v3.3.32",
        "version" : "2.0"
    },
    "scene" : 0,
    "scenes" : [
        {
            "name" : "Scene",
            "nodes" : [
                0
            ]
        }
    ],
    "nodes" : [
        {
            "mesh" : 0,
            "name" : "5NoDownConnector_Col"
        }
    ],
    "meshes" : [
        {
            "name" : "Scene.140",
            "primitives" : [
                {
                    "attributes" : {
                        "POSITION" : 0,
                        "NORMAL" : 1,
                        "TEXCOORD_0" : 2,
                        "TEXCOORD_1" : 3
                    },
                    "indices" : 4
                }
            ]
        }
    ],
    "accessors" : [
        {
            "bufferView" : 0,
            "componentType" : 5126,
            "count" : 1994,
            "max" : [
                2.5064148902893066,
                5.000000953674316,
                2.743147611618042
            ],
            "min" : [
                -2.500002384185791,
                0.3234219551086426,
                -2.500002384185791
            ],
            "type" : "VEC3"
        },
        {
            "bufferView" : 1,
            "componentType" : 5126,
            "count" : 1994,
            "type" : "VEC3"
        },
        {
            "bufferView" : 2,
            "componentType" : 5126,
            "count" : 1994,
            "type" : "VEC2"
        },
        {
            "bufferView" : 3,
            "componentType" : 5126,
            "count" : 1994,
            "type" : "VEC2"
        },
        {
            "bufferView" : 4,
            "componentType" : 5123,
            "count" : 2073,
            "type" : "SCALAR"
        }
    ],
    "bufferViews" : [
        {
            "buffer" : 0,
            "byteLength" : 23928,
            "byteOffset" : 0,
            "target" : 34962
        },
        {
            "buffer" : 0,
            "byteLength" : 23928,
            "byteOffset" : 23928,
            "target" : 34962
        },
        {
            "buffer" : 0,
            "byteLength" : 15952,
            "byteOffset" : 47856,
            "target" : 34962
        },
        {
            "buffer" : 0,
            "byteLength" : 15952,
            "byteOffset" : 63808,
            "target" : 34962
        },
        {
            "buffer" : 0,
            "byteLength" : 4146,
            "byteOffset" : 79760,
            "target" : 34963
        }
    ],
    "buffers" : [
        {
            "byteLength" : 83908,
            "uri" : "5NoDownConnector_Col.bin"
        }
    ]
}
