{
    "asset" : {
        "generator" : "Khronos glTF Blender I/O v3.2.43",
        "version" : "2.0"
    },
    "scene" : 0,
    "scenes" : [
        {
            "name" : "Scene",
            "nodes" : [
                0
            ]
        }
    ],
    "nodes" : [
        {
            "mesh" : 0,
            "name" : "5NoDownConnector_Col"
        }
    ],
    "meshes" : [
        {
            "name" : "Scene.067",
            "primitives" : [
                {
                    "attributes" : {
                        "POSITION" : 0,
                        "NORMAL" : 1,
                        "TEXCOORD_0" : 2,
                        "TEXCOORD_1" : 3
                    },
                    "indices" : 4
                }
            ]
        }
    ],
    "accessors" : [
        {
            "bufferView" : 0,
            "componentType" : 5126,
            "count" : 975,
            "max" : [
                2.500000476837158,
                5.000000476837158,
                2.500000476837158
            ],
            "min" : [
                -2.500002145767212,
                0.7270100712776184,
                -2.500002145767212
            ],
            "type" : "VEC3"
        },
        {
            "bufferView" : 1,
            "componentType" : 5126,
            "count" : 975,
            "type" : "VEC3"
        },
        {
            "bufferView" : 2,
            "componentType" : 5126,
            "count" : 975,
            "type" : "VEC2"
        },
        {
            "bufferView" : 3,
            "componentType" : 5126,
            "count" : 975,
            "type" : "VEC2"
        },
        {
            "bufferView" : 4,
            "componentType" : 5123,
            "count" : 1134,
            "type" : "SCALAR"
        }
    ],
    "bufferViews" : [
        {
            "buffer" : 0,
            "byteLength" : 11700,
            "byteOffset" : 0
        },
        {
            "buffer" : 0,
            "byteLength" : 11700,
            "byteOffset" : 11700
        },
        {
            "buffer" : 0,
            "byteLength" : 7800,
            "byteOffset" : 23400
        },
        {
            "buffer" : 0,
            "byteLength" : 7800,
            "byteOffset" : 31200
        },
        {
            "buffer" : 0,
            "byteLength" : 2268,
            "byteOffset" : 39000
        }
    ],
    "buffers" : [
        {
            "byteLength" : 41268,
            "uri" : "5NoDownConnector_Col.bin"
        }
    ]
}
