{
    "asset" : {
        "generator" : "Khronos glTF Blender I/O v3.2.43",
        "version" : "2.0"
    },
    "scene" : 0,
    "scenes" : [
        {
            "name" : "Scene",
            "nodes" : [
                0
            ]
        }
    ],
    "nodes" : [
        {
            "mesh" : 0,
            "name" : "5NoDownConnector"
        }
    ],
    "materials" : [
        {
            "doubleSided" : true,
            "name" : "PP_Standard_Material.205",
            "pbrMetallicRoughness" : {
                "baseColorTexture" : {
                    "index" : 0
                },
                "metallicFactor" : 0,
                "roughnessFactor" : 0.5527864098548889
            }
        },
        {
            "doubleSided" : true,
            "name" : "PP_Standard_Material.207",
            "pbrMetallicRoughness" : {
                "baseColorTexture" : {
                    "index" : 1
                },
                "metallicFactor" : 0,
                "roughnessFactor" : 0.5527864098548889
            }
        }
    ],
    "meshes" : [
        {
            "name" : "Scene.074",
            "primitives" : [
                {
                    "attributes" : {
                        "POSITION" : 0,
                        "NORMAL" : 1,
                        "TEXCOORD_0" : 2,
                        "TEXCOORD_1" : 3
                    },
                    "indices" : 4,
                    "material" : 0
                },
                {
                    "attributes" : {
                        "POSITION" : 5,
                        "NORMAL" : 6,
                        "TEXCOORD_0" : 7,
                        "TEXCOORD_1" : 8
                    },
                    "indices" : 9,
                    "material" : 1
                }
            ]
        }
    ],
    "textures" : [
        {
            "sampler" : 0,
            "source" : 0
        },
        {
            "sampler" : 0,
            "source" : 0
        }
    ],
    "images" : [
        {
            "mimeType" : "image/png",
            "name" : "PP_Color_Palette",
            "uri" : "Textures/PP_Color_Palette.png"
        }
    ],
    "accessors" : [
        {
            "bufferView" : 0,
            "componentType" : 5126,
            "count" : 519,
            "max" : [
                2.5064148902893066,
                4.835441589355469,
                2.0573360919952393
            ],
            "min" : [
                -2.500002384185791,
                0.3234219551086426,
                -2.500002384185791
            ],
            "type" : "VEC3"
        },
        {
            "bufferView" : 1,
            "componentType" : 5126,
            "count" : 519,
            "type" : "VEC3"
        },
        {
            "bufferView" : 2,
            "componentType" : 5126,
            "count" : 519,
            "type" : "VEC2"
        },
        {
            "bufferView" : 3,
            "componentType" : 5126,
            "count" : 519,
            "type" : "VEC2"
        },
        {
            "bufferView" : 4,
            "componentType" : 5123,
            "count" : 519,
            "type" : "SCALAR"
        },
        {
            "bufferView" : 5,
            "componentType" : 5126,
            "count" : 1252,
            "max" : [
                2.5000007152557373,
                5.000000476837158,
                2.743147611618042
            ],
            "min" : [
                -2.500001907348633,
                0.3550407886505127,
                -2.500001907348633
            ],
            "type" : "VEC3"
        },
        {
            "bufferView" : 6,
            "componentType" : 5126,
            "count" : 1252,
            "type" : "VEC3"
        },
        {
            "bufferView" : 7,
            "componentType" : 5126,
            "count" : 1252,
            "type" : "VEC2"
        },
        {
            "bufferView" : 8,
            "componentType" : 5126,
            "count" : 1252,
            "type" : "VEC2"
        },
        {
            "bufferView" : 9,
            "componentType" : 5123,
            "count" : 1311,
            "type" : "SCALAR"
        }
    ],
    "bufferViews" : [
        {
            "buffer" : 0,
            "byteLength" : 6228,
            "byteOffset" : 0
        },
        {
            "buffer" : 0,
            "byteLength" : 6228,
            "byteOffset" : 6228
        },
        {
            "buffer" : 0,
            "byteLength" : 4152,
            "byteOffset" : 12456
        },
        {
            "buffer" : 0,
            "byteLength" : 4152,
            "byteOffset" : 16608
        },
        {
            "buffer" : 0,
            "byteLength" : 1038,
            "byteOffset" : 20760
        },
        {
            "buffer" : 0,
            "byteLength" : 15024,
            "byteOffset" : 21800
        },
        {
            "buffer" : 0,
            "byteLength" : 15024,
            "byteOffset" : 36824
        },
        {
            "buffer" : 0,
            "byteLength" : 10016,
            "byteOffset" : 51848
        },
        {
            "buffer" : 0,
            "byteLength" : 10016,
            "byteOffset" : 61864
        },
        {
            "buffer" : 0,
            "byteLength" : 2622,
            "byteOffset" : 71880
        }
    ],
    "samplers" : [
        {
            "magFilter" : 9729,
            "minFilter" : 9987
        }
    ],
    "buffers" : [
        {
            "byteLength" : 74504,
            "uri" : "5NoDownConnector.bin"
        }
    ]
}
