{
    "asset" : {
        "generator" : "Khronos glTF Blender I/O v3.2.43",
        "version" : "2.0"
    },
    "scene" : 0,
    "scenes" : [
        {
            "name" : "Scene",
            "nodes" : [
                0
            ]
        }
    ],
    "nodes" : [
        {
            "mesh" : 0,
            "name" : "5NoSideConnector_Col"
        }
    ],
    "meshes" : [
        {
            "name" : "Scene.004",
            "primitives" : [
                {
                    "attributes" : {
                        "POSITION" : 0,
                        "NORMAL" : 1,
                        "TEXCOORD_0" : 2,
                        "TEXCOORD_1" : 3
                    },
                    "indices" : 4
                }
            ]
        }
    ],
    "accessors" : [
        {
            "bufferView" : 0,
            "componentType" : 5126,
            "count" : 577,
            "max" : [
                1.9405993223190308,
                5.000000476837158,
                2.500000476837158
            ],
            "min" : [
                -2.500002861022949,
                -2.537086629672558e-06,
                -2.500002145767212
            ],
            "type" : "VEC3"
        },
        {
            "bufferView" : 1,
            "componentType" : 5126,
            "count" : 577,
            "type" : "VEC3"
        },
        {
            "bufferView" : 2,
            "componentType" : 5126,
            "count" : 577,
            "type" : "VEC2"
        },
        {
            "bufferView" : 3,
            "componentType" : 5126,
            "count" : 577,
            "type" : "VEC2"
        },
        {
            "bufferView" : 4,
            "componentType" : 5123,
            "count" : 1137,
            "type" : "SCALAR"
        }
    ],
    "bufferViews" : [
        {
            "buffer" : 0,
            "byteLength" : 6924,
            "byteOffset" : 0
        },
        {
            "buffer" : 0,
            "byteLength" : 6924,
            "byteOffset" : 6924
        },
        {
            "buffer" : 0,
            "byteLength" : 4616,
            "byteOffset" : 13848
        },
        {
            "buffer" : 0,
            "byteLength" : 4616,
            "byteOffset" : 18464
        },
        {
            "buffer" : 0,
            "byteLength" : 2274,
            "byteOffset" : 23080
        }
    ],
    "buffers" : [
        {
            "byteLength" : 25356,
            "uri" : "5NoSideConnector_Col.bin"
        }
    ]
}
