{
    "asset" : {
        "generator" : "Khronos glTF Blender I/O v3.2.43",
        "version" : "2.0"
    },
    "scene" : 0,
    "scenes" : [
        {
            "name" : "Scene",
            "nodes" : [
                0
            ]
        }
    ],
    "nodes" : [
        {
            "mesh" : 0,
            "name" : "5NoSideConnector"
        }
    ],
    "materials" : [
        {
            "doubleSided" : true,
            "name" : "PP_Standard_Material.199",
            "pbrMetallicRoughness" : {
                "baseColorTexture" : {
                    "index" : 0
                },
                "metallicFactor" : 0,
                "roughnessFactor" : 0.5527864098548889
            }
        },
        {
            "doubleSided" : true,
            "name" : "PP_Standard_Material.201",
            "pbrMetallicRoughness" : {
                "baseColorTexture" : {
                    "index" : 1
                },
                "metallicFactor" : 0,
                "roughnessFactor" : 0.5527864098548889
            }
        }
    ],
    "meshes" : [
        {
            "name" : "Scene.075",
            "primitives" : [
                {
                    "attributes" : {
                        "POSITION" : 0,
                        "NORMAL" : 1,
                        "TEXCOORD_0" : 2,
                        "TEXCOORD_1" : 3
                    },
                    "indices" : 4,
                    "material" : 0
                },
                {
                    "attributes" : {
                        "POSITION" : 5,
                        "NORMAL" : 6,
                        "TEXCOORD_0" : 7,
                        "TEXCOORD_1" : 8
                    },
                    "indices" : 9,
                    "material" : 1
                }
            ]
        }
    ],
    "textures" : [
        {
            "sampler" : 0,
            "source" : 0
        },
        {
            "sampler" : 0,
            "source" : 0
        }
    ],
    "images" : [
        {
            "mimeType" : "image/png",
            "name" : "PP_Color_Palette",
            "uri" : "Textures/PP_Color_Palette.png"
        }
    ],
    "accessors" : [
        {
            "bufferView" : 0,
            "componentType" : 5126,
            "count" : 797,
            "max" : [
                2.528604507446289,
                4.913024425506592,
                2.6864538192749023
            ],
            "min" : [
                -2.5000033378601074,
                -2.92869412987784e-06,
                -2.500002384185791
            ],
            "type" : "VEC3"
        },
        {
            "bufferView" : 1,
            "componentType" : 5126,
            "count" : 797,
            "type" : "VEC3"
        },
        {
            "bufferView" : 2,
            "componentType" : 5126,
            "count" : 797,
            "type" : "VEC2"
        },
        {
            "bufferView" : 3,
            "componentType" : 5126,
            "count" : 797,
            "type" : "VEC2"
        },
        {
            "bufferView" : 4,
            "componentType" : 5123,
            "count" : 801,
            "type" : "SCALAR"
        },
        {
            "bufferView" : 5,
            "componentType" : 5126,
            "count" : 1468,
            "max" : [
                2.4914989471435547,
                5.000000476837158,
                2.961874485015869
            ],
            "min" : [
                -2.6606760025024414,
                -2.2452236407843884e-06,
                -2.500001907348633
            ],
            "type" : "VEC3"
        },
        {
            "bufferView" : 6,
            "componentType" : 5126,
            "count" : 1468,
            "type" : "VEC3"
        },
        {
            "bufferView" : 7,
            "componentType" : 5126,
            "count" : 1468,
            "type" : "VEC2"
        },
        {
            "bufferView" : 8,
            "componentType" : 5126,
            "count" : 1468,
            "type" : "VEC2"
        },
        {
            "bufferView" : 9,
            "componentType" : 5123,
            "count" : 1524,
            "type" : "SCALAR"
        }
    ],
    "bufferViews" : [
        {
            "buffer" : 0,
            "byteLength" : 9564,
            "byteOffset" : 0
        },
        {
            "buffer" : 0,
            "byteLength" : 9564,
            "byteOffset" : 9564
        },
        {
            "buffer" : 0,
            "byteLength" : 6376,
            "byteOffset" : 19128
        },
        {
            "buffer" : 0,
            "byteLength" : 6376,
            "byteOffset" : 25504
        },
        {
            "buffer" : 0,
            "byteLength" : 1602,
            "byteOffset" : 31880
        },
        {
            "buffer" : 0,
            "byteLength" : 17616,
            "byteOffset" : 33484
        },
        {
            "buffer" : 0,
            "byteLength" : 17616,
            "byteOffset" : 51100
        },
        {
            "buffer" : 0,
            "byteLength" : 11744,
            "byteOffset" : 68716
        },
        {
            "buffer" : 0,
            "byteLength" : 11744,
            "byteOffset" : 80460
        },
        {
            "buffer" : 0,
            "byteLength" : 3048,
            "byteOffset" : 92204
        }
    ],
    "samplers" : [
        {
            "magFilter" : 9729,
            "minFilter" : 9987
        }
    ],
    "buffers" : [
        {
            "byteLength" : 95252,
            "uri" : "5NoSideConnector.bin"
        }
    ]
}
