{
    "asset" : {
        "generator" : "Khronos glTF Blender I/O v3.2.43",
        "version" : "2.0"
    },
    "scene" : 0,
    "scenes" : [
        {
            "name" : "Scene",
            "nodes" : [
                0
            ]
        }
    ],
    "nodes" : [
        {
            "mesh" : 0,
            "name" : "5NoSideConnector_Col"
        }
    ],
    "meshes" : [
        {
            "name" : "Scene.075",
            "primitives" : [
                {
                    "attributes" : {
                        "POSITION" : 0,
                        "NORMAL" : 1,
                        "TEXCOORD_0" : 2,
                        "TEXCOORD_1" : 3
                    },
                    "indices" : 4
                }
            ]
        }
    ],
    "accessors" : [
        {
            "bufferView" : 0,
            "componentType" : 5126,
            "count" : 1803,
            "max" : [
                2.528604507446289,
                5.000000476837158,
                2.961874485015869
            ],
            "min" : [
                -2.6606760025024414,
                -2.92869412987784e-06,
                -2.500002384185791
            ],
            "type" : "VEC3"
        },
        {
            "bufferView" : 1,
            "componentType" : 5126,
            "count" : 1803,
            "type" : "VEC3"
        },
        {
            "bufferView" : 2,
            "componentType" : 5126,
            "count" : 1803,
            "type" : "VEC2"
        },
        {
            "bufferView" : 3,
            "componentType" : 5126,
            "count" : 1803,
            "type" : "VEC2"
        },
        {
            "bufferView" : 4,
            "componentType" : 5123,
            "count" : 1839,
            "type" : "SCALAR"
        }
    ],
    "bufferViews" : [
        {
            "buffer" : 0,
            "byteLength" : 21636,
            "byteOffset" : 0
        },
        {
            "buffer" : 0,
            "byteLength" : 21636,
            "byteOffset" : 21636
        },
        {
            "buffer" : 0,
            "byteLength" : 14424,
            "byteOffset" : 43272
        },
        {
            "buffer" : 0,
            "byteLength" : 14424,
            "byteOffset" : 57696
        },
        {
            "buffer" : 0,
            "byteLength" : 3678,
            "byteOffset" : 72120
        }
    ],
    "buffers" : [
        {
            "byteLength" : 75800,
            "uri" : "5NoSideConnector_Col.bin"
        }
    ]
}
