{
    "asset" : {
        "generator" : "Khronos glTF Blender I/O v3.3.32",
        "version" : "2.0"
    },
    "scene" : 0,
    "scenes" : [
        {
            "name" : "Scene",
            "nodes" : [
                0
            ]
        }
    ],
    "nodes" : [
        {
            "mesh" : 0,
            "name" : "5NoSideConnector_Col"
        }
    ],
    "meshes" : [
        {
            "name" : "Scene.141",
            "primitives" : [
                {
                    "attributes" : {
                        "POSITION" : 0,
                        "NORMAL" : 1,
                        "TEXCOORD_0" : 2,
                        "TEXCOORD_1" : 3
                    },
                    "indices" : 4
                }
            ]
        }
    ],
    "accessors" : [
        {
            "bufferView" : 0,
            "componentType" : 5126,
            "count" : 1930,
            "max" : [
                2.528604507446289,
                5.000000953674316,
                2.961874485015869
            ],
            "min" : [
                -2.6606760025024414,
                -2.92869412987784e-06,
                -2.500002384185791
            ],
            "type" : "VEC3"
        },
        {
            "bufferView" : 1,
            "componentType" : 5126,
            "count" : 1930,
            "type" : "VEC3"
        },
        {
            "bufferView" : 2,
            "componentType" : 5126,
            "count" : 1930,
            "type" : "VEC2"
        },
        {
            "bufferView" : 3,
            "componentType" : 5126,
            "count" : 1930,
            "type" : "VEC2"
        },
        {
            "bufferView" : 4,
            "componentType" : 5123,
            "count" : 1965,
            "type" : "SCALAR"
        }
    ],
    "bufferViews" : [
        {
            "buffer" : 0,
            "byteLength" : 23160,
            "byteOffset" : 0,
            "target" : 34962
        },
        {
            "buffer" : 0,
            "byteLength" : 23160,
            "byteOffset" : 23160,
            "target" : 34962
        },
        {
            "buffer" : 0,
            "byteLength" : 15440,
            "byteOffset" : 46320,
            "target" : 34962
        },
        {
            "buffer" : 0,
            "byteLength" : 15440,
            "byteOffset" : 61760,
            "target" : 34962
        },
        {
            "buffer" : 0,
            "byteLength" : 3930,
            "byteOffset" : 77200,
            "target" : 34963
        }
    ],
    "buffers" : [
        {
            "byteLength" : 81132,
            "uri" : "5NoSideConnector_Col.bin"
        }
    ]
}
