{
    "asset" : {
        "generator" : "Khronos glTF Blender I/O v3.3.32",
        "version" : "2.0"
    },
    "scene" : 0,
    "scenes" : [
        {
            "name" : "Scene",
            "nodes" : [
                0
            ]
        }
    ],
    "nodes" : [
        {
            "mesh" : 0,
            "name" : "5NoUpConnector_Col"
        }
    ],
    "meshes" : [
        {
            "name" : "Scene.091",
            "primitives" : [
                {
                    "attributes" : {
                        "POSITION" : 0,
                        "NORMAL" : 1,
                        "TEXCOORD_0" : 2,
                        "TEXCOORD_1" : 3
                    },
                    "indices" : 4
                }
            ]
        }
    ],
    "accessors" : [
        {
            "bufferView" : 0,
            "componentType" : 5126,
            "count" : 1714,
            "max" : [
                2.5000007152557373,
                4.8361687660217285,
                2.9904067516326904
            ],
            "min" : [
                -2.6992998123168945,
                -3.148788891849108e-06,
                -2.500002384185791
            ],
            "type" : "VEC3"
        },
        {
            "bufferView" : 1,
            "componentType" : 5126,
            "count" : 1714,
            "type" : "VEC3"
        },
        {
            "bufferView" : 2,
            "componentType" : 5126,
            "count" : 1714,
            "type" : "VEC2"
        },
        {
            "bufferView" : 3,
            "componentType" : 5126,
            "count" : 1714,
            "type" : "VEC2"
        },
        {
            "bufferView" : 4,
            "componentType" : 5123,
            "count" : 1746,
            "type" : "SCALAR"
        }
    ],
    "bufferViews" : [
        {
            "buffer" : 0,
            "byteLength" : 20568,
            "byteOffset" : 0,
            "target" : 34962
        },
        {
            "buffer" : 0,
            "byteLength" : 20568,
            "byteOffset" : 20568,
            "target" : 34962
        },
        {
            "buffer" : 0,
            "byteLength" : 13712,
            "byteOffset" : 41136,
            "target" : 34962
        },
        {
            "buffer" : 0,
            "byteLength" : 13712,
            "byteOffset" : 54848,
            "target" : 34962
        },
        {
            "buffer" : 0,
            "byteLength" : 3492,
            "byteOffset" : 68560,
            "target" : 34963
        }
    ],
    "buffers" : [
        {
            "byteLength" : 72052,
            "uri" : "5NoUpConnector_Col.bin"
        }
    ]
}
