{
    "asset" : {
        "generator" : "Khronos glTF Blender I/O v3.2.43",
        "version" : "2.0"
    },
    "scene" : 0,
    "scenes" : [
        {
            "name" : "Scene",
            "nodes" : [
                0
            ]
        }
    ],
    "nodes" : [
        {
            "mesh" : 0,
            "name" : "5NoUpConnector_Col"
        }
    ],
    "meshes" : [
        {
            "name" : "Scene.005",
            "primitives" : [
                {
                    "attributes" : {
                        "POSITION" : 0,
                        "NORMAL" : 1,
                        "TEXCOORD_0" : 2,
                        "TEXCOORD_1" : 3
                    },
                    "indices" : 4
                }
            ]
        }
    ],
    "accessors" : [
        {
            "bufferView" : 0,
            "componentType" : 5126,
            "count" : 969,
            "max" : [
                2.500000476837158,
                4.406264781951904,
                2.500000476837158
            ],
            "min" : [
                -2.500002145767212,
                -2.537086629672558e-06,
                -2.500002145767212
            ],
            "type" : "VEC3"
        },
        {
            "bufferView" : 1,
            "componentType" : 5126,
            "count" : 969,
            "type" : "VEC3"
        },
        {
            "bufferView" : 2,
            "componentType" : 5126,
            "count" : 969,
            "type" : "VEC2"
        },
        {
            "bufferView" : 3,
            "componentType" : 5126,
            "count" : 969,
            "type" : "VEC2"
        },
        {
            "bufferView" : 4,
            "componentType" : 5123,
            "count" : 1086,
            "type" : "SCALAR"
        }
    ],
    "bufferViews" : [
        {
            "buffer" : 0,
            "byteLength" : 11628,
            "byteOffset" : 0
        },
        {
            "buffer" : 0,
            "byteLength" : 11628,
            "byteOffset" : 11628
        },
        {
            "buffer" : 0,
            "byteLength" : 7752,
            "byteOffset" : 23256
        },
        {
            "buffer" : 0,
            "byteLength" : 7752,
            "byteOffset" : 31008
        },
        {
            "buffer" : 0,
            "byteLength" : 2172,
            "byteOffset" : 38760
        }
    ],
    "buffers" : [
        {
            "byteLength" : 40932,
            "uri" : "5NoUpConnector_Col.bin"
        }
    ]
}
