{
    "asset" : {
        "generator" : "Khronos glTF Blender I/O v3.3.32",
        "version" : "2.0"
    },
    "extensionsUsed" : [
        "KHR_lights_punctual"
    ],
    "extensionsRequired" : [
        "KHR_lights_punctual"
    ],
    "extensions" : {
        "KHR_lights_punctual" : {
            "lights" : [
                {
                    "color" : [
                        1,
                        0.9174709916114807,
                        0.17282919585704803
                    ],
                    "intensity" : 10,
                    "type" : "point",
                    "name" : "Point.020"
                },
                {
                    "color" : [
                        1,
                        0.9174709916114807,
                        0.17282919585704803
                    ],
                    "intensity" : 10,
                    "type" : "point",
                    "name" : "Point.021"
                },
                {
                    "color" : [
                        1,
                        0.9174709916114807,
                        0.17282919585704803
                    ],
                    "intensity" : 10,
                    "type" : "point",
                    "name" : "Point.022"
                },
                {
                    "color" : [
                        1,
                        0.9174709916114807,
                        0.17282919585704803
                    ],
                    "intensity" : 10,
                    "type" : "point",
                    "name" : "Point.023"
                }
            ]
        }
    },
    "scene" : 0,
    "scenes" : [
        {
            "name" : "Scene",
            "nodes" : [
                0,
                1,
                2,
                3,
                4
            ]
        }
    ],
    "nodes" : [
        {
            "mesh" : 0,
            "name" : "Bridge1"
        },
        {
            "extensions" : {
                "KHR_lights_punctual" : {
                    "light" : 0
                }
            },
            "name" : "Point.020",
            "rotation" : [
                -0.7071068286895752,
                0,
                0,
                0.7071068286895752
            ],
            "translation" : [
                -1.2835370302200317,
                2.2507810592651367,
                1.053204894065857
            ]
        },
        {
            "extensions" : {
                "KHR_lights_punctual" : {
                    "light" : 1
                }
            },
            "name" : "Point.021",
            "rotation" : [
                -0.7071068286895752,
                0,
                0,
                0.7071068286895752
            ],
            "translation" : [
                1.2797757387161255,
                2.2507810592651367,
                1.053204894065857
            ]
        },
        {
            "extensions" : {
                "KHR_lights_punctual" : {
                    "light" : 2
                }
            },
            "name" : "Point.022",
            "rotation" : [
                -0.7071068286895752,
                0,
                0,
                0.7071068286895752
            ],
            "translation" : [
                1.3013157844543457,
                2.2507810592651367,
                -1.0164268016815186
            ]
        },
        {
            "extensions" : {
                "KHR_lights_punctual" : {
                    "light" : 3
                }
            },
            "name" : "Point.023",
            "rotation" : [
                -0.7071068286895752,
                0,
                0,
                0.7071068286895752
            ],
            "translation" : [
                -1.2854135036468506,
                2.2507810592651367,
                -1.0164268016815186
            ]
        }
    ],
    "materials" : [
        {
            "doubleSided" : true,
            "name" : "Harbour_pellars_01",
            "normalTexture" : {
                "index" : 0,
                "scale" : 10
            },
            "pbrMetallicRoughness" : {
                "baseColorTexture" : {
                    "index" : 1
                },
                "metallicFactor" : 0,
                "roughnessFactor" : 0.5
            }
        },
        {
            "doubleSided" : true,
            "name" : "Simple_Chrome_metal",
            "normalTexture" : {
                "index" : 2,
                "scale" : 10
            },
            "pbrMetallicRoughness" : {
                "baseColorTexture" : {
                    "index" : 3
                },
                "metallicFactor" : 0
            }
        }
    ],
    "meshes" : [
        {
            "name" : "Scene.005",
            "primitives" : [
                {
                    "attributes" : {
                        "POSITION" : 0,
                        "NORMAL" : 1,
                        "TEXCOORD_0" : 2,
                        "TEXCOORD_1" : 3
                    },
                    "indices" : 4,
                    "material" : 0
                },
                {
                    "attributes" : {
                        "POSITION" : 5,
                        "NORMAL" : 6,
                        "TEXCOORD_0" : 7,
                        "TEXCOORD_1" : 8
                    },
                    "indices" : 9,
                    "material" : 1
                }
            ]
        }
    ],
    "textures" : [
        {
            "sampler" : 0,
            "source" : 0
        },
        {
            "sampler" : 0,
            "source" : 1
        },
        {
            "sampler" : 0,
            "source" : 0
        },
        {
            "sampler" : 0,
            "source" : 1
        }
    ],
    "images" : [
        {
            "mimeType" : "image/png",
            "name" : "NormalGroup14",
            "uri" : "Textures/NormalGroup14.png"
        },
        {
            "mimeType" : "image/png",
            "name" : "DiffuseGroup14",
            "uri" : "Textures/DiffuseGroup14.png"
        }
    ],
    "accessors" : [
        {
            "bufferView" : 0,
            "componentType" : 5126,
            "count" : 6463,
            "max" : [
                2.5864434242248535,
                2.2597813606262207,
                1.1236460208892822
            ],
            "min" : [
                -2.556191921234131,
                1.2562166452407837,
                -1.0722745656967163
            ],
            "type" : "VEC3"
        },
        {
            "bufferView" : 1,
            "componentType" : 5126,
            "count" : 6463,
            "type" : "VEC3"
        },
        {
            "bufferView" : 2,
            "componentType" : 5126,
            "count" : 6463,
            "type" : "VEC2"
        },
        {
            "bufferView" : 3,
            "componentType" : 5126,
            "count" : 6463,
            "type" : "VEC2"
        },
        {
            "bufferView" : 4,
            "componentType" : 5123,
            "count" : 6531,
            "type" : "SCALAR"
        },
        {
            "bufferView" : 5,
            "componentType" : 5126,
            "count" : 4994,
            "max" : [
                1.4031527042388916,
                2.3015365600585938,
                1.1418578624725342
            ],
            "min" : [
                -1.389176607131958,
                1.8588719367980957,
                -1.0904862880706787
            ],
            "type" : "VEC3"
        },
        {
            "bufferView" : 6,
            "componentType" : 5126,
            "count" : 4994,
            "type" : "VEC3"
        },
        {
            "bufferView" : 7,
            "componentType" : 5126,
            "count" : 4994,
            "type" : "VEC2"
        },
        {
            "bufferView" : 8,
            "componentType" : 5126,
            "count" : 4994,
            "type" : "VEC2"
        },
        {
            "bufferView" : 9,
            "componentType" : 5123,
            "count" : 5004,
            "type" : "SCALAR"
        }
    ],
    "bufferViews" : [
        {
            "buffer" : 0,
            "byteLength" : 77556,
            "byteOffset" : 0,
            "target" : 34962
        },
        {
            "buffer" : 0,
            "byteLength" : 77556,
            "byteOffset" : 77556,
            "target" : 34962
        },
        {
            "buffer" : 0,
            "byteLength" : 51704,
            "byteOffset" : 155112,
            "target" : 34962
        },
        {
            "buffer" : 0,
            "byteLength" : 51704,
            "byteOffset" : 206816,
            "target" : 34962
        },
        {
            "buffer" : 0,
            "byteLength" : 13062,
            "byteOffset" : 258520,
            "target" : 34963
        },
        {
            "buffer" : 0,
            "byteLength" : 59928,
            "byteOffset" : 271584,
            "target" : 34962
        },
        {
            "buffer" : 0,
            "byteLength" : 59928,
            "byteOffset" : 331512,
            "target" : 34962
        },
        {
            "buffer" : 0,
            "byteLength" : 39952,
            "byteOffset" : 391440,
            "target" : 34962
        },
        {
            "buffer" : 0,
            "byteLength" : 39952,
            "byteOffset" : 431392,
            "target" : 34962
        },
        {
            "buffer" : 0,
            "byteLength" : 10008,
            "byteOffset" : 471344,
            "target" : 34963
        }
    ],
    "samplers" : [
        {
            "magFilter" : 9729,
            "minFilter" : 9987
        }
    ],
    "buffers" : [
        {
            "byteLength" : 481352,
            "uri" : "Bridge1.bin"
        }
    ]
}
