{
    "asset" : {
        "generator" : "Khronos glTF Blender I/O v3.2.43",
        "version" : "2.0"
    },
    "scene" : 0,
    "scenes" : [
        {
            "name" : "Scene",
            "nodes" : [
                0
            ]
        }
    ],
    "nodes" : [
        {
            "mesh" : 0,
            "name" : "Cliff1"
        }
    ],
    "materials" : [
        {
            "doubleSided" : true,
            "emissiveFactor" : [
                1,
                1,
                1
            ],
            "emissiveTexture" : {
                "index" : 0
            },
            "name" : "PP_Standard_Material.028",
            "pbrMetallicRoughness" : {
                "baseColorTexture" : {
                    "index" : 1
                },
                "metallicFactor" : 0,
                "roughnessFactor" : 0.5527864098548889
            }
        }
    ],
    "meshes" : [
        {
            "name" : "Scene.047",
            "primitives" : [
                {
                    "attributes" : {
                        "POSITION" : 0,
                        "NORMAL" : 1,
                        "TEXCOORD_0" : 2,
                        "TEXCOORD_1" : 3
                    },
                    "indices" : 4,
                    "material" : 0
                }
            ]
        }
    ],
    "textures" : [
        {
            "sampler" : 0,
            "source" : 0
        },
        {
            "sampler" : 0,
            "source" : 1
        }
    ],
    "images" : [
        {
            "mimeType" : "image/png",
            "name" : "PP_Color_Palette_Emmissive",
            "uri" : "Textures/PP_Color_Palette_Emmissive.png"
        },
        {
            "mimeType" : "image/png",
            "name" : "PP_Color_Palette",
            "uri" : "Textures/PP_Color_Palette.png"
        }
    ],
    "accessors" : [
        {
            "bufferView" : 0,
            "componentType" : 5126,
            "count" : 2244,
            "max" : [
                2.5,
                5,
                2.500000238418579
            ],
            "min" : [
                -0.4694071412086487,
                1.2481119632720947,
                -2.5
            ],
            "type" : "VEC3"
        },
        {
            "bufferView" : 1,
            "componentType" : 5126,
            "count" : 2244,
            "type" : "VEC3"
        },
        {
            "bufferView" : 2,
            "componentType" : 5126,
            "count" : 2244,
            "type" : "VEC2"
        },
        {
            "bufferView" : 3,
            "componentType" : 5126,
            "count" : 2244,
            "type" : "VEC2"
        },
        {
            "bufferView" : 4,
            "componentType" : 5123,
            "count" : 2244,
            "type" : "SCALAR"
        }
    ],
    "bufferViews" : [
        {
            "buffer" : 0,
            "byteLength" : 26928,
            "byteOffset" : 0
        },
        {
            "buffer" : 0,
            "byteLength" : 26928,
            "byteOffset" : 26928
        },
        {
            "buffer" : 0,
            "byteLength" : 17952,
            "byteOffset" : 53856
        },
        {
            "buffer" : 0,
            "byteLength" : 17952,
            "byteOffset" : 71808
        },
        {
            "buffer" : 0,
            "byteLength" : 4488,
            "byteOffset" : 89760
        }
    ],
    "samplers" : [
        {
            "magFilter" : 9729,
            "minFilter" : 9987
        }
    ],
    "buffers" : [
        {
            "byteLength" : 94248,
            "uri" : "Cliff1.bin"
        }
    ]
}
