{
    "asset" : {
        "generator" : "Khronos glTF Blender I/O v3.3.32",
        "version" : "2.0"
    },
    "scene" : 0,
    "scenes" : [
        {
            "name" : "Scene",
            "nodes" : [
                0
            ]
        }
    ],
    "nodes" : [
        {
            "mesh" : 0,
            "name" : "Cliff1_Col"
        }
    ],
    "meshes" : [
        {
            "name" : "Scene.134",
            "primitives" : [
                {
                    "attributes" : {
                        "POSITION" : 0,
                        "NORMAL" : 1,
                        "TEXCOORD_0" : 2,
                        "TEXCOORD_1" : 3
                    },
                    "indices" : 4
                }
            ]
        }
    ],
    "accessors" : [
        {
            "bufferView" : 0,
            "componentType" : 5126,
            "count" : 2823,
            "max" : [
                2.5459022521972656,
                5.025717735290527,
                2.7130963802337646
            ],
            "min" : [
                -0.895950973033905,
                0.9417095184326172,
                -2.7295072078704834
            ],
            "type" : "VEC3"
        },
        {
            "bufferView" : 1,
            "componentType" : 5126,
            "count" : 2823,
            "type" : "VEC3"
        },
        {
            "bufferView" : 2,
            "componentType" : 5126,
            "count" : 2823,
            "type" : "VEC2"
        },
        {
            "bufferView" : 3,
            "componentType" : 5126,
            "count" : 2823,
            "type" : "VEC2"
        },
        {
            "bufferView" : 4,
            "componentType" : 5123,
            "count" : 2823,
            "type" : "SCALAR"
        }
    ],
    "bufferViews" : [
        {
            "buffer" : 0,
            "byteLength" : 33876,
            "byteOffset" : 0,
            "target" : 34962
        },
        {
            "buffer" : 0,
            "byteLength" : 33876,
            "byteOffset" : 33876,
            "target" : 34962
        },
        {
            "buffer" : 0,
            "byteLength" : 22584,
            "byteOffset" : 67752,
            "target" : 34962
        },
        {
            "buffer" : 0,
            "byteLength" : 22584,
            "byteOffset" : 90336,
            "target" : 34962
        },
        {
            "buffer" : 0,
            "byteLength" : 5646,
            "byteOffset" : 112920,
            "target" : 34963
        }
    ],
    "buffers" : [
        {
            "byteLength" : 118568,
            "uri" : "Cliff1_Col.bin"
        }
    ]
}
