{
    "asset" : {
        "generator" : "Khronos glTF Blender I/O v3.2.43",
        "version" : "2.0"
    },
    "scene" : 0,
    "scenes" : [
        {
            "name" : "Scene",
            "nodes" : [
                0
            ]
        }
    ],
    "nodes" : [
        {
            "mesh" : 0,
            "name" : "CliffCorner1_Col"
        }
    ],
    "meshes" : [
        {
            "name" : "Scene.019",
            "primitives" : [
                {
                    "attributes" : {
                        "POSITION" : 0,
                        "NORMAL" : 1,
                        "TEXCOORD_0" : 2,
                        "TEXCOORD_1" : 3
                    },
                    "indices" : 4
                }
            ]
        }
    ],
    "accessors" : [
        {
            "bufferView" : 0,
            "componentType" : 5126,
            "count" : 285,
            "max" : [
                2.5,
                5.000000476837158,
                0.46408089995384216
            ],
            "min" : [
                -0.32526808977127075,
                1.2558103799819946,
                -2.499999761581421
            ],
            "type" : "VEC3"
        },
        {
            "bufferView" : 1,
            "componentType" : 5126,
            "count" : 285,
            "type" : "VEC3"
        },
        {
            "bufferView" : 2,
            "componentType" : 5126,
            "count" : 285,
            "type" : "VEC2"
        },
        {
            "bufferView" : 3,
            "componentType" : 5126,
            "count" : 285,
            "type" : "VEC2"
        },
        {
            "bufferView" : 4,
            "componentType" : 5123,
            "count" : 285,
            "type" : "SCALAR"
        }
    ],
    "bufferViews" : [
        {
            "buffer" : 0,
            "byteLength" : 3420,
            "byteOffset" : 0
        },
        {
            "buffer" : 0,
            "byteLength" : 3420,
            "byteOffset" : 3420
        },
        {
            "buffer" : 0,
            "byteLength" : 2280,
            "byteOffset" : 6840
        },
        {
            "buffer" : 0,
            "byteLength" : 2280,
            "byteOffset" : 9120
        },
        {
            "buffer" : 0,
            "byteLength" : 570,
            "byteOffset" : 11400
        }
    ],
    "buffers" : [
        {
            "byteLength" : 11972,
            "uri" : "CliffCorner1_Col.bin"
        }
    ]
}
