{
    "asset" : {
        "generator" : "Khronos glTF Blender I/O v3.2.43",
        "version" : "2.0"
    },
    "scene" : 0,
    "scenes" : [
        {
            "name" : "Scene",
            "nodes" : [
                0
            ]
        }
    ],
    "nodes" : [
        {
            "mesh" : 0,
            "name" : "CornerFloor1Replacer5"
        }
    ],
    "materials" : [
        {
            "doubleSided" : true,
            "name" : "PP_Standard_Material.059",
            "pbrMetallicRoughness" : {
                "baseColorTexture" : {
                    "index" : 0
                },
                "metallicFactor" : 0,
                "roughnessFactor" : 0.5527864098548889
            }
        },
        {
            "doubleSided" : true,
            "name" : "PP_Standard_Material.060",
            "pbrMetallicRoughness" : {
                "baseColorTexture" : {
                    "index" : 1
                },
                "metallicFactor" : 0,
                "roughnessFactor" : 0.5527864098548889
            }
        },
        {
            "doubleSided" : true,
            "name" : "PP_Standard_Material.061",
            "pbrMetallicRoughness" : {
                "baseColorTexture" : {
                    "index" : 2
                },
                "metallicFactor" : 0,
                "roughnessFactor" : 0.5527864098548889
            }
        },
        {
            "doubleSided" : true,
            "name" : "PP_Standard_Material.062",
            "pbrMetallicRoughness" : {
                "baseColorTexture" : {
                    "index" : 3
                },
                "metallicFactor" : 0,
                "roughnessFactor" : 0.5527864098548889
            }
        },
        {
            "doubleSided" : true,
            "name" : "PP_Standard_Material.064",
            "pbrMetallicRoughness" : {
                "baseColorTexture" : {
                    "index" : 4
                },
                "metallicFactor" : 0,
                "roughnessFactor" : 0.5527864098548889
            }
        },
        {
            "doubleSided" : true,
            "name" : "PP_Standard_Material.066",
            "pbrMetallicRoughness" : {
                "baseColorTexture" : {
                    "index" : 5
                },
                "metallicFactor" : 0,
                "roughnessFactor" : 0.5527864098548889
            }
        }
    ],
    "meshes" : [
        {
            "name" : "Scene.014",
            "primitives" : [
                {
                    "attributes" : {
                        "POSITION" : 0,
                        "NORMAL" : 1,
                        "TEXCOORD_0" : 2,
                        "TEXCOORD_1" : 3
                    },
                    "indices" : 4,
                    "material" : 0
                },
                {
                    "attributes" : {
                        "POSITION" : 5,
                        "NORMAL" : 6,
                        "TEXCOORD_0" : 7,
                        "TEXCOORD_1" : 8
                    },
                    "indices" : 9,
                    "material" : 1
                },
                {
                    "attributes" : {
                        "POSITION" : 10,
                        "NORMAL" : 11,
                        "TEXCOORD_0" : 12,
                        "TEXCOORD_1" : 13
                    },
                    "indices" : 14,
                    "material" : 2
                },
                {
                    "attributes" : {
                        "POSITION" : 15,
                        "NORMAL" : 16,
                        "TEXCOORD_0" : 17,
                        "TEXCOORD_1" : 18
                    },
                    "indices" : 19,
                    "material" : 3
                },
                {
                    "attributes" : {
                        "POSITION" : 20,
                        "NORMAL" : 21,
                        "TEXCOORD_0" : 22,
                        "TEXCOORD_1" : 23
                    },
                    "indices" : 24,
                    "material" : 4
                },
                {
                    "attributes" : {
                        "POSITION" : 25,
                        "NORMAL" : 26,
                        "TEXCOORD_0" : 27,
                        "TEXCOORD_1" : 28
                    },
                    "indices" : 29,
                    "material" : 5
                }
            ]
        }
    ],
    "textures" : [
        {
            "sampler" : 0,
            "source" : 0
        },
        {
            "sampler" : 0,
            "source" : 0
        },
        {
            "sampler" : 0,
            "source" : 0
        },
        {
            "sampler" : 0,
            "source" : 0
        },
        {
            "sampler" : 0,
            "source" : 0
        },
        {
            "sampler" : 0,
            "source" : 0
        }
    ],
    "images" : [
        {
            "mimeType" : "image/png",
            "name" : "PP_Color_Palette",
            "uri" : "Textures/PP_Color_Palette.png"
        }
    ],
    "accessors" : [
        {
            "bufferView" : 0,
            "componentType" : 5126,
            "count" : 418,
            "max" : [
                2.1485424041748047,
                1.4946995973587036,
                2.7084195613861084
            ],
            "min" : [
                -2.433056354522705,
                -1.4684443385704071e-06,
                -1.7145003080368042
            ],
            "type" : "VEC3"
        },
        {
            "bufferView" : 1,
            "componentType" : 5126,
            "count" : 418,
            "type" : "VEC3"
        },
        {
            "bufferView" : 2,
            "componentType" : 5126,
            "count" : 418,
            "type" : "VEC2"
        },
        {
            "bufferView" : 3,
            "componentType" : 5126,
            "count" : 418,
            "type" : "VEC2"
        },
        {
            "bufferView" : 4,
            "componentType" : 5123,
            "count" : 420,
            "type" : "SCALAR"
        },
        {
            "bufferView" : 5,
            "componentType" : 5126,
            "count" : 33,
            "max" : [
                1.8742620944976807,
                1.209937334060669,
                2.292141914367676
            ],
            "min" : [
                -0.5144611597061157,
                0.4911779761314392,
                -1.175790548324585
            ],
            "type" : "VEC3"
        },
        {
            "bufferView" : 6,
            "componentType" : 5126,
            "count" : 33,
            "type" : "VEC3"
        },
        {
            "bufferView" : 7,
            "componentType" : 5126,
            "count" : 33,
            "type" : "VEC2"
        },
        {
            "bufferView" : 8,
            "componentType" : 5126,
            "count" : 33,
            "type" : "VEC2"
        },
        {
            "bufferView" : 9,
            "componentType" : 5123,
            "count" : 33,
            "type" : "SCALAR"
        },
        {
            "bufferView" : 10,
            "componentType" : 5126,
            "count" : 125,
            "max" : [
                -0.9551411867141724,
                5.108158111572266,
                2.896029472351074
            ],
            "min" : [
                -2.499999761581421,
                1.123402714729309,
                -0.38350164890289307
            ],
            "type" : "VEC3"
        },
        {
            "bufferView" : 11,
            "componentType" : 5126,
            "count" : 125,
            "type" : "VEC3"
        },
        {
            "bufferView" : 12,
            "componentType" : 5126,
            "count" : 125,
            "type" : "VEC2"
        },
        {
            "bufferView" : 13,
            "componentType" : 5126,
            "count" : 125,
            "type" : "VEC2"
        },
        {
            "bufferView" : 14,
            "componentType" : 5123,
            "count" : 126,
            "type" : "SCALAR"
        },
        {
            "bufferView" : 15,
            "componentType" : 5126,
            "count" : 182,
            "max" : [
                0.9193106293678284,
                4.878454208374023,
                2.1640775203704834
            ],
            "min" : [
                -2.499999761581421,
                0.6834946870803833,
                -1.7881085872650146
            ],
            "type" : "VEC3"
        },
        {
            "bufferView" : 16,
            "componentType" : 5126,
            "count" : 182,
            "type" : "VEC3"
        },
        {
            "bufferView" : 17,
            "componentType" : 5126,
            "count" : 182,
            "type" : "VEC2"
        },
        {
            "bufferView" : 18,
            "componentType" : 5126,
            "count" : 182,
            "type" : "VEC2"
        },
        {
            "bufferView" : 19,
            "componentType" : 5123,
            "count" : 186,
            "type" : "SCALAR"
        },
        {
            "bufferView" : 20,
            "componentType" : 5126,
            "count" : 282,
            "max" : [
                2.500014066696167,
                5.000003814697266,
                2.500000238418579
            ],
            "min" : [
                -2.0288422107696533,
                0.48491621017456055,
                -1.4373819828033447
            ],
            "type" : "VEC3"
        },
        {
            "bufferView" : 21,
            "componentType" : 5126,
            "count" : 282,
            "type" : "VEC3"
        },
        {
            "bufferView" : 22,
            "componentType" : 5126,
            "count" : 282,
            "type" : "VEC2"
        },
        {
            "bufferView" : 23,
            "componentType" : 5126,
            "count" : 282,
            "type" : "VEC2"
        },
        {
            "bufferView" : 24,
            "componentType" : 5123,
            "count" : 282,
            "type" : "SCALAR"
        },
        {
            "bufferView" : 25,
            "componentType" : 5126,
            "count" : 138,
            "max" : [
                2.5,
                5,
                -0.7597540616989136
            ],
            "min" : [
                0.12295306473970413,
                1.0558314323425293,
                -1.5876399278640747
            ],
            "type" : "VEC3"
        },
        {
            "bufferView" : 26,
            "componentType" : 5126,
            "count" : 138,
            "type" : "VEC3"
        },
        {
            "bufferView" : 27,
            "componentType" : 5126,
            "count" : 138,
            "type" : "VEC2"
        },
        {
            "bufferView" : 28,
            "componentType" : 5126,
            "count" : 138,
            "type" : "VEC2"
        },
        {
            "bufferView" : 29,
            "componentType" : 5123,
            "count" : 138,
            "type" : "SCALAR"
        }
    ],
    "bufferViews" : [
        {
            "buffer" : 0,
            "byteLength" : 5016,
            "byteOffset" : 0
        },
        {
            "buffer" : 0,
            "byteLength" : 5016,
            "byteOffset" : 5016
        },
        {
            "buffer" : 0,
            "byteLength" : 3344,
            "byteOffset" : 10032
        },
        {
            "buffer" : 0,
            "byteLength" : 3344,
            "byteOffset" : 13376
        },
        {
            "buffer" : 0,
            "byteLength" : 840,
            "byteOffset" : 16720
        },
        {
            "buffer" : 0,
            "byteLength" : 396,
            "byteOffset" : 17560
        },
        {
            "buffer" : 0,
            "byteLength" : 396,
            "byteOffset" : 17956
        },
        {
            "buffer" : 0,
            "byteLength" : 264,
            "byteOffset" : 18352
        },
        {
            "buffer" : 0,
            "byteLength" : 264,
            "byteOffset" : 18616
        },
        {
            "buffer" : 0,
            "byteLength" : 66,
            "byteOffset" : 18880
        },
        {
            "buffer" : 0,
            "byteLength" : 1500,
            "byteOffset" : 18948
        },
        {
            "buffer" : 0,
            "byteLength" : 1500,
            "byteOffset" : 20448
        },
        {
            "buffer" : 0,
            "byteLength" : 1000,
            "byteOffset" : 21948
        },
        {
            "buffer" : 0,
            "byteLength" : 1000,
            "byteOffset" : 22948
        },
        {
            "buffer" : 0,
            "byteLength" : 252,
            "byteOffset" : 23948
        },
        {
            "buffer" : 0,
            "byteLength" : 2184,
            "byteOffset" : 24200
        },
        {
            "buffer" : 0,
            "byteLength" : 2184,
            "byteOffset" : 26384
        },
        {
            "buffer" : 0,
            "byteLength" : 1456,
            "byteOffset" : 28568
        },
        {
            "buffer" : 0,
            "byteLength" : 1456,
            "byteOffset" : 30024
        },
        {
            "buffer" : 0,
            "byteLength" : 372,
            "byteOffset" : 31480
        },
        {
            "buffer" : 0,
            "byteLength" : 3384,
            "byteOffset" : 31852
        },
        {
            "buffer" : 0,
            "byteLength" : 3384,
            "byteOffset" : 35236
        },
        {
            "buffer" : 0,
            "byteLength" : 2256,
            "byteOffset" : 38620
        },
        {
            "buffer" : 0,
            "byteLength" : 2256,
            "byteOffset" : 40876
        },
        {
            "buffer" : 0,
            "byteLength" : 564,
            "byteOffset" : 43132
        },
        {
            "buffer" : 0,
            "byteLength" : 1656,
            "byteOffset" : 43696
        },
        {
            "buffer" : 0,
            "byteLength" : 1656,
            "byteOffset" : 45352
        },
        {
            "buffer" : 0,
            "byteLength" : 1104,
            "byteOffset" : 47008
        },
        {
            "buffer" : 0,
            "byteLength" : 1104,
            "byteOffset" : 48112
        },
        {
            "buffer" : 0,
            "byteLength" : 276,
            "byteOffset" : 49216
        }
    ],
    "samplers" : [
        {
            "magFilter" : 9729,
            "minFilter" : 9987
        }
    ],
    "buffers" : [
        {
            "byteLength" : 49492,
            "uri" : "CornerFloor1Replacer5.bin"
        }
    ]
}
