{
    "asset" : {
        "generator" : "Khronos glTF Blender I/O v3.3.32",
        "version" : "2.0"
    },
    "scene" : 0,
    "scenes" : [
        {
            "name" : "Scene",
            "nodes" : [
                0
            ]
        }
    ],
    "nodes" : [
        {
            "mesh" : 0,
            "name" : "CornerFloor1Replacer6_Col"
        }
    ],
    "meshes" : [
        {
            "name" : "Scene.127",
            "primitives" : [
                {
                    "attributes" : {
                        "POSITION" : 0,
                        "NORMAL" : 1,
                        "TEXCOORD_0" : 2,
                        "TEXCOORD_1" : 3
                    },
                    "indices" : 4
                }
            ]
        }
    ],
    "accessors" : [
        {
            "bufferView" : 0,
            "componentType" : 5126,
            "count" : 828,
            "max" : [
                2.993939161300659,
                5.086136817932129,
                2.8753745555877686
            ],
            "min" : [
                -2.5,
                0.08324289321899414,
                -2.499999761581421
            ],
            "type" : "VEC3"
        },
        {
            "bufferView" : 1,
            "componentType" : 5126,
            "count" : 828,
            "type" : "VEC3"
        },
        {
            "bufferView" : 2,
            "componentType" : 5126,
            "count" : 828,
            "type" : "VEC2"
        },
        {
            "bufferView" : 3,
            "componentType" : 5126,
            "count" : 828,
            "type" : "VEC2"
        },
        {
            "bufferView" : 4,
            "componentType" : 5123,
            "count" : 831,
            "type" : "SCALAR"
        }
    ],
    "bufferViews" : [
        {
            "buffer" : 0,
            "byteLength" : 9936,
            "byteOffset" : 0,
            "target" : 34962
        },
        {
            "buffer" : 0,
            "byteLength" : 9936,
            "byteOffset" : 9936,
            "target" : 34962
        },
        {
            "buffer" : 0,
            "byteLength" : 6624,
            "byteOffset" : 19872,
            "target" : 34962
        },
        {
            "buffer" : 0,
            "byteLength" : 6624,
            "byteOffset" : 26496,
            "target" : 34962
        },
        {
            "buffer" : 0,
            "byteLength" : 1662,
            "byteOffset" : 33120,
            "target" : 34963
        }
    ],
    "buffers" : [
        {
            "byteLength" : 34784,
            "uri" : "CornerFloor1Replacer6_Col.bin"
        }
    ]
}
