{
    "asset" : {
        "generator" : "Khronos glTF Blender I/O v3.3.32",
        "version" : "2.0"
    },
    "scene" : 0,
    "scenes" : [
        {
            "name" : "Scene",
            "nodes" : [
                0
            ]
        }
    ],
    "nodes" : [
        {
            "mesh" : 0,
            "name" : "CornerFloor1Replacer1"
        }
    ],
    "materials" : [
        {
            "doubleSided" : true,
            "name" : "Ground",
            "normalTexture" : {
                "index" : 0,
                "scale" : 10
            },
            "pbrMetallicRoughness" : {
                "baseColorTexture" : {
                    "index" : 1
                },
                "metallicFactor" : 0,
                "roughnessFactor" : 0.6863636374473572
            }
        }
    ],
    "meshes" : [
        {
            "name" : "Scene.062",
            "primitives" : [
                {
                    "attributes" : {
                        "POSITION" : 0,
                        "NORMAL" : 1,
                        "TEXCOORD_0" : 2,
                        "TEXCOORD_1" : 3
                    },
                    "indices" : 4,
                    "material" : 0
                }
            ]
        }
    ],
    "textures" : [
        {
            "sampler" : 0,
            "source" : 0
        },
        {
            "sampler" : 0,
            "source" : 1
        }
    ],
    "images" : [
        {
            "mimeType" : "image/png",
            "name" : "NormalGroundGroup9",
            "uri" : "Textures/NormalGroundGroup9.png"
        },
        {
            "mimeType" : "image/png",
            "name" : "DiffuseGroundGroup9",
            "uri" : "Textures/DiffuseGroundGroup9.png"
        }
    ],
    "accessors" : [
        {
            "bufferView" : 0,
            "componentType" : 5126,
            "count" : 933,
            "max" : [
                2.8990225791931152,
                5.1113481521606445,
                2.500000476837158
            ],
            "min" : [
                -2.487002372741699,
                -0.3628964424133301,
                -2.5
            ],
            "type" : "VEC3"
        },
        {
            "bufferView" : 1,
            "componentType" : 5126,
            "count" : 933,
            "type" : "VEC3"
        },
        {
            "bufferView" : 2,
            "componentType" : 5126,
            "count" : 933,
            "type" : "VEC2"
        },
        {
            "bufferView" : 3,
            "componentType" : 5126,
            "count" : 933,
            "type" : "VEC2"
        },
        {
            "bufferView" : 4,
            "componentType" : 5123,
            "count" : 1047,
            "type" : "SCALAR"
        }
    ],
    "bufferViews" : [
        {
            "buffer" : 0,
            "byteLength" : 11196,
            "byteOffset" : 0,
            "target" : 34962
        },
        {
            "buffer" : 0,
            "byteLength" : 11196,
            "byteOffset" : 11196,
            "target" : 34962
        },
        {
            "buffer" : 0,
            "byteLength" : 7464,
            "byteOffset" : 22392,
            "target" : 34962
        },
        {
            "buffer" : 0,
            "byteLength" : 7464,
            "byteOffset" : 29856,
            "target" : 34962
        },
        {
            "buffer" : 0,
            "byteLength" : 2094,
            "byteOffset" : 37320,
            "target" : 34963
        }
    ],
    "samplers" : [
        {
            "magFilter" : 9729,
            "minFilter" : 9987
        }
    ],
    "buffers" : [
        {
            "byteLength" : 39416,
            "uri" : "CornerFloor1Replacer1.bin"
        }
    ]
}
