{
    "asset" : {
        "generator" : "Khronos glTF Blender I/O v3.3.32",
        "version" : "2.0"
    },
    "scene" : 0,
    "scenes" : [
        {
            "name" : "Scene",
            "nodes" : [
                0
            ]
        }
    ],
    "nodes" : [
        {
            "mesh" : 0,
            "name" : "CornerFloor1_Col"
        }
    ],
    "meshes" : [
        {
            "name" : "Scene.019",
            "primitives" : [
                {
                    "attributes" : {
                        "POSITION" : 0,
                        "NORMAL" : 1,
                        "TEXCOORD_0" : 2,
                        "TEXCOORD_1" : 3
                    },
                    "indices" : 4
                }
            ]
        }
    ],
    "accessors" : [
        {
            "bufferView" : 0,
            "componentType" : 5126,
            "count" : 1114,
            "max" : [
                2.503028631210327,
                5.218521595001221,
                2.6037158966064453
            ],
            "min" : [
                -2.7440285682678223,
                0.010564712807536125,
                -2.6722452640533447
            ],
            "type" : "VEC3"
        },
        {
            "bufferView" : 1,
            "componentType" : 5126,
            "count" : 1114,
            "type" : "VEC3"
        },
        {
            "bufferView" : 2,
            "componentType" : 5126,
            "count" : 1114,
            "type" : "VEC2"
        },
        {
            "bufferView" : 3,
            "componentType" : 5126,
            "count" : 1114,
            "type" : "VEC2"
        },
        {
            "bufferView" : 4,
            "componentType" : 5123,
            "count" : 1230,
            "type" : "SCALAR"
        }
    ],
    "bufferViews" : [
        {
            "buffer" : 0,
            "byteLength" : 13368,
            "byteOffset" : 0,
            "target" : 34962
        },
        {
            "buffer" : 0,
            "byteLength" : 13368,
            "byteOffset" : 13368,
            "target" : 34962
        },
        {
            "buffer" : 0,
            "byteLength" : 8912,
            "byteOffset" : 26736,
            "target" : 34962
        },
        {
            "buffer" : 0,
            "byteLength" : 8912,
            "byteOffset" : 35648,
            "target" : 34962
        },
        {
            "buffer" : 0,
            "byteLength" : 2460,
            "byteOffset" : 44560,
            "target" : 34963
        }
    ],
    "buffers" : [
        {
            "byteLength" : 47020,
            "uri" : "CornerFloor1_Col.bin"
        }
    ]
}
