{
    "asset" : {
        "generator" : "Khronos glTF Blender I/O v3.2.43",
        "version" : "2.0"
    },
    "scene" : 0,
    "scenes" : [
        {
            "name" : "Scene",
            "nodes" : [
                0
            ]
        }
    ],
    "nodes" : [
        {
            "mesh" : 0,
            "name" : "CornerWall1_Col"
        }
    ],
    "meshes" : [
        {
            "name" : "Scene.003",
            "primitives" : [
                {
                    "attributes" : {
                        "POSITION" : 0,
                        "NORMAL" : 1,
                        "TEXCOORD_0" : 2,
                        "TEXCOORD_1" : 3
                    },
                    "indices" : 4
                }
            ]
        }
    ],
    "accessors" : [
        {
            "bufferView" : 0,
            "componentType" : 5126,
            "count" : 287,
            "max" : [
                2.5,
                5,
                2.5000040531158447
            ],
            "min" : [
                -1.972050428390503,
                0,
                -1.8909188508987427
            ],
            "type" : "VEC3"
        },
        {
            "bufferView" : 1,
            "componentType" : 5126,
            "count" : 287,
            "type" : "VEC3"
        },
        {
            "bufferView" : 2,
            "componentType" : 5126,
            "count" : 287,
            "type" : "VEC2"
        },
        {
            "bufferView" : 3,
            "componentType" : 5126,
            "count" : 287,
            "type" : "VEC2"
        },
        {
            "bufferView" : 4,
            "componentType" : 5123,
            "count" : 330,
            "type" : "SCALAR"
        }
    ],
    "bufferViews" : [
        {
            "buffer" : 0,
            "byteLength" : 3444,
            "byteOffset" : 0
        },
        {
            "buffer" : 0,
            "byteLength" : 3444,
            "byteOffset" : 3444
        },
        {
            "buffer" : 0,
            "byteLength" : 2296,
            "byteOffset" : 6888
        },
        {
            "buffer" : 0,
            "byteLength" : 2296,
            "byteOffset" : 9184
        },
        {
            "buffer" : 0,
            "byteLength" : 660,
            "byteOffset" : 11480
        }
    ],
    "buffers" : [
        {
            "byteLength" : 12140,
            "uri" : "CornerWall1_Col.bin"
        }
    ]
}
