{
    "asset" : {
        "generator" : "Khronos glTF Blender I/O v3.2.43",
        "version" : "2.0"
    },
    "scene" : 0,
    "scenes" : [
        {
            "name" : "Scene",
            "nodes" : [
                0
            ]
        }
    ],
    "nodes" : [
        {
            "mesh" : 0,
            "name" : "CornerFloor1Replacer1"
        }
    ],
    "materials" : [
        {
            "doubleSided" : true,
            "name" : "PP_Standard_Material.015",
            "pbrMetallicRoughness" : {
                "baseColorTexture" : {
                    "index" : 0
                },
                "metallicFactor" : 0,
                "roughnessFactor" : 0.5527864098548889
            }
        },
        {
            "doubleSided" : true,
            "name" : "PP_Standard_Material.017",
            "pbrMetallicRoughness" : {
                "baseColorTexture" : {
                    "index" : 1
                },
                "metallicFactor" : 0,
                "roughnessFactor" : 0.5527864098548889
            }
        },
        {
            "doubleSided" : true,
            "name" : "PP_Standard_Material.018",
            "pbrMetallicRoughness" : {
                "baseColorTexture" : {
                    "index" : 2
                },
                "metallicFactor" : 0,
                "roughnessFactor" : 0.5527864098548889
            }
        }
    ],
    "meshes" : [
        {
            "name" : "Scene.008",
            "primitives" : [
                {
                    "attributes" : {
                        "POSITION" : 0,
                        "NORMAL" : 1,
                        "TEXCOORD_0" : 2,
                        "TEXCOORD_1" : 3
                    },
                    "indices" : 4,
                    "material" : 0
                },
                {
                    "attributes" : {
                        "POSITION" : 5,
                        "NORMAL" : 6,
                        "TEXCOORD_0" : 7,
                        "TEXCOORD_1" : 8
                    },
                    "indices" : 9,
                    "material" : 1
                },
                {
                    "attributes" : {
                        "POSITION" : 10,
                        "NORMAL" : 11,
                        "TEXCOORD_0" : 12,
                        "TEXCOORD_1" : 13
                    },
                    "indices" : 14,
                    "material" : 2
                }
            ]
        }
    ],
    "textures" : [
        {
            "sampler" : 0,
            "source" : 0
        },
        {
            "sampler" : 0,
            "source" : 0
        },
        {
            "sampler" : 0,
            "source" : 0
        }
    ],
    "images" : [
        {
            "mimeType" : "image/png",
            "name" : "PP_Color_Palette",
            "uri" : "Textures/PP_Color_Palette.png"
        }
    ],
    "accessors" : [
        {
            "bufferView" : 0,
            "componentType" : 5126,
            "count" : 209,
            "max" : [
                2.5000340938568115,
                5.000003814697266,
                2.500000238418579
            ],
            "min" : [
                -2.0489516258239746,
                0.48491621017456055,
                -1.4373819828033447
            ],
            "type" : "VEC3"
        },
        {
            "bufferView" : 1,
            "componentType" : 5126,
            "count" : 209,
            "type" : "VEC3"
        },
        {
            "bufferView" : 2,
            "componentType" : 5126,
            "count" : 209,
            "type" : "VEC2"
        },
        {
            "bufferView" : 3,
            "componentType" : 5126,
            "count" : 209,
            "type" : "VEC2"
        },
        {
            "bufferView" : 4,
            "componentType" : 5123,
            "count" : 369,
            "type" : "SCALAR"
        },
        {
            "bufferView" : 5,
            "componentType" : 5126,
            "count" : 75,
            "max" : [
                2.5,
                5,
                -0.7897481918334961
            ],
            "min" : [
                -0.12347375601530075,
                1.1338480710983276,
                -2.5
            ],
            "type" : "VEC3"
        },
        {
            "bufferView" : 6,
            "componentType" : 5126,
            "count" : 75,
            "type" : "VEC3"
        },
        {
            "bufferView" : 7,
            "componentType" : 5126,
            "count" : 75,
            "type" : "VEC2"
        },
        {
            "bufferView" : 8,
            "componentType" : 5126,
            "count" : 75,
            "type" : "VEC2"
        },
        {
            "bufferView" : 9,
            "componentType" : 5123,
            "count" : 111,
            "type" : "SCALAR"
        },
        {
            "bufferView" : 10,
            "componentType" : 5126,
            "count" : 56,
            "max" : [
                1.7600340843200684,
                4.4505414962768555,
                0.15958121418952942
            ],
            "min" : [
                -1.2149982452392578,
                1.1326992511749268,
                -2.5
            ],
            "type" : "VEC3"
        },
        {
            "bufferView" : 11,
            "componentType" : 5126,
            "count" : 56,
            "type" : "VEC3"
        },
        {
            "bufferView" : 12,
            "componentType" : 5126,
            "count" : 56,
            "type" : "VEC2"
        },
        {
            "bufferView" : 13,
            "componentType" : 5126,
            "count" : 56,
            "type" : "VEC2"
        },
        {
            "bufferView" : 14,
            "componentType" : 5123,
            "count" : 108,
            "type" : "SCALAR"
        }
    ],
    "bufferViews" : [
        {
            "buffer" : 0,
            "byteLength" : 2508,
            "byteOffset" : 0
        },
        {
            "buffer" : 0,
            "byteLength" : 2508,
            "byteOffset" : 2508
        },
        {
            "buffer" : 0,
            "byteLength" : 1672,
            "byteOffset" : 5016
        },
        {
            "buffer" : 0,
            "byteLength" : 1672,
            "byteOffset" : 6688
        },
        {
            "buffer" : 0,
            "byteLength" : 738,
            "byteOffset" : 8360
        },
        {
            "buffer" : 0,
            "byteLength" : 900,
            "byteOffset" : 9100
        },
        {
            "buffer" : 0,
            "byteLength" : 900,
            "byteOffset" : 10000
        },
        {
            "buffer" : 0,
            "byteLength" : 600,
            "byteOffset" : 10900
        },
        {
            "buffer" : 0,
            "byteLength" : 600,
            "byteOffset" : 11500
        },
        {
            "buffer" : 0,
            "byteLength" : 222,
            "byteOffset" : 12100
        },
        {
            "buffer" : 0,
            "byteLength" : 672,
            "byteOffset" : 12324
        },
        {
            "buffer" : 0,
            "byteLength" : 672,
            "byteOffset" : 12996
        },
        {
            "buffer" : 0,
            "byteLength" : 448,
            "byteOffset" : 13668
        },
        {
            "buffer" : 0,
            "byteLength" : 448,
            "byteOffset" : 14116
        },
        {
            "buffer" : 0,
            "byteLength" : 216,
            "byteOffset" : 14564
        }
    ],
    "samplers" : [
        {
            "magFilter" : 9729,
            "minFilter" : 9987
        }
    ],
    "buffers" : [
        {
            "byteLength" : 14780,
            "uri" : "CornerFloor1Replacer1.bin"
        }
    ]
}
