{
    "asset" : {
        "generator" : "Khronos glTF Blender I/O v3.3.32",
        "version" : "2.0"
    },
    "scene" : 0,
    "scenes" : [
        {
            "name" : "Scene",
            "nodes" : [
                0
            ]
        }
    ],
    "nodes" : [
        {
            "mesh" : 0,
            "name" : "CornerWall1_Col"
        }
    ],
    "meshes" : [
        {
            "name" : "Scene.004",
            "primitives" : [
                {
                    "attributes" : {
                        "POSITION" : 0,
                        "NORMAL" : 1,
                        "TEXCOORD_0" : 2,
                        "TEXCOORD_1" : 3
                    },
                    "indices" : 4
                }
            ]
        }
    ],
    "accessors" : [
        {
            "bufferView" : 0,
            "componentType" : 5126,
            "count" : 798,
            "max" : [
                2.5,
                5,
                2.5706613063812256
            ],
            "min" : [
                -3.077800750732422,
                -0.02475166693329811,
                -2.8979568481445312
            ],
            "type" : "VEC3"
        },
        {
            "bufferView" : 1,
            "componentType" : 5126,
            "count" : 798,
            "type" : "VEC3"
        },
        {
            "bufferView" : 2,
            "componentType" : 5126,
            "count" : 798,
            "type" : "VEC2"
        },
        {
            "bufferView" : 3,
            "componentType" : 5126,
            "count" : 798,
            "type" : "VEC2"
        },
        {
            "bufferView" : 4,
            "componentType" : 5123,
            "count" : 864,
            "type" : "SCALAR"
        }
    ],
    "bufferViews" : [
        {
            "buffer" : 0,
            "byteLength" : 9576,
            "byteOffset" : 0,
            "target" : 34962
        },
        {
            "buffer" : 0,
            "byteLength" : 9576,
            "byteOffset" : 9576,
            "target" : 34962
        },
        {
            "buffer" : 0,
            "byteLength" : 6384,
            "byteOffset" : 19152,
            "target" : 34962
        },
        {
            "buffer" : 0,
            "byteLength" : 6384,
            "byteOffset" : 25536,
            "target" : 34962
        },
        {
            "buffer" : 0,
            "byteLength" : 1728,
            "byteOffset" : 31920,
            "target" : 34963
        }
    ],
    "buffers" : [
        {
            "byteLength" : 33648,
            "uri" : "CornerWall1_Col.bin"
        }
    ]
}
