{
    "asset" : {
        "generator" : "Khronos glTF Blender I/O v3.2.43",
        "version" : "2.0"
    },
    "scene" : 0,
    "scenes" : [
        {
            "name" : "Scene",
            "nodes" : [
                0
            ]
        }
    ],
    "nodes" : [
        {
            "mesh" : 0,
            "name" : "CornerWall1Replacer1_Col"
        }
    ],
    "meshes" : [
        {
            "name" : "Scene.014",
            "primitives" : [
                {
                    "attributes" : {
                        "POSITION" : 0,
                        "NORMAL" : 1,
                        "TEXCOORD_0" : 2,
                        "TEXCOORD_1" : 3
                    },
                    "indices" : 4
                }
            ]
        }
    ],
    "accessors" : [
        {
            "bufferView" : 0,
            "componentType" : 5126,
            "count" : 530,
            "max" : [
                2.5,
                5,
                2.5000040531158447
            ],
            "min" : [
                -1.972050428390503,
                0,
                -2.5000007152557373
            ],
            "type" : "VEC3"
        },
        {
            "bufferView" : 1,
            "componentType" : 5126,
            "count" : 530,
            "type" : "VEC3"
        },
        {
            "bufferView" : 2,
            "componentType" : 5126,
            "count" : 530,
            "type" : "VEC2"
        },
        {
            "bufferView" : 3,
            "componentType" : 5126,
            "count" : 530,
            "type" : "VEC2"
        },
        {
            "bufferView" : 4,
            "componentType" : 5123,
            "count" : 753,
            "type" : "SCALAR"
        }
    ],
    "bufferViews" : [
        {
            "buffer" : 0,
            "byteLength" : 6360,
            "byteOffset" : 0
        },
        {
            "buffer" : 0,
            "byteLength" : 6360,
            "byteOffset" : 6360
        },
        {
            "buffer" : 0,
            "byteLength" : 4240,
            "byteOffset" : 12720
        },
        {
            "buffer" : 0,
            "byteLength" : 4240,
            "byteOffset" : 16960
        },
        {
            "buffer" : 0,
            "byteLength" : 1506,
            "byteOffset" : 21200
        }
    ],
    "buffers" : [
        {
            "byteLength" : 22708,
            "uri" : "CornerWall1Replacer1_Col.bin"
        }
    ]
}
