{
    "asset" : {
        "generator" : "Khronos glTF Blender I/O v3.2.43",
        "version" : "2.0"
    },
    "scene" : 0,
    "scenes" : [
        {
            "name" : "Scene",
            "nodes" : [
                0
            ]
        }
    ],
    "nodes" : [
        {
            "mesh" : 0,
            "name" : "CornerFloor1Replacer5"
        }
    ],
    "materials" : [
        {
            "doubleSided" : true,
            "name" : "PP_Standard_Material.059",
            "pbrMetallicRoughness" : {
                "baseColorTexture" : {
                    "index" : 0
                },
                "metallicFactor" : 0,
                "roughnessFactor" : 0.5527864098548889
            }
        },
        {
            "doubleSided" : true,
            "name" : "PP_Standard_Material.060",
            "pbrMetallicRoughness" : {
                "baseColorTexture" : {
                    "index" : 1
                },
                "metallicFactor" : 0,
                "roughnessFactor" : 0.5527864098548889
            }
        },
        {
            "doubleSided" : true,
            "name" : "PP_Standard_Material.061",
            "pbrMetallicRoughness" : {
                "baseColorTexture" : {
                    "index" : 2
                },
                "metallicFactor" : 0,
                "roughnessFactor" : 0.5527864098548889
            }
        },
        {
            "doubleSided" : true,
            "name" : "PP_Standard_Material.062",
            "pbrMetallicRoughness" : {
                "baseColorTexture" : {
                    "index" : 3
                },
                "metallicFactor" : 0,
                "roughnessFactor" : 0.5527864098548889
            }
        },
        {
            "doubleSided" : true,
            "name" : "PP_Standard_Material.064",
            "pbrMetallicRoughness" : {
                "baseColorTexture" : {
                    "index" : 4
                },
                "metallicFactor" : 0,
                "roughnessFactor" : 0.5527864098548889
            }
        },
        {
            "doubleSided" : true,
            "name" : "PP_Standard_Material.066",
            "pbrMetallicRoughness" : {
                "baseColorTexture" : {
                    "index" : 5
                },
                "metallicFactor" : 0,
                "roughnessFactor" : 0.5527864098548889
            }
        }
    ],
    "meshes" : [
        {
            "name" : "Scene.013",
            "primitives" : [
                {
                    "attributes" : {
                        "POSITION" : 0,
                        "NORMAL" : 1,
                        "TEXCOORD_0" : 2,
                        "TEXCOORD_1" : 3
                    },
                    "indices" : 4,
                    "material" : 0
                },
                {
                    "attributes" : {
                        "POSITION" : 5,
                        "NORMAL" : 6,
                        "TEXCOORD_0" : 7,
                        "TEXCOORD_1" : 8
                    },
                    "indices" : 9,
                    "material" : 1
                },
                {
                    "attributes" : {
                        "POSITION" : 10,
                        "NORMAL" : 11,
                        "TEXCOORD_0" : 12,
                        "TEXCOORD_1" : 13
                    },
                    "indices" : 14,
                    "material" : 2
                },
                {
                    "attributes" : {
                        "POSITION" : 15,
                        "NORMAL" : 16,
                        "TEXCOORD_0" : 17,
                        "TEXCOORD_1" : 18
                    },
                    "indices" : 19,
                    "material" : 3
                },
                {
                    "attributes" : {
                        "POSITION" : 20,
                        "NORMAL" : 21,
                        "TEXCOORD_0" : 22,
                        "TEXCOORD_1" : 23
                    },
                    "indices" : 24,
                    "material" : 4
                },
                {
                    "attributes" : {
                        "POSITION" : 25,
                        "NORMAL" : 26,
                        "TEXCOORD_0" : 27,
                        "TEXCOORD_1" : 28
                    },
                    "indices" : 29,
                    "material" : 5
                }
            ]
        }
    ],
    "textures" : [
        {
            "sampler" : 0,
            "source" : 0
        },
        {
            "sampler" : 0,
            "source" : 0
        },
        {
            "sampler" : 0,
            "source" : 0
        },
        {
            "sampler" : 0,
            "source" : 0
        },
        {
            "sampler" : 0,
            "source" : 0
        },
        {
            "sampler" : 0,
            "source" : 0
        }
    ],
    "images" : [
        {
            "mimeType" : "image/png",
            "name" : "PP_Color_Palette",
            "uri" : "Textures/PP_Color_Palette.png"
        }
    ],
    "accessors" : [
        {
            "bufferView" : 0,
            "componentType" : 5126,
            "count" : 172,
            "max" : [
                1.9313691854476929,
                1.4946995973587036,
                2.292141914367676
            ],
            "min" : [
                -1.9269436597824097,
                -1.2703360425803112e-06,
                -1.3564321994781494
            ],
            "type" : "VEC3"
        },
        {
            "bufferView" : 1,
            "componentType" : 5126,
            "count" : 172,
            "type" : "VEC3"
        },
        {
            "bufferView" : 2,
            "componentType" : 5126,
            "count" : 172,
            "type" : "VEC2"
        },
        {
            "bufferView" : 3,
            "componentType" : 5126,
            "count" : 172,
            "type" : "VEC2"
        },
        {
            "bufferView" : 4,
            "componentType" : 5123,
            "count" : 276,
            "type" : "SCALAR"
        },
        {
            "bufferView" : 5,
            "componentType" : 5126,
            "count" : 21,
            "max" : [
                1.8742620944976807,
                1.209937334060669,
                2.292141914367676
            ],
            "min" : [
                -0.5144611597061157,
                0.4911779761314392,
                -1.175790548324585
            ],
            "type" : "VEC3"
        },
        {
            "bufferView" : 6,
            "componentType" : 5126,
            "count" : 21,
            "type" : "VEC3"
        },
        {
            "bufferView" : 7,
            "componentType" : 5126,
            "count" : 21,
            "type" : "VEC2"
        },
        {
            "bufferView" : 8,
            "componentType" : 5126,
            "count" : 21,
            "type" : "VEC2"
        },
        {
            "bufferView" : 9,
            "componentType" : 5123,
            "count" : 33,
            "type" : "SCALAR"
        },
        {
            "bufferView" : 10,
            "componentType" : 5126,
            "count" : 40,
            "max" : [
                -0.9551411867141724,
                4.4862284660339355,
                2.4370055198669434
            ],
            "min" : [
                -2.499999761581421,
                1.154075264930725,
                -0.12347331643104553
            ],
            "type" : "VEC3"
        },
        {
            "bufferView" : 11,
            "componentType" : 5126,
            "count" : 40,
            "type" : "VEC3"
        },
        {
            "bufferView" : 12,
            "componentType" : 5126,
            "count" : 40,
            "type" : "VEC2"
        },
        {
            "bufferView" : 13,
            "componentType" : 5126,
            "count" : 40,
            "type" : "VEC2"
        },
        {
            "bufferView" : 14,
            "componentType" : 5123,
            "count" : 78,
            "type" : "SCALAR"
        },
        {
            "bufferView" : 15,
            "componentType" : 5126,
            "count" : 58,
            "max" : [
                0.9193106293678284,
                4.401871681213379,
                1.7600337266921997
            ],
            "min" : [
                -2.499999761581421,
                1.0885118246078491,
                -1.1619443893432617
            ],
            "type" : "VEC3"
        },
        {
            "bufferView" : 16,
            "componentType" : 5126,
            "count" : 58,
            "type" : "VEC3"
        },
        {
            "bufferView" : 17,
            "componentType" : 5126,
            "count" : 58,
            "type" : "VEC2"
        },
        {
            "bufferView" : 18,
            "componentType" : 5126,
            "count" : 58,
            "type" : "VEC2"
        },
        {
            "bufferView" : 19,
            "componentType" : 5123,
            "count" : 120,
            "type" : "SCALAR"
        },
        {
            "bufferView" : 20,
            "componentType" : 5126,
            "count" : 169,
            "max" : [
                2.5000340938568115,
                5.000003814697266,
                2.500000238418579
            ],
            "min" : [
                -2.0288422107696533,
                0.48491621017456055,
                -1.4373819828033447
            ],
            "type" : "VEC3"
        },
        {
            "bufferView" : 21,
            "componentType" : 5126,
            "count" : 169,
            "type" : "VEC3"
        },
        {
            "bufferView" : 22,
            "componentType" : 5126,
            "count" : 169,
            "type" : "VEC2"
        },
        {
            "bufferView" : 23,
            "componentType" : 5126,
            "count" : 169,
            "type" : "VEC2"
        },
        {
            "bufferView" : 24,
            "componentType" : 5123,
            "count" : 285,
            "type" : "SCALAR"
        },
        {
            "bufferView" : 25,
            "componentType" : 5126,
            "count" : 116,
            "max" : [
                2.5,
                5,
                -0.7597540616989136
            ],
            "min" : [
                0.12295306473970413,
                1.0558314323425293,
                -1.5876399278640747
            ],
            "type" : "VEC3"
        },
        {
            "bufferView" : 26,
            "componentType" : 5126,
            "count" : 116,
            "type" : "VEC3"
        },
        {
            "bufferView" : 27,
            "componentType" : 5126,
            "count" : 116,
            "type" : "VEC2"
        },
        {
            "bufferView" : 28,
            "componentType" : 5126,
            "count" : 116,
            "type" : "VEC2"
        },
        {
            "bufferView" : 29,
            "componentType" : 5123,
            "count" : 141,
            "type" : "SCALAR"
        }
    ],
    "bufferViews" : [
        {
            "buffer" : 0,
            "byteLength" : 2064,
            "byteOffset" : 0
        },
        {
            "buffer" : 0,
            "byteLength" : 2064,
            "byteOffset" : 2064
        },
        {
            "buffer" : 0,
            "byteLength" : 1376,
            "byteOffset" : 4128
        },
        {
            "buffer" : 0,
            "byteLength" : 1376,
            "byteOffset" : 5504
        },
        {
            "buffer" : 0,
            "byteLength" : 552,
            "byteOffset" : 6880
        },
        {
            "buffer" : 0,
            "byteLength" : 252,
            "byteOffset" : 7432
        },
        {
            "buffer" : 0,
            "byteLength" : 252,
            "byteOffset" : 7684
        },
        {
            "buffer" : 0,
            "byteLength" : 168,
            "byteOffset" : 7936
        },
        {
            "buffer" : 0,
            "byteLength" : 168,
            "byteOffset" : 8104
        },
        {
            "buffer" : 0,
            "byteLength" : 66,
            "byteOffset" : 8272
        },
        {
            "buffer" : 0,
            "byteLength" : 480,
            "byteOffset" : 8340
        },
        {
            "buffer" : 0,
            "byteLength" : 480,
            "byteOffset" : 8820
        },
        {
            "buffer" : 0,
            "byteLength" : 320,
            "byteOffset" : 9300
        },
        {
            "buffer" : 0,
            "byteLength" : 320,
            "byteOffset" : 9620
        },
        {
            "buffer" : 0,
            "byteLength" : 156,
            "byteOffset" : 9940
        },
        {
            "buffer" : 0,
            "byteLength" : 696,
            "byteOffset" : 10096
        },
        {
            "buffer" : 0,
            "byteLength" : 696,
            "byteOffset" : 10792
        },
        {
            "buffer" : 0,
            "byteLength" : 464,
            "byteOffset" : 11488
        },
        {
            "buffer" : 0,
            "byteLength" : 464,
            "byteOffset" : 11952
        },
        {
            "buffer" : 0,
            "byteLength" : 240,
            "byteOffset" : 12416
        },
        {
            "buffer" : 0,
            "byteLength" : 2028,
            "byteOffset" : 12656
        },
        {
            "buffer" : 0,
            "byteLength" : 2028,
            "byteOffset" : 14684
        },
        {
            "buffer" : 0,
            "byteLength" : 1352,
            "byteOffset" : 16712
        },
        {
            "buffer" : 0,
            "byteLength" : 1352,
            "byteOffset" : 18064
        },
        {
            "buffer" : 0,
            "byteLength" : 570,
            "byteOffset" : 19416
        },
        {
            "buffer" : 0,
            "byteLength" : 1392,
            "byteOffset" : 19988
        },
        {
            "buffer" : 0,
            "byteLength" : 1392,
            "byteOffset" : 21380
        },
        {
            "buffer" : 0,
            "byteLength" : 928,
            "byteOffset" : 22772
        },
        {
            "buffer" : 0,
            "byteLength" : 928,
            "byteOffset" : 23700
        },
        {
            "buffer" : 0,
            "byteLength" : 282,
            "byteOffset" : 24628
        }
    ],
    "samplers" : [
        {
            "magFilter" : 9729,
            "minFilter" : 9987
        }
    ],
    "buffers" : [
        {
            "byteLength" : 24912,
            "uri" : "CornerFloor1Replacer5.bin"
        }
    ]
}
