{
    "asset" : {
        "generator" : "Khronos glTF Blender I/O v3.2.43",
        "version" : "2.0"
    },
    "scene" : 0,
    "scenes" : [
        {
            "name" : "Scene",
            "nodes" : [
                0
            ]
        }
    ],
    "nodes" : [
        {
            "mesh" : 0,
            "name" : "CornerWall1Replacer3"
        }
    ],
    "materials" : [
        {
            "doubleSided" : true,
            "name" : "PP_Standard_Material.067",
            "pbrMetallicRoughness" : {
                "baseColorTexture" : {
                    "index" : 0
                },
                "metallicFactor" : 0,
                "roughnessFactor" : 0.5527864098548889
            }
        },
        {
            "doubleSided" : true,
            "name" : "PP_Standard_Material.068",
            "pbrMetallicRoughness" : {
                "baseColorTexture" : {
                    "index" : 1
                },
                "metallicFactor" : 0,
                "roughnessFactor" : 0.5527864098548889
            }
        }
    ],
    "meshes" : [
        {
            "name" : "Scene.023",
            "primitives" : [
                {
                    "attributes" : {
                        "POSITION" : 0,
                        "NORMAL" : 1,
                        "TEXCOORD_0" : 2,
                        "TEXCOORD_1" : 3
                    },
                    "indices" : 4,
                    "material" : 0
                },
                {
                    "attributes" : {
                        "POSITION" : 5,
                        "NORMAL" : 6,
                        "TEXCOORD_0" : 7,
                        "TEXCOORD_1" : 8
                    },
                    "indices" : 9,
                    "material" : 1
                }
            ]
        }
    ],
    "textures" : [
        {
            "sampler" : 0,
            "source" : 0
        },
        {
            "sampler" : 0,
            "source" : 0
        }
    ],
    "images" : [
        {
            "mimeType" : "image/png",
            "name" : "PP_Color_Palette",
            "uri" : "Textures/PP_Color_Palette.png"
        }
    ],
    "accessors" : [
        {
            "bufferView" : 0,
            "componentType" : 5126,
            "count" : 926,
            "max" : [
                2.5,
                5,
                2.5000040531158447
            ],
            "min" : [
                -2.5000016689300537,
                0,
                -2.5000007152557373
            ],
            "type" : "VEC3"
        },
        {
            "bufferView" : 1,
            "componentType" : 5126,
            "count" : 926,
            "type" : "VEC3"
        },
        {
            "bufferView" : 2,
            "componentType" : 5126,
            "count" : 926,
            "type" : "VEC2"
        },
        {
            "bufferView" : 3,
            "componentType" : 5126,
            "count" : 926,
            "type" : "VEC2"
        },
        {
            "bufferView" : 4,
            "componentType" : 5123,
            "count" : 945,
            "type" : "SCALAR"
        },
        {
            "bufferView" : 5,
            "componentType" : 5126,
            "count" : 144,
            "max" : [
                2.5,
                5,
                2.5
            ],
            "min" : [
                -2.0257272720336914,
                0,
                -2.00970721244812
            ],
            "type" : "VEC3"
        },
        {
            "bufferView" : 6,
            "componentType" : 5126,
            "count" : 144,
            "type" : "VEC3"
        },
        {
            "bufferView" : 7,
            "componentType" : 5126,
            "count" : 144,
            "type" : "VEC2"
        },
        {
            "bufferView" : 8,
            "componentType" : 5126,
            "count" : 144,
            "type" : "VEC2"
        },
        {
            "bufferView" : 9,
            "componentType" : 5123,
            "count" : 144,
            "type" : "SCALAR"
        }
    ],
    "bufferViews" : [
        {
            "buffer" : 0,
            "byteLength" : 11112,
            "byteOffset" : 0
        },
        {
            "buffer" : 0,
            "byteLength" : 11112,
            "byteOffset" : 11112
        },
        {
            "buffer" : 0,
            "byteLength" : 7408,
            "byteOffset" : 22224
        },
        {
            "buffer" : 0,
            "byteLength" : 7408,
            "byteOffset" : 29632
        },
        {
            "buffer" : 0,
            "byteLength" : 1890,
            "byteOffset" : 37040
        },
        {
            "buffer" : 0,
            "byteLength" : 1728,
            "byteOffset" : 38932
        },
        {
            "buffer" : 0,
            "byteLength" : 1728,
            "byteOffset" : 40660
        },
        {
            "buffer" : 0,
            "byteLength" : 1152,
            "byteOffset" : 42388
        },
        {
            "buffer" : 0,
            "byteLength" : 1152,
            "byteOffset" : 43540
        },
        {
            "buffer" : 0,
            "byteLength" : 288,
            "byteOffset" : 44692
        }
    ],
    "samplers" : [
        {
            "magFilter" : 9729,
            "minFilter" : 9987
        }
    ],
    "buffers" : [
        {
            "byteLength" : 44980,
            "uri" : "CornerWall1Replacer3.bin"
        }
    ]
}
