{
    "asset" : {
        "generator" : "Khronos glTF Blender I/O v3.3.32",
        "version" : "2.0"
    },
    "scene" : 0,
    "scenes" : [
        {
            "name" : "Scene",
            "nodes" : [
                0
            ]
        }
    ],
    "nodes" : [
        {
            "mesh" : 0,
            "name" : "CornerRoof1"
        }
    ],
    "materials" : [
        {
            "doubleSided" : true,
            "name" : "Ground",
            "normalTexture" : {
                "index" : 0,
                "scale" : 10
            },
            "pbrMetallicRoughness" : {
                "baseColorTexture" : {
                    "index" : 1
                },
                "metallicFactor" : 0
            }
        }
    ],
    "meshes" : [
        {
            "name" : "Scene.104",
            "primitives" : [
                {
                    "attributes" : {
                        "POSITION" : 0,
                        "NORMAL" : 1,
                        "TEXCOORD_0" : 2,
                        "TEXCOORD_1" : 3
                    },
                    "indices" : 4,
                    "material" : 0
                }
            ]
        }
    ],
    "textures" : [
        {
            "sampler" : 0,
            "source" : 0
        },
        {
            "sampler" : 0,
            "source" : 1
        }
    ],
    "images" : [
        {
            "mimeType" : "image/png",
            "name" : "NormalGroundGroup1",
            "uri" : "Textures/NormalGroundGroup1.png"
        },
        {
            "mimeType" : "image/png",
            "name" : "DiffuseGroundGroup1",
            "uri" : "Textures/DiffuseGroundGroup1.png"
        }
    ],
    "accessors" : [
        {
            "bufferView" : 0,
            "componentType" : 5126,
            "count" : 888,
            "max" : [
                2.5421385765075684,
                5.220639228820801,
                2.653320550918579
            ],
            "min" : [
                -2.656342029571533,
                -0.06317782402038574,
                -2.8028244972229004
            ],
            "type" : "VEC3"
        },
        {
            "bufferView" : 1,
            "componentType" : 5126,
            "count" : 888,
            "type" : "VEC3"
        },
        {
            "bufferView" : 2,
            "componentType" : 5126,
            "count" : 888,
            "type" : "VEC2"
        },
        {
            "bufferView" : 3,
            "componentType" : 5126,
            "count" : 888,
            "type" : "VEC2"
        },
        {
            "bufferView" : 4,
            "componentType" : 5123,
            "count" : 888,
            "type" : "SCALAR"
        }
    ],
    "bufferViews" : [
        {
            "buffer" : 0,
            "byteLength" : 10656,
            "byteOffset" : 0,
            "target" : 34962
        },
        {
            "buffer" : 0,
            "byteLength" : 10656,
            "byteOffset" : 10656,
            "target" : 34962
        },
        {
            "buffer" : 0,
            "byteLength" : 7104,
            "byteOffset" : 21312,
            "target" : 34962
        },
        {
            "buffer" : 0,
            "byteLength" : 7104,
            "byteOffset" : 28416,
            "target" : 34962
        },
        {
            "buffer" : 0,
            "byteLength" : 1776,
            "byteOffset" : 35520,
            "target" : 34963
        }
    ],
    "samplers" : [
        {
            "magFilter" : 9729,
            "minFilter" : 9987
        }
    ],
    "buffers" : [
        {
            "byteLength" : 37296,
            "uri" : "CornerRoof1.bin"
        }
    ]
}
