{
    "asset" : {
        "generator" : "Khronos glTF Blender I/O v3.2.43",
        "version" : "2.0"
    },
    "scene" : 0,
    "scenes" : [
        {
            "name" : "Scene",
            "nodes" : [
                0
            ]
        }
    ],
    "nodes" : [
        {
            "mesh" : 0,
            "name" : "Door1_Col"
        }
    ],
    "meshes" : [
        {
            "name" : "Scene.004",
            "primitives" : [
                {
                    "attributes" : {
                        "POSITION" : 0,
                        "NORMAL" : 1,
                        "TEXCOORD_0" : 2,
                        "TEXCOORD_1" : 3
                    },
                    "indices" : 4
                }
            ]
        }
    ],
    "accessors" : [
        {
            "bufferView" : 0,
            "componentType" : 5126,
            "count" : 458,
            "max" : [
                2.500000476837158,
                4.999999523162842,
                2.5
            ],
            "min" : [
                -2.5,
                0.30606335401535034,
                -2.5000007152557373
            ],
            "type" : "VEC3"
        },
        {
            "bufferView" : 1,
            "componentType" : 5126,
            "count" : 458,
            "type" : "VEC3"
        },
        {
            "bufferView" : 2,
            "componentType" : 5126,
            "count" : 458,
            "type" : "VEC2"
        },
        {
            "bufferView" : 3,
            "componentType" : 5126,
            "count" : 458,
            "type" : "VEC2"
        },
        {
            "bufferView" : 4,
            "componentType" : 5123,
            "count" : 522,
            "type" : "SCALAR"
        }
    ],
    "bufferViews" : [
        {
            "buffer" : 0,
            "byteLength" : 5496,
            "byteOffset" : 0
        },
        {
            "buffer" : 0,
            "byteLength" : 5496,
            "byteOffset" : 5496
        },
        {
            "buffer" : 0,
            "byteLength" : 3664,
            "byteOffset" : 10992
        },
        {
            "buffer" : 0,
            "byteLength" : 3664,
            "byteOffset" : 14656
        },
        {
            "buffer" : 0,
            "byteLength" : 1044,
            "byteOffset" : 18320
        }
    ],
    "buffers" : [
        {
            "byteLength" : 19364,
            "uri" : "Door1_Col.bin"
        }
    ]
}
