{
    "asset" : {
        "generator" : "Khronos glTF Blender I/O v3.2.43",
        "version" : "2.0"
    },
    "scene" : 0,
    "scenes" : [
        {
            "name" : "Scene",
            "nodes" : [
                0
            ]
        }
    ],
    "nodes" : [
        {
            "mesh" : 0,
            "name" : "DownUpConnector"
        }
    ],
    "materials" : [
        {
            "doubleSided" : true,
            "name" : "PP_Standard_Material.140",
            "pbrMetallicRoughness" : {
                "baseColorTexture" : {
                    "index" : 0
                },
                "metallicFactor" : 0,
                "roughnessFactor" : 0.5527864098548889
            }
        },
        {
            "doubleSided" : true,
            "name" : "PP_Standard_Material.141",
            "pbrMetallicRoughness" : {
                "baseColorTexture" : {
                    "index" : 1
                },
                "metallicFactor" : 0,
                "roughnessFactor" : 0.5527864098548889
            }
        }
    ],
    "meshes" : [
        {
            "name" : "Scene.051",
            "primitives" : [
                {
                    "attributes" : {
                        "POSITION" : 0,
                        "NORMAL" : 1,
                        "TEXCOORD_0" : 2,
                        "TEXCOORD_1" : 3
                    },
                    "indices" : 4,
                    "material" : 0
                },
                {
                    "attributes" : {
                        "POSITION" : 5,
                        "NORMAL" : 6,
                        "TEXCOORD_0" : 7,
                        "TEXCOORD_1" : 8
                    },
                    "indices" : 9,
                    "material" : 1
                }
            ]
        }
    ],
    "textures" : [
        {
            "sampler" : 0,
            "source" : 0
        },
        {
            "sampler" : 0,
            "source" : 0
        }
    ],
    "images" : [
        {
            "mimeType" : "image/png",
            "name" : "PP_Color_Palette",
            "uri" : "Textures/PP_Color_Palette.png"
        }
    ],
    "accessors" : [
        {
            "bufferView" : 0,
            "componentType" : 5126,
            "count" : 253,
            "max" : [
                2.537904977798462,
                1.1572850942611694,
                3.1018285751342773
            ],
            "min" : [
                -2.805222272872925,
                -3.2362063393520657e-06,
                -2.4778645038604736
            ],
            "type" : "VEC3"
        },
        {
            "bufferView" : 1,
            "componentType" : 5126,
            "count" : 253,
            "type" : "VEC3"
        },
        {
            "bufferView" : 2,
            "componentType" : 5126,
            "count" : 253,
            "type" : "VEC2"
        },
        {
            "bufferView" : 3,
            "componentType" : 5126,
            "count" : 253,
            "type" : "VEC2"
        },
        {
            "bufferView" : 4,
            "componentType" : 5123,
            "count" : 255,
            "type" : "SCALAR"
        },
        {
            "bufferView" : 5,
            "componentType" : 5126,
            "count" : 576,
            "max" : [
                2.426278829574585,
                5.000000476837158,
                2.969972610473633
            ],
            "min" : [
                -2.6921539306640625,
                -2.2452236407843884e-06,
                -2.112661600112915
            ],
            "type" : "VEC3"
        },
        {
            "bufferView" : 6,
            "componentType" : 5126,
            "count" : 576,
            "type" : "VEC3"
        },
        {
            "bufferView" : 7,
            "componentType" : 5126,
            "count" : 576,
            "type" : "VEC2"
        },
        {
            "bufferView" : 8,
            "componentType" : 5126,
            "count" : 576,
            "type" : "VEC2"
        },
        {
            "bufferView" : 9,
            "componentType" : 5123,
            "count" : 603,
            "type" : "SCALAR"
        }
    ],
    "bufferViews" : [
        {
            "buffer" : 0,
            "byteLength" : 3036,
            "byteOffset" : 0
        },
        {
            "buffer" : 0,
            "byteLength" : 3036,
            "byteOffset" : 3036
        },
        {
            "buffer" : 0,
            "byteLength" : 2024,
            "byteOffset" : 6072
        },
        {
            "buffer" : 0,
            "byteLength" : 2024,
            "byteOffset" : 8096
        },
        {
            "buffer" : 0,
            "byteLength" : 510,
            "byteOffset" : 10120
        },
        {
            "buffer" : 0,
            "byteLength" : 6912,
            "byteOffset" : 10632
        },
        {
            "buffer" : 0,
            "byteLength" : 6912,
            "byteOffset" : 17544
        },
        {
            "buffer" : 0,
            "byteLength" : 4608,
            "byteOffset" : 24456
        },
        {
            "buffer" : 0,
            "byteLength" : 4608,
            "byteOffset" : 29064
        },
        {
            "buffer" : 0,
            "byteLength" : 1206,
            "byteOffset" : 33672
        }
    ],
    "samplers" : [
        {
            "magFilter" : 9729,
            "minFilter" : 9987
        }
    ],
    "buffers" : [
        {
            "byteLength" : 34880,
            "uri" : "DownUpConnector.bin"
        }
    ]
}
