{
    "asset" : {
        "generator" : "Khronos glTF Blender I/O v3.3.32",
        "version" : "2.0"
    },
    "scene" : 0,
    "scenes" : [
        {
            "name" : "Scene",
            "nodes" : [
                0
            ]
        }
    ],
    "nodes" : [
        {
            "mesh" : 0,
            "name" : "DownUpConnector_Col"
        }
    ],
    "meshes" : [
        {
            "name" : "Scene.142",
            "primitives" : [
                {
                    "attributes" : {
                        "POSITION" : 0,
                        "NORMAL" : 1,
                        "TEXCOORD_0" : 2,
                        "TEXCOORD_1" : 3
                    },
                    "indices" : 4
                }
            ]
        }
    ],
    "accessors" : [
        {
            "bufferView" : 0,
            "componentType" : 5126,
            "count" : 949,
            "max" : [
                2.537905216217041,
                5.0652756690979,
                3.1018285751342773
            ],
            "min" : [
                -2.805222272872925,
                -0.1810539960861206,
                -2.5346615314483643
            ],
            "type" : "VEC3"
        },
        {
            "bufferView" : 1,
            "componentType" : 5126,
            "count" : 949,
            "type" : "VEC3"
        },
        {
            "bufferView" : 2,
            "componentType" : 5126,
            "count" : 949,
            "type" : "VEC2"
        },
        {
            "bufferView" : 3,
            "componentType" : 5126,
            "count" : 949,
            "type" : "VEC2"
        },
        {
            "bufferView" : 4,
            "componentType" : 5123,
            "count" : 966,
            "type" : "SCALAR"
        }
    ],
    "bufferViews" : [
        {
            "buffer" : 0,
            "byteLength" : 11388,
            "byteOffset" : 0,
            "target" : 34962
        },
        {
            "buffer" : 0,
            "byteLength" : 11388,
            "byteOffset" : 11388,
            "target" : 34962
        },
        {
            "buffer" : 0,
            "byteLength" : 7592,
            "byteOffset" : 22776,
            "target" : 34962
        },
        {
            "buffer" : 0,
            "byteLength" : 7592,
            "byteOffset" : 30368,
            "target" : 34962
        },
        {
            "buffer" : 0,
            "byteLength" : 1932,
            "byteOffset" : 37960,
            "target" : 34963
        }
    ],
    "buffers" : [
        {
            "byteLength" : 39892,
            "uri" : "DownUpConnector_Col.bin"
        }
    ]
}
