{
    "asset" : {
        "generator" : "Khronos glTF Blender I/O v3.2.43",
        "version" : "2.0"
    },
    "scene" : 0,
    "scenes" : [
        {
            "name" : "Scene",
            "nodes" : [
                0
            ]
        }
    ],
    "nodes" : [
        {
            "mesh" : 0,
            "name" : "EmergencyLight"
        }
    ],
    "materials" : [
        {
            "doubleSided" : true,
            "emissiveFactor" : [
                10,
                10,
                10
            ],
            "emissiveTexture" : {
                "index" : 0
            },
            "name" : "EmergencyLight",
            "pbrMetallicRoughness" : {
                "baseColorTexture" : {
                    "index" : 1
                },
                "metallicFactor" : 0,
                "roughnessFactor" : 0.4000000059604645
            }
        }
    ],
    "meshes" : [
        {
            "name" : "Cylinder.001",
            "primitives" : [
                {
                    "attributes" : {
                        "POSITION" : 0,
                        "NORMAL" : 1,
                        "TEXCOORD_0" : 2
                    },
                    "indices" : 3,
                    "material" : 0
                }
            ]
        }
    ],
    "textures" : [
        {
            "sampler" : 0,
            "source" : 0
        },
        {
            "sampler" : 0,
            "source" : 1
        }
    ],
    "images" : [
        {
            "mimeType" : "image/png",
            "name" : "LampEmission",
            "uri" : "Textures/LampEmission.png"
        },
        {
            "mimeType" : "image/png",
            "name" : "LampDiffuse",
            "uri" : "Textures/LampDiffuse.png"
        }
    ],
    "accessors" : [
        {
            "bufferView" : 0,
            "componentType" : 5126,
            "count" : 1128,
            "max" : [
                0.15000000596046448,
                0.21798370778560638,
                0.15000000596046448
            ],
            "min" : [
                -0.15000000596046448,
                -0.003988230600953102,
                -0.15000000596046448
            ],
            "type" : "VEC3"
        },
        {
            "bufferView" : 1,
            "componentType" : 5126,
            "count" : 1128,
            "type" : "VEC3"
        },
        {
            "bufferView" : 2,
            "componentType" : 5126,
            "count" : 1128,
            "type" : "VEC2"
        },
        {
            "bufferView" : 3,
            "componentType" : 5123,
            "count" : 1140,
            "type" : "SCALAR"
        }
    ],
    "bufferViews" : [
        {
            "buffer" : 0,
            "byteLength" : 13536,
            "byteOffset" : 0
        },
        {
            "buffer" : 0,
            "byteLength" : 13536,
            "byteOffset" : 13536
        },
        {
            "buffer" : 0,
            "byteLength" : 9024,
            "byteOffset" : 27072
        },
        {
            "buffer" : 0,
            "byteLength" : 2280,
            "byteOffset" : 36096
        }
    ],
    "samplers" : [
        {
            "magFilter" : 9729,
            "minFilter" : 9987
        }
    ],
    "buffers" : [
        {
            "byteLength" : 38376,
            "uri" : "EmergencyLight.bin"
        }
    ]
}
