{
    "asset" : {
        "generator" : "Khronos glTF Blender I/O v3.2.43",
        "version" : "2.0"
    },
    "scene" : 0,
    "scenes" : [
        {
            "name" : "Scene",
            "nodes" : [
                0
            ]
        }
    ],
    "nodes" : [
        {
            "mesh" : 0,
            "name" : "Exit1_Col"
        }
    ],
    "meshes" : [
        {
            "name" : "Scene.020",
            "primitives" : [
                {
                    "attributes" : {
                        "POSITION" : 0,
                        "NORMAL" : 1,
                        "TEXCOORD_0" : 2,
                        "TEXCOORD_1" : 3
                    },
                    "indices" : 4
                }
            ]
        }
    ],
    "accessors" : [
        {
            "bufferView" : 0,
            "componentType" : 5126,
            "count" : 285,
            "max" : [
                2.5,
                5,
                2.500000238418579
            ],
            "min" : [
                -0.4694071412086487,
                1.2558050155639648,
                -2.5
            ],
            "type" : "VEC3"
        },
        {
            "bufferView" : 1,
            "componentType" : 5126,
            "count" : 285,
            "type" : "VEC3"
        },
        {
            "bufferView" : 2,
            "componentType" : 5126,
            "count" : 285,
            "type" : "VEC2"
        },
        {
            "bufferView" : 3,
            "componentType" : 5126,
            "count" : 285,
            "type" : "VEC2"
        },
        {
            "bufferView" : 4,
            "componentType" : 5123,
            "count" : 372,
            "type" : "SCALAR"
        }
    ],
    "bufferViews" : [
        {
            "buffer" : 0,
            "byteLength" : 3420,
            "byteOffset" : 0
        },
        {
            "buffer" : 0,
            "byteLength" : 3420,
            "byteOffset" : 3420
        },
        {
            "buffer" : 0,
            "byteLength" : 2280,
            "byteOffset" : 6840
        },
        {
            "buffer" : 0,
            "byteLength" : 2280,
            "byteOffset" : 9120
        },
        {
            "buffer" : 0,
            "byteLength" : 744,
            "byteOffset" : 11400
        }
    ],
    "buffers" : [
        {
            "byteLength" : 12144,
            "uri" : "Exit1_Col.bin"
        }
    ]
}
