{
    "asset" : {
        "generator" : "Khronos glTF Blender I/O v3.3.32",
        "version" : "2.0"
    },
    "scene" : 0,
    "scenes" : [
        {
            "name" : "Scene",
            "nodes" : [
                0
            ]
        }
    ],
    "nodes" : [
        {
            "mesh" : 0,
            "name" : "FloorCornerCliff1_Col"
        }
    ],
    "meshes" : [
        {
            "name" : "Scene.011",
            "primitives" : [
                {
                    "attributes" : {
                        "POSITION" : 0,
                        "NORMAL" : 1,
                        "TEXCOORD_0" : 2,
                        "TEXCOORD_1" : 3
                    },
                    "indices" : 4
                }
            ]
        }
    ],
    "accessors" : [
        {
            "bufferView" : 0,
            "componentType" : 5126,
            "count" : 929,
            "max" : [
                2.5,
                0.75075364112854,
                2.5
            ],
            "min" : [
                -2.5,
                -0.6233499646186829,
                -2.5
            ],
            "type" : "VEC3"
        },
        {
            "bufferView" : 1,
            "componentType" : 5126,
            "count" : 929,
            "type" : "VEC3"
        },
        {
            "bufferView" : 2,
            "componentType" : 5126,
            "count" : 929,
            "type" : "VEC2"
        },
        {
            "bufferView" : 3,
            "componentType" : 5126,
            "count" : 929,
            "type" : "VEC2"
        },
        {
            "bufferView" : 4,
            "componentType" : 5123,
            "count" : 954,
            "type" : "SCALAR"
        }
    ],
    "bufferViews" : [
        {
            "buffer" : 0,
            "byteLength" : 11148,
            "byteOffset" : 0,
            "target" : 34962
        },
        {
            "buffer" : 0,
            "byteLength" : 11148,
            "byteOffset" : 11148,
            "target" : 34962
        },
        {
            "buffer" : 0,
            "byteLength" : 7432,
            "byteOffset" : 22296,
            "target" : 34962
        },
        {
            "buffer" : 0,
            "byteLength" : 7432,
            "byteOffset" : 29728,
            "target" : 34962
        },
        {
            "buffer" : 0,
            "byteLength" : 1908,
            "byteOffset" : 37160,
            "target" : 34963
        }
    ],
    "buffers" : [
        {
            "byteLength" : 39068,
            "uri" : "FloorCornerCliff1_Col.bin"
        }
    ]
}
