{
    "asset" : {
        "generator" : "Khronos glTF Blender I/O v3.3.32",
        "version" : "2.0"
    },
    "scene" : 0,
    "scenes" : [
        {
            "name" : "Scene",
            "nodes" : [
                0
            ]
        }
    ],
    "nodes" : [
        {
            "mesh" : 0,
            "name" : "FloorBridge1_Col"
        }
    ],
    "meshes" : [
        {
            "name" : "Scene.132",
            "primitives" : [
                {
                    "attributes" : {
                        "POSITION" : 0,
                        "NORMAL" : 1,
                        "TEXCOORD_0" : 2,
                        "TEXCOORD_1" : 3
                    },
                    "indices" : 4
                }
            ]
        }
    ],
    "accessors" : [
        {
            "bufferView" : 0,
            "componentType" : 5126,
            "count" : 1277,
            "max" : [
                2.5,
                2.1774113178253174,
                2.5
            ],
            "min" : [
                -2.5432136058807373,
                -0.44237056374549866,
                -2.5
            ],
            "type" : "VEC3"
        },
        {
            "bufferView" : 1,
            "componentType" : 5126,
            "count" : 1277,
            "type" : "VEC3"
        },
        {
            "bufferView" : 2,
            "componentType" : 5126,
            "count" : 1277,
            "type" : "VEC2"
        },
        {
            "bufferView" : 3,
            "componentType" : 5126,
            "count" : 1277,
            "type" : "VEC2"
        },
        {
            "bufferView" : 4,
            "componentType" : 5123,
            "count" : 1878,
            "type" : "SCALAR"
        }
    ],
    "bufferViews" : [
        {
            "buffer" : 0,
            "byteLength" : 15324,
            "byteOffset" : 0,
            "target" : 34962
        },
        {
            "buffer" : 0,
            "byteLength" : 15324,
            "byteOffset" : 15324,
            "target" : 34962
        },
        {
            "buffer" : 0,
            "byteLength" : 10216,
            "byteOffset" : 30648,
            "target" : 34962
        },
        {
            "buffer" : 0,
            "byteLength" : 10216,
            "byteOffset" : 40864,
            "target" : 34962
        },
        {
            "buffer" : 0,
            "byteLength" : 3756,
            "byteOffset" : 51080,
            "target" : 34963
        }
    ],
    "buffers" : [
        {
            "byteLength" : 54836,
            "uri" : "FloorBridge1_Col.bin"
        }
    ]
}
