{
    "asset" : {
        "generator" : "Khronos glTF Blender I/O v3.2.43",
        "version" : "2.0"
    },
    "scene" : 0,
    "scenes" : [
        {
            "name" : "Scene",
            "nodes" : [
                0
            ]
        }
    ],
    "nodes" : [
        {
            "mesh" : 0,
            "name" : "FloorCornerCliff1_Col"
        }
    ],
    "meshes" : [
        {
            "name" : "Scene.017",
            "primitives" : [
                {
                    "attributes" : {
                        "POSITION" : 0,
                        "NORMAL" : 1,
                        "TEXCOORD_0" : 2,
                        "TEXCOORD_1" : 3
                    },
                    "indices" : 4
                }
            ]
        }
    ],
    "accessors" : [
        {
            "bufferView" : 0,
            "componentType" : 5126,
            "count" : 161,
            "max" : [
                2.5,
                0.7507538199424744,
                2.5
            ],
            "min" : [
                -2.5,
                1.7118543382821372e-07,
                -2.5
            ],
            "type" : "VEC3"
        },
        {
            "bufferView" : 1,
            "componentType" : 5126,
            "count" : 161,
            "type" : "VEC3"
        },
        {
            "bufferView" : 2,
            "componentType" : 5126,
            "count" : 161,
            "type" : "VEC2"
        },
        {
            "bufferView" : 3,
            "componentType" : 5126,
            "count" : 161,
            "type" : "VEC2"
        },
        {
            "bufferView" : 4,
            "componentType" : 5123,
            "count" : 174,
            "type" : "SCALAR"
        }
    ],
    "bufferViews" : [
        {
            "buffer" : 0,
            "byteLength" : 1932,
            "byteOffset" : 0
        },
        {
            "buffer" : 0,
            "byteLength" : 1932,
            "byteOffset" : 1932
        },
        {
            "buffer" : 0,
            "byteLength" : 1288,
            "byteOffset" : 3864
        },
        {
            "buffer" : 0,
            "byteLength" : 1288,
            "byteOffset" : 5152
        },
        {
            "buffer" : 0,
            "byteLength" : 348,
            "byteOffset" : 6440
        }
    ],
    "buffers" : [
        {
            "byteLength" : 6788,
            "uri" : "FloorCornerCliff1_Col.bin"
        }
    ]
}
