{
    "asset" : {
        "generator" : "Khronos glTF Blender I/O v3.2.43",
        "version" : "2.0"
    },
    "scene" : 0,
    "scenes" : [
        {
            "name" : "Scene",
            "nodes" : [
                0
            ]
        }
    ],
    "nodes" : [
        {
            "mesh" : 0,
            "name" : "FloorBridge2_Col"
        }
    ],
    "meshes" : [
        {
            "name" : "Scene.008",
            "primitives" : [
                {
                    "attributes" : {
                        "POSITION" : 0,
                        "NORMAL" : 1,
                        "TEXCOORD_0" : 2,
                        "TEXCOORD_1" : 3
                    },
                    "indices" : 4
                }
            ]
        }
    ],
    "accessors" : [
        {
            "bufferView" : 0,
            "componentType" : 5126,
            "count" : 137,
            "max" : [
                2.5665321350097656,
                2.1754343509674072,
                2.5
            ],
            "min" : [
                -2.5665321350097656,
                0,
                -2.5
            ],
            "type" : "VEC3"
        },
        {
            "bufferView" : 1,
            "componentType" : 5126,
            "count" : 137,
            "type" : "VEC3"
        },
        {
            "bufferView" : 2,
            "componentType" : 5126,
            "count" : 137,
            "type" : "VEC2"
        },
        {
            "bufferView" : 3,
            "componentType" : 5126,
            "count" : 137,
            "type" : "VEC2"
        },
        {
            "bufferView" : 4,
            "componentType" : 5123,
            "count" : 228,
            "type" : "SCALAR"
        }
    ],
    "bufferViews" : [
        {
            "buffer" : 0,
            "byteLength" : 1644,
            "byteOffset" : 0
        },
        {
            "buffer" : 0,
            "byteLength" : 1644,
            "byteOffset" : 1644
        },
        {
            "buffer" : 0,
            "byteLength" : 1096,
            "byteOffset" : 3288
        },
        {
            "buffer" : 0,
            "byteLength" : 1096,
            "byteOffset" : 4384
        },
        {
            "buffer" : 0,
            "byteLength" : 456,
            "byteOffset" : 5480
        }
    ],
    "buffers" : [
        {
            "byteLength" : 5936,
            "uri" : "FloorBridge2_Col.bin"
        }
    ]
}
