{
    "asset" : {
        "generator" : "Khronos glTF Blender I/O v3.2.43",
        "version" : "2.0"
    },
    "scene" : 0,
    "scenes" : [
        {
            "name" : "Scene",
            "nodes" : [
                0
            ]
        }
    ],
    "nodes" : [
        {
            "mesh" : 0,
            "name" : "InnerCornerHanging_Col"
        }
    ],
    "meshes" : [
        {
            "name" : "Scene.028",
            "primitives" : [
                {
                    "attributes" : {
                        "POSITION" : 0,
                        "NORMAL" : 1,
                        "TEXCOORD_0" : 2,
                        "TEXCOORD_1" : 3
                    },
                    "indices" : 4
                }
            ]
        }
    ],
    "accessors" : [
        {
            "bufferView" : 0,
            "componentType" : 5126,
            "count" : 23,
            "max" : [
                2.5000059604644775,
                5,
                -1.4282265901565552
            ],
            "min" : [
                1.529823660850525,
                4.600000381469727,
                -2.499999761581421
            ],
            "type" : "VEC3"
        },
        {
            "bufferView" : 1,
            "componentType" : 5126,
            "count" : 23,
            "type" : "VEC3"
        },
        {
            "bufferView" : 2,
            "componentType" : 5126,
            "count" : 23,
            "type" : "VEC2"
        },
        {
            "bufferView" : 3,
            "componentType" : 5126,
            "count" : 23,
            "type" : "VEC2"
        },
        {
            "bufferView" : 4,
            "componentType" : 5123,
            "count" : 36,
            "type" : "SCALAR"
        }
    ],
    "bufferViews" : [
        {
            "buffer" : 0,
            "byteLength" : 276,
            "byteOffset" : 0
        },
        {
            "buffer" : 0,
            "byteLength" : 276,
            "byteOffset" : 276
        },
        {
            "buffer" : 0,
            "byteLength" : 184,
            "byteOffset" : 552
        },
        {
            "buffer" : 0,
            "byteLength" : 184,
            "byteOffset" : 736
        },
        {
            "buffer" : 0,
            "byteLength" : 72,
            "byteOffset" : 920
        }
    ],
    "buffers" : [
        {
            "byteLength" : 992,
            "uri" : "InnerCornerHanging_Col.bin"
        }
    ]
}
