{
    "asset" : {
        "generator" : "Khronos glTF Blender I/O v3.2.43",
        "version" : "2.0"
    },
    "scene" : 0,
    "scenes" : [
        {
            "name" : "Scene",
            "nodes" : [
                0
            ]
        }
    ],
    "nodes" : [
        {
            "mesh" : 0,
            "name" : "InnerCornerHangingDouble_Col"
        }
    ],
    "meshes" : [
        {
            "name" : "Scene.021",
            "primitives" : [
                {
                    "attributes" : {
                        "POSITION" : 0,
                        "NORMAL" : 1,
                        "TEXCOORD_0" : 2,
                        "TEXCOORD_1" : 3
                    },
                    "indices" : 4
                }
            ]
        }
    ],
    "accessors" : [
        {
            "bufferView" : 0,
            "componentType" : 5126,
            "count" : 44,
            "max" : [
                2.5000059604644775,
                5,
                2.5000014305114746
            ],
            "min" : [
                -2.5000057220458984,
                4.59999942779541,
                -2.499999761581421
            ],
            "type" : "VEC3"
        },
        {
            "bufferView" : 1,
            "componentType" : 5126,
            "count" : 44,
            "type" : "VEC3"
        },
        {
            "bufferView" : 2,
            "componentType" : 5126,
            "count" : 44,
            "type" : "VEC2"
        },
        {
            "bufferView" : 3,
            "componentType" : 5126,
            "count" : 44,
            "type" : "VEC2"
        },
        {
            "bufferView" : 4,
            "componentType" : 5123,
            "count" : 72,
            "type" : "SCALAR"
        }
    ],
    "bufferViews" : [
        {
            "buffer" : 0,
            "byteLength" : 528,
            "byteOffset" : 0
        },
        {
            "buffer" : 0,
            "byteLength" : 528,
            "byteOffset" : 528
        },
        {
            "buffer" : 0,
            "byteLength" : 352,
            "byteOffset" : 1056
        },
        {
            "buffer" : 0,
            "byteLength" : 352,
            "byteOffset" : 1408
        },
        {
            "buffer" : 0,
            "byteLength" : 144,
            "byteOffset" : 1760
        }
    ],
    "buffers" : [
        {
            "byteLength" : 1904,
            "uri" : "InnerCornerHangingDouble_Col.bin"
        }
    ]
}
