{
    "asset" : {
        "generator" : "Khronos glTF Blender I/O v3.3.32",
        "version" : "2.0"
    },
    "scene" : 0,
    "scenes" : [
        {
            "name" : "Scene",
            "nodes" : [
                0
            ]
        }
    ],
    "nodes" : [
        {
            "mesh" : 0,
            "name" : "LDownConnector_Col"
        }
    ],
    "meshes" : [
        {
            "name" : "Scene.092",
            "primitives" : [
                {
                    "attributes" : {
                        "POSITION" : 0,
                        "NORMAL" : 1,
                        "TEXCOORD_0" : 2,
                        "TEXCOORD_1" : 3
                    },
                    "indices" : 4
                }
            ]
        }
    ],
    "accessors" : [
        {
            "bufferView" : 0,
            "componentType" : 5126,
            "count" : 1302,
            "max" : [
                2.5230154991149902,
                4.839446067810059,
                3.12333083152771
            ],
            "min" : [
                -2.651088237762451,
                -3.245040261390386e-06,
                -2.4970364570617676
            ],
            "type" : "VEC3"
        },
        {
            "bufferView" : 1,
            "componentType" : 5126,
            "count" : 1302,
            "type" : "VEC3"
        },
        {
            "bufferView" : 2,
            "componentType" : 5126,
            "count" : 1302,
            "type" : "VEC2"
        },
        {
            "bufferView" : 3,
            "componentType" : 5126,
            "count" : 1302,
            "type" : "VEC2"
        },
        {
            "bufferView" : 4,
            "componentType" : 5123,
            "count" : 1314,
            "type" : "SCALAR"
        }
    ],
    "bufferViews" : [
        {
            "buffer" : 0,
            "byteLength" : 15624,
            "byteOffset" : 0,
            "target" : 34962
        },
        {
            "buffer" : 0,
            "byteLength" : 15624,
            "byteOffset" : 15624,
            "target" : 34962
        },
        {
            "buffer" : 0,
            "byteLength" : 10416,
            "byteOffset" : 31248,
            "target" : 34962
        },
        {
            "buffer" : 0,
            "byteLength" : 10416,
            "byteOffset" : 41664,
            "target" : 34962
        },
        {
            "buffer" : 0,
            "byteLength" : 2628,
            "byteOffset" : 52080,
            "target" : 34963
        }
    ],
    "buffers" : [
        {
            "byteLength" : 54708,
            "uri" : "LDownConnector_Col.bin"
        }
    ]
}
