{
    "asset" : {
        "generator" : "Khronos glTF Blender I/O v3.3.32",
        "version" : "2.0"
    },
    "scene" : 0,
    "scenes" : [
        {
            "name" : "Scene",
            "nodes" : [
                0
            ]
        }
    ],
    "nodes" : [
        {
            "mesh" : 0,
            "name" : "LDownConnector"
        }
    ],
    "materials" : [
        {
            "doubleSided" : true,
            "name" : "Ground",
            "normalTexture" : {
                "index" : 0,
                "scale" : 10
            },
            "pbrMetallicRoughness" : {
                "baseColorTexture" : {
                    "index" : 1
                },
                "metallicFactor" : 0
            }
        }
    ],
    "meshes" : [
        {
            "name" : "Scene.049",
            "primitives" : [
                {
                    "attributes" : {
                        "POSITION" : 0,
                        "NORMAL" : 1,
                        "TEXCOORD_0" : 2,
                        "TEXCOORD_1" : 3
                    },
                    "indices" : 4,
                    "material" : 0
                }
            ]
        }
    ],
    "textures" : [
        {
            "sampler" : 0,
            "source" : 0
        },
        {
            "sampler" : 0,
            "source" : 1
        }
    ],
    "images" : [
        {
            "mimeType" : "image/png",
            "name" : "NormalGroundGroup5",
            "uri" : "Textures/NormalGroundGroup5.png"
        },
        {
            "mimeType" : "image/png",
            "name" : "DiffuseGroundGroup5",
            "uri" : "Textures/DiffuseGroundGroup5.png"
        }
    ],
    "accessors" : [
        {
            "bufferView" : 0,
            "componentType" : 5126,
            "count" : 1302,
            "max" : [
                2.5470223426818848,
                4.839446067810059,
                3.12333083152771
            ],
            "min" : [
                -2.651088237762451,
                -3.245040261390386e-06,
                -2.0585837364196777
            ],
            "type" : "VEC3"
        },
        {
            "bufferView" : 1,
            "componentType" : 5126,
            "count" : 1302,
            "type" : "VEC3"
        },
        {
            "bufferView" : 2,
            "componentType" : 5126,
            "count" : 1302,
            "type" : "VEC2"
        },
        {
            "bufferView" : 3,
            "componentType" : 5126,
            "count" : 1302,
            "type" : "VEC2"
        },
        {
            "bufferView" : 4,
            "componentType" : 5123,
            "count" : 1314,
            "type" : "SCALAR"
        }
    ],
    "bufferViews" : [
        {
            "buffer" : 0,
            "byteLength" : 15624,
            "byteOffset" : 0,
            "target" : 34962
        },
        {
            "buffer" : 0,
            "byteLength" : 15624,
            "byteOffset" : 15624,
            "target" : 34962
        },
        {
            "buffer" : 0,
            "byteLength" : 10416,
            "byteOffset" : 31248,
            "target" : 34962
        },
        {
            "buffer" : 0,
            "byteLength" : 10416,
            "byteOffset" : 41664,
            "target" : 34962
        },
        {
            "buffer" : 0,
            "byteLength" : 2628,
            "byteOffset" : 52080,
            "target" : 34963
        }
    ],
    "samplers" : [
        {
            "magFilter" : 9729,
            "minFilter" : 9987
        }
    ],
    "buffers" : [
        {
            "byteLength" : 54708,
            "uri" : "LDownConnector.bin"
        }
    ]
}
