{
    "asset" : {
        "generator" : "Khronos glTF Blender I/O v3.2.43",
        "version" : "2.0"
    },
    "scene" : 0,
    "scenes" : [
        {
            "name" : "Scene",
            "nodes" : [
                0
            ]
        }
    ],
    "nodes" : [
        {
            "mesh" : 0,
            "name" : "LDownConnector_Col"
        }
    ],
    "meshes" : [
        {
            "name" : "Scene.021",
            "primitives" : [
                {
                    "attributes" : {
                        "POSITION" : 0,
                        "NORMAL" : 1,
                        "TEXCOORD_0" : 2,
                        "TEXCOORD_1" : 3
                    },
                    "indices" : 4
                }
            ]
        }
    ],
    "accessors" : [
        {
            "bufferView" : 0,
            "componentType" : 5126,
            "count" : 453,
            "max" : [
                1.9405993223190308,
                4.313694953918457,
                2.500000476837158
            ],
            "min" : [
                -2.500000238418579,
                -2.537086629672558e-06,
                -1.6240483522415161
            ],
            "type" : "VEC3"
        },
        {
            "bufferView" : 1,
            "componentType" : 5126,
            "count" : 453,
            "type" : "VEC3"
        },
        {
            "bufferView" : 2,
            "componentType" : 5126,
            "count" : 453,
            "type" : "VEC2"
        },
        {
            "bufferView" : 3,
            "componentType" : 5126,
            "count" : 453,
            "type" : "VEC2"
        },
        {
            "bufferView" : 4,
            "componentType" : 5123,
            "count" : 897,
            "type" : "SCALAR"
        }
    ],
    "bufferViews" : [
        {
            "buffer" : 0,
            "byteLength" : 5436,
            "byteOffset" : 0
        },
        {
            "buffer" : 0,
            "byteLength" : 5436,
            "byteOffset" : 5436
        },
        {
            "buffer" : 0,
            "byteLength" : 3624,
            "byteOffset" : 10872
        },
        {
            "buffer" : 0,
            "byteLength" : 3624,
            "byteOffset" : 14496
        },
        {
            "buffer" : 0,
            "byteLength" : 1794,
            "byteOffset" : 18120
        }
    ],
    "buffers" : [
        {
            "byteLength" : 19916,
            "uri" : "LDownConnector_Col.bin"
        }
    ]
}
