{
    "asset" : {
        "generator" : "Khronos glTF Blender I/O v3.3.32",
        "version" : "2.0"
    },
    "scene" : 0,
    "scenes" : [
        {
            "name" : "Scene",
            "nodes" : [
                0
            ]
        }
    ],
    "nodes" : [
        {
            "mesh" : 0,
            "name" : "LHorizontalConnector_Col"
        }
    ],
    "meshes" : [
        {
            "name" : "Scene.095",
            "primitives" : [
                {
                    "attributes" : {
                        "POSITION" : 0,
                        "NORMAL" : 1,
                        "TEXCOORD_0" : 2,
                        "TEXCOORD_1" : 3
                    },
                    "indices" : 4
                }
            ]
        }
    ],
    "accessors" : [
        {
            "bufferView" : 0,
            "componentType" : 5126,
            "count" : 1084,
            "max" : [
                2.5584030151367188,
                4.898806095123291,
                2.5000007152557373
            ],
            "min" : [
                -2.500000476837158,
                0.11908546090126038,
                -2.4699761867523193
            ],
            "type" : "VEC3"
        },
        {
            "bufferView" : 1,
            "componentType" : 5126,
            "count" : 1084,
            "type" : "VEC3"
        },
        {
            "bufferView" : 2,
            "componentType" : 5126,
            "count" : 1084,
            "type" : "VEC2"
        },
        {
            "bufferView" : 3,
            "componentType" : 5126,
            "count" : 1084,
            "type" : "VEC2"
        },
        {
            "bufferView" : 4,
            "componentType" : 5123,
            "count" : 1104,
            "type" : "SCALAR"
        }
    ],
    "bufferViews" : [
        {
            "buffer" : 0,
            "byteLength" : 13008,
            "byteOffset" : 0,
            "target" : 34962
        },
        {
            "buffer" : 0,
            "byteLength" : 13008,
            "byteOffset" : 13008,
            "target" : 34962
        },
        {
            "buffer" : 0,
            "byteLength" : 8672,
            "byteOffset" : 26016,
            "target" : 34962
        },
        {
            "buffer" : 0,
            "byteLength" : 8672,
            "byteOffset" : 34688,
            "target" : 34962
        },
        {
            "buffer" : 0,
            "byteLength" : 2208,
            "byteOffset" : 43360,
            "target" : 34963
        }
    ],
    "buffers" : [
        {
            "byteLength" : 45568,
            "uri" : "LHorizontalConnector_Col.bin"
        }
    ]
}
