{
    "asset" : {
        "generator" : "Khronos glTF Blender I/O v3.2.43",
        "version" : "2.0"
    },
    "scene" : 0,
    "scenes" : [
        {
            "name" : "Scene",
            "nodes" : [
                0
            ]
        }
    ],
    "nodes" : [
        {
            "mesh" : 0,
            "name" : "LVertical1Connector"
        }
    ],
    "materials" : [
        {
            "doubleSided" : true,
            "name" : "PP_Standard_Material.160",
            "pbrMetallicRoughness" : {
                "baseColorTexture" : {
                    "index" : 0
                },
                "metallicFactor" : 0,
                "roughnessFactor" : 0.5527864098548889
            }
        },
        {
            "doubleSided" : true,
            "name" : "PP_Standard_Material.161",
            "pbrMetallicRoughness" : {
                "baseColorTexture" : {
                    "index" : 1
                },
                "metallicFactor" : 0,
                "roughnessFactor" : 0.5527864098548889
            }
        },
        {
            "doubleSided" : true,
            "name" : "PP_Standard_Material.162",
            "pbrMetallicRoughness" : {
                "baseColorTexture" : {
                    "index" : 2
                },
                "metallicFactor" : 0,
                "roughnessFactor" : 0.5527864098548889
            }
        }
    ],
    "meshes" : [
        {
            "name" : "Scene.066",
            "primitives" : [
                {
                    "attributes" : {
                        "POSITION" : 0,
                        "NORMAL" : 1,
                        "TEXCOORD_0" : 2,
                        "TEXCOORD_1" : 3
                    },
                    "indices" : 4,
                    "material" : 0
                },
                {
                    "attributes" : {
                        "POSITION" : 5,
                        "NORMAL" : 6,
                        "TEXCOORD_0" : 7,
                        "TEXCOORD_1" : 8
                    },
                    "indices" : 9,
                    "material" : 1
                },
                {
                    "attributes" : {
                        "POSITION" : 10,
                        "NORMAL" : 11,
                        "TEXCOORD_0" : 12,
                        "TEXCOORD_1" : 13
                    },
                    "indices" : 14,
                    "material" : 2
                }
            ]
        }
    ],
    "textures" : [
        {
            "sampler" : 0,
            "source" : 0
        },
        {
            "sampler" : 0,
            "source" : 0
        },
        {
            "sampler" : 0,
            "source" : 0
        }
    ],
    "images" : [
        {
            "mimeType" : "image/png",
            "name" : "PP_Color_Palette",
            "uri" : "Textures/PP_Color_Palette.png"
        }
    ],
    "accessors" : [
        {
            "bufferView" : 0,
            "componentType" : 5126,
            "count" : 553,
            "max" : [
                2.4130330085754395,
                4.680469989776611,
                -1.2394169569015503
            ],
            "min" : [
                -2.1173229217529297,
                0.4032561779022217,
                -2.5959136486053467
            ],
            "type" : "VEC3"
        },
        {
            "bufferView" : 1,
            "componentType" : 5126,
            "count" : 553,
            "type" : "VEC3"
        },
        {
            "bufferView" : 2,
            "componentType" : 5126,
            "count" : 553,
            "type" : "VEC2"
        },
        {
            "bufferView" : 3,
            "componentType" : 5126,
            "count" : 553,
            "type" : "VEC2"
        },
        {
            "bufferView" : 4,
            "componentType" : 5123,
            "count" : 555,
            "type" : "SCALAR"
        },
        {
            "bufferView" : 5,
            "componentType" : 5126,
            "count" : 1156,
            "max" : [
                2.00107479095459,
                5.202034950256348,
                2.489644765853882
            ],
            "min" : [
                -2.1173229217529297,
                0.4032561779022217,
                -2.5946528911590576
            ],
            "type" : "VEC3"
        },
        {
            "bufferView" : 6,
            "componentType" : 5126,
            "count" : 1156,
            "type" : "VEC3"
        },
        {
            "bufferView" : 7,
            "componentType" : 5126,
            "count" : 1156,
            "type" : "VEC2"
        },
        {
            "bufferView" : 8,
            "componentType" : 5126,
            "count" : 1156,
            "type" : "VEC2"
        },
        {
            "bufferView" : 9,
            "componentType" : 5123,
            "count" : 1158,
            "type" : "SCALAR"
        },
        {
            "bufferView" : 10,
            "componentType" : 5126,
            "count" : 1826,
            "max" : [
                2.4279561042785645,
                5.202034950256348,
                3.1055092811584473
            ],
            "min" : [
                -2.7928712368011475,
                0.6685540676116943,
                -2.389798641204834
            ],
            "type" : "VEC3"
        },
        {
            "bufferView" : 11,
            "componentType" : 5126,
            "count" : 1826,
            "type" : "VEC3"
        },
        {
            "bufferView" : 12,
            "componentType" : 5126,
            "count" : 1826,
            "type" : "VEC2"
        },
        {
            "bufferView" : 13,
            "componentType" : 5126,
            "count" : 1826,
            "type" : "VEC2"
        },
        {
            "bufferView" : 14,
            "componentType" : 5123,
            "count" : 1836,
            "type" : "SCALAR"
        }
    ],
    "bufferViews" : [
        {
            "buffer" : 0,
            "byteLength" : 6636,
            "byteOffset" : 0
        },
        {
            "buffer" : 0,
            "byteLength" : 6636,
            "byteOffset" : 6636
        },
        {
            "buffer" : 0,
            "byteLength" : 4424,
            "byteOffset" : 13272
        },
        {
            "buffer" : 0,
            "byteLength" : 4424,
            "byteOffset" : 17696
        },
        {
            "buffer" : 0,
            "byteLength" : 1110,
            "byteOffset" : 22120
        },
        {
            "buffer" : 0,
            "byteLength" : 13872,
            "byteOffset" : 23232
        },
        {
            "buffer" : 0,
            "byteLength" : 13872,
            "byteOffset" : 37104
        },
        {
            "buffer" : 0,
            "byteLength" : 9248,
            "byteOffset" : 50976
        },
        {
            "buffer" : 0,
            "byteLength" : 9248,
            "byteOffset" : 60224
        },
        {
            "buffer" : 0,
            "byteLength" : 2316,
            "byteOffset" : 69472
        },
        {
            "buffer" : 0,
            "byteLength" : 21912,
            "byteOffset" : 71788
        },
        {
            "buffer" : 0,
            "byteLength" : 21912,
            "byteOffset" : 93700
        },
        {
            "buffer" : 0,
            "byteLength" : 14608,
            "byteOffset" : 115612
        },
        {
            "buffer" : 0,
            "byteLength" : 14608,
            "byteOffset" : 130220
        },
        {
            "buffer" : 0,
            "byteLength" : 3672,
            "byteOffset" : 144828
        }
    ],
    "samplers" : [
        {
            "magFilter" : 9729,
            "minFilter" : 9987
        }
    ],
    "buffers" : [
        {
            "byteLength" : 148500,
            "uri" : "LVertical1Connector.bin"
        }
    ]
}
