{
    "asset" : {
        "generator" : "Khronos glTF Blender I/O v3.3.32",
        "version" : "2.0"
    },
    "scene" : 0,
    "scenes" : [
        {
            "name" : "Scene",
            "nodes" : [
                0
            ]
        }
    ],
    "nodes" : [
        {
            "mesh" : 0,
            "name" : "LVertical2Connector_Col"
        }
    ],
    "meshes" : [
        {
            "name" : "Scene.096",
            "primitives" : [
                {
                    "attributes" : {
                        "POSITION" : 0,
                        "NORMAL" : 1,
                        "TEXCOORD_0" : 2,
                        "TEXCOORD_1" : 3
                    },
                    "indices" : 4
                }
            ]
        }
    ],
    "accessors" : [
        {
            "bufferView" : 0,
            "componentType" : 5126,
            "count" : 3099,
            "max" : [
                2.5099270343780518,
                4.874916076660156,
                2.8606014251708984
            ],
            "min" : [
                -2.509394884109497,
                -0.14008034765720367,
                -2.4248175621032715
            ],
            "type" : "VEC3"
        },
        {
            "bufferView" : 1,
            "componentType" : 5126,
            "count" : 3099,
            "type" : "VEC3"
        },
        {
            "bufferView" : 2,
            "componentType" : 5126,
            "count" : 3099,
            "type" : "VEC2"
        },
        {
            "bufferView" : 3,
            "componentType" : 5126,
            "count" : 3099,
            "type" : "VEC2"
        },
        {
            "bufferView" : 4,
            "componentType" : 5123,
            "count" : 3099,
            "type" : "SCALAR"
        }
    ],
    "bufferViews" : [
        {
            "buffer" : 0,
            "byteLength" : 37188,
            "byteOffset" : 0,
            "target" : 34962
        },
        {
            "buffer" : 0,
            "byteLength" : 37188,
            "byteOffset" : 37188,
            "target" : 34962
        },
        {
            "buffer" : 0,
            "byteLength" : 24792,
            "byteOffset" : 74376,
            "target" : 34962
        },
        {
            "buffer" : 0,
            "byteLength" : 24792,
            "byteOffset" : 99168,
            "target" : 34962
        },
        {
            "buffer" : 0,
            "byteLength" : 6198,
            "byteOffset" : 123960,
            "target" : 34963
        }
    ],
    "buffers" : [
        {
            "byteLength" : 130160,
            "uri" : "LVertical2Connector_Col.bin"
        }
    ]
}
