{
    "asset" : {
        "generator" : "Khronos glTF Blender I/O v3.2.43",
        "version" : "2.0"
    },
    "scene" : 0,
    "scenes" : [
        {
            "name" : "Scene",
            "nodes" : [
                0
            ]
        }
    ],
    "nodes" : [
        {
            "mesh" : 0,
            "name" : "LVertical1Connector_Col"
        }
    ],
    "meshes" : [
        {
            "name" : "Scene.007",
            "primitives" : [
                {
                    "attributes" : {
                        "POSITION" : 0,
                        "NORMAL" : 1,
                        "TEXCOORD_0" : 2,
                        "TEXCOORD_1" : 3
                    },
                    "indices" : 4
                }
            ]
        }
    ],
    "accessors" : [
        {
            "bufferView" : 0,
            "componentType" : 5126,
            "count" : 3551,
            "max" : [
                2.4279561042785645,
                5.202034950256348,
                3.1055092811584473
            ],
            "min" : [
                -2.7928712368011475,
                0.4032561779022217,
                -2.5959136486053467
            ],
            "type" : "VEC3"
        },
        {
            "bufferView" : 1,
            "componentType" : 5126,
            "count" : 3551,
            "type" : "VEC3"
        },
        {
            "bufferView" : 2,
            "componentType" : 5126,
            "count" : 3551,
            "type" : "VEC2"
        },
        {
            "bufferView" : 3,
            "componentType" : 5126,
            "count" : 3551,
            "type" : "VEC2"
        },
        {
            "bufferView" : 4,
            "componentType" : 5123,
            "count" : 3567,
            "type" : "SCALAR"
        }
    ],
    "bufferViews" : [
        {
            "buffer" : 0,
            "byteLength" : 42612,
            "byteOffset" : 0
        },
        {
            "buffer" : 0,
            "byteLength" : 42612,
            "byteOffset" : 42612
        },
        {
            "buffer" : 0,
            "byteLength" : 28408,
            "byteOffset" : 85224
        },
        {
            "buffer" : 0,
            "byteLength" : 28408,
            "byteOffset" : 113632
        },
        {
            "buffer" : 0,
            "byteLength" : 7134,
            "byteOffset" : 142040
        }
    ],
    "buffers" : [
        {
            "byteLength" : 149176,
            "uri" : "LVertical1Connector_Col.bin"
        }
    ]
}
