{
    "asset" : {
        "generator" : "Khronos glTF Blender I/O v3.2.43",
        "version" : "2.0"
    },
    "scene" : 0,
    "scenes" : [
        {
            "name" : "Scene",
            "nodes" : [
                0
            ]
        }
    ],
    "nodes" : [
        {
            "mesh" : 0,
            "name" : "LVertical2Connector"
        }
    ],
    "materials" : [
        {
            "doubleSided" : true,
            "name" : "PP_Standard_Material.145",
            "pbrMetallicRoughness" : {
                "baseColorTexture" : {
                    "index" : 0
                },
                "metallicFactor" : 0,
                "roughnessFactor" : 0.5527864098548889
            }
        },
        {
            "doubleSided" : true,
            "name" : "PP_Standard_Material.146",
            "pbrMetallicRoughness" : {
                "baseColorTexture" : {
                    "index" : 1
                },
                "metallicFactor" : 0,
                "roughnessFactor" : 0.5527864098548889
            }
        },
        {
            "doubleSided" : true,
            "name" : "PP_Standard_Material.147",
            "pbrMetallicRoughness" : {
                "baseColorTexture" : {
                    "index" : 2
                },
                "metallicFactor" : 0,
                "roughnessFactor" : 0.5527864098548889
            }
        },
        {
            "doubleSided" : true,
            "name" : "PP_Standard_Material.148",
            "pbrMetallicRoughness" : {
                "baseColorTexture" : {
                    "index" : 3
                },
                "metallicFactor" : 0,
                "roughnessFactor" : 0.5527864098548889
            }
        }
    ],
    "meshes" : [
        {
            "name" : "Scene.055",
            "primitives" : [
                {
                    "attributes" : {
                        "POSITION" : 0,
                        "NORMAL" : 1,
                        "TEXCOORD_0" : 2,
                        "TEXCOORD_1" : 3
                    },
                    "indices" : 4,
                    "material" : 0
                },
                {
                    "attributes" : {
                        "POSITION" : 5,
                        "NORMAL" : 6,
                        "TEXCOORD_0" : 7,
                        "TEXCOORD_1" : 8
                    },
                    "indices" : 9,
                    "material" : 1
                },
                {
                    "attributes" : {
                        "POSITION" : 10,
                        "NORMAL" : 11,
                        "TEXCOORD_0" : 12,
                        "TEXCOORD_1" : 13
                    },
                    "indices" : 14,
                    "material" : 2
                },
                {
                    "attributes" : {
                        "POSITION" : 15,
                        "NORMAL" : 16,
                        "TEXCOORD_0" : 17,
                        "TEXCOORD_1" : 18
                    },
                    "indices" : 19,
                    "material" : 3
                }
            ]
        }
    ],
    "textures" : [
        {
            "sampler" : 0,
            "source" : 0
        },
        {
            "sampler" : 0,
            "source" : 0
        },
        {
            "sampler" : 0,
            "source" : 0
        },
        {
            "sampler" : 0,
            "source" : 0
        }
    ],
    "images" : [
        {
            "mimeType" : "image/png",
            "name" : "PP_Color_Palette",
            "uri" : "Textures/PP_Color_Palette.png"
        }
    ],
    "accessors" : [
        {
            "bufferView" : 0,
            "componentType" : 5126,
            "count" : 18,
            "max" : [
                -1.3685088157653809,
                3.097083806991577,
                1.1153579950332642
            ],
            "min" : [
                -1.834228754043579,
                2.2970917224884033,
                0.39670154452323914
            ],
            "type" : "VEC3"
        },
        {
            "bufferView" : 1,
            "componentType" : 5126,
            "count" : 18,
            "type" : "VEC3"
        },
        {
            "bufferView" : 2,
            "componentType" : 5126,
            "count" : 18,
            "type" : "VEC2"
        },
        {
            "bufferView" : 3,
            "componentType" : 5126,
            "count" : 18,
            "type" : "VEC2"
        },
        {
            "bufferView" : 4,
            "componentType" : 5123,
            "count" : 18,
            "type" : "SCALAR"
        },
        {
            "bufferView" : 5,
            "componentType" : 5126,
            "count" : 1624,
            "max" : [
                2.5099270343780518,
                4.874916076660156,
                2.5928072929382324
            ],
            "min" : [
                -2.3193418979644775,
                0.25889986753463745,
                -1.544059157371521
            ],
            "type" : "VEC3"
        },
        {
            "bufferView" : 6,
            "componentType" : 5126,
            "count" : 1624,
            "type" : "VEC3"
        },
        {
            "bufferView" : 7,
            "componentType" : 5126,
            "count" : 1624,
            "type" : "VEC2"
        },
        {
            "bufferView" : 8,
            "componentType" : 5126,
            "count" : 1624,
            "type" : "VEC2"
        },
        {
            "bufferView" : 9,
            "componentType" : 5123,
            "count" : 1632,
            "type" : "SCALAR"
        },
        {
            "bufferView" : 10,
            "componentType" : 5126,
            "count" : 470,
            "max" : [
                2.4331893920898438,
                0.934051513671875,
                2.8606014251708984
            ],
            "min" : [
                -2.509394884109497,
                -0.14008034765720367,
                -2.4248173236846924
            ],
            "type" : "VEC3"
        },
        {
            "bufferView" : 11,
            "componentType" : 5126,
            "count" : 470,
            "type" : "VEC3"
        },
        {
            "bufferView" : 12,
            "componentType" : 5126,
            "count" : 470,
            "type" : "VEC2"
        },
        {
            "bufferView" : 13,
            "componentType" : 5126,
            "count" : 470,
            "type" : "VEC2"
        },
        {
            "bufferView" : 14,
            "componentType" : 5123,
            "count" : 603,
            "type" : "SCALAR"
        },
        {
            "bufferView" : 15,
            "componentType" : 5126,
            "count" : 842,
            "max" : [
                2.162757158279419,
                3.7416791915893555,
                2.4714486598968506
            ],
            "min" : [
                -1.993045449256897,
                -0.1400795429944992,
                -1.6950932741165161
            ],
            "type" : "VEC3"
        },
        {
            "bufferView" : 16,
            "componentType" : 5126,
            "count" : 842,
            "type" : "VEC3"
        },
        {
            "bufferView" : 17,
            "componentType" : 5126,
            "count" : 842,
            "type" : "VEC2"
        },
        {
            "bufferView" : 18,
            "componentType" : 5126,
            "count" : 842,
            "type" : "VEC2"
        },
        {
            "bufferView" : 19,
            "componentType" : 5123,
            "count" : 846,
            "type" : "SCALAR"
        }
    ],
    "bufferViews" : [
        {
            "buffer" : 0,
            "byteLength" : 216,
            "byteOffset" : 0
        },
        {
            "buffer" : 0,
            "byteLength" : 216,
            "byteOffset" : 216
        },
        {
            "buffer" : 0,
            "byteLength" : 144,
            "byteOffset" : 432
        },
        {
            "buffer" : 0,
            "byteLength" : 144,
            "byteOffset" : 576
        },
        {
            "buffer" : 0,
            "byteLength" : 36,
            "byteOffset" : 720
        },
        {
            "buffer" : 0,
            "byteLength" : 19488,
            "byteOffset" : 756
        },
        {
            "buffer" : 0,
            "byteLength" : 19488,
            "byteOffset" : 20244
        },
        {
            "buffer" : 0,
            "byteLength" : 12992,
            "byteOffset" : 39732
        },
        {
            "buffer" : 0,
            "byteLength" : 12992,
            "byteOffset" : 52724
        },
        {
            "buffer" : 0,
            "byteLength" : 3264,
            "byteOffset" : 65716
        },
        {
            "buffer" : 0,
            "byteLength" : 5640,
            "byteOffset" : 68980
        },
        {
            "buffer" : 0,
            "byteLength" : 5640,
            "byteOffset" : 74620
        },
        {
            "buffer" : 0,
            "byteLength" : 3760,
            "byteOffset" : 80260
        },
        {
            "buffer" : 0,
            "byteLength" : 3760,
            "byteOffset" : 84020
        },
        {
            "buffer" : 0,
            "byteLength" : 1206,
            "byteOffset" : 87780
        },
        {
            "buffer" : 0,
            "byteLength" : 10104,
            "byteOffset" : 88988
        },
        {
            "buffer" : 0,
            "byteLength" : 10104,
            "byteOffset" : 99092
        },
        {
            "buffer" : 0,
            "byteLength" : 6736,
            "byteOffset" : 109196
        },
        {
            "buffer" : 0,
            "byteLength" : 6736,
            "byteOffset" : 115932
        },
        {
            "buffer" : 0,
            "byteLength" : 1692,
            "byteOffset" : 122668
        }
    ],
    "samplers" : [
        {
            "magFilter" : 9729,
            "minFilter" : 9987
        }
    ],
    "buffers" : [
        {
            "byteLength" : 124360,
            "uri" : "LVertical2Connector.bin"
        }
    ]
}
