{
    "asset" : {
        "generator" : "Khronos glTF Blender I/O v3.2.43",
        "version" : "2.0"
    },
    "scene" : 0,
    "scenes" : [
        {
            "name" : "Scene",
            "nodes" : [
                0
            ]
        }
    ],
    "nodes" : [
        {
            "mesh" : 0,
            "name" : "LVertical1Connector"
        }
    ],
    "materials" : [
        {
            "doubleSided" : true,
            "name" : "PP_Standard_Material.007",
            "pbrMetallicRoughness" : {
                "baseColorTexture" : {
                    "index" : 0
                },
                "metallicFactor" : 0,
                "roughnessFactor" : 0.5527864098548889
            }
        },
        {
            "doubleSided" : true,
            "name" : "PP_Standard_Material.008",
            "pbrMetallicRoughness" : {
                "baseColorTexture" : {
                    "index" : 1
                },
                "metallicFactor" : 0,
                "roughnessFactor" : 0.5527864098548889
            }
        },
        {
            "doubleSided" : true,
            "name" : "PP_Standard_Material.009",
            "pbrMetallicRoughness" : {
                "baseColorTexture" : {
                    "index" : 2
                },
                "metallicFactor" : 0,
                "roughnessFactor" : 0.5527864098548889
            }
        },
        {
            "doubleSided" : true,
            "name" : "PP_Standard_Material.001",
            "pbrMetallicRoughness" : {
                "baseColorTexture" : {
                    "index" : 3
                },
                "metallicFactor" : 0,
                "roughnessFactor" : 0.5527864098548889
            }
        }
    ],
    "meshes" : [
        {
            "name" : "Scene.005",
            "primitives" : [
                {
                    "attributes" : {
                        "POSITION" : 0,
                        "NORMAL" : 1,
                        "TEXCOORD_0" : 2,
                        "TEXCOORD_1" : 3,
                        "TEXCOORD_2" : 4,
                        "TEXCOORD_3" : 5
                    },
                    "indices" : 6,
                    "material" : 0
                },
                {
                    "attributes" : {
                        "POSITION" : 7,
                        "NORMAL" : 8,
                        "TEXCOORD_0" : 9,
                        "TEXCOORD_1" : 10,
                        "TEXCOORD_2" : 11,
                        "TEXCOORD_3" : 12
                    },
                    "indices" : 13,
                    "material" : 1
                },
                {
                    "attributes" : {
                        "POSITION" : 14,
                        "NORMAL" : 15,
                        "TEXCOORD_0" : 16,
                        "TEXCOORD_1" : 17,
                        "TEXCOORD_2" : 18,
                        "TEXCOORD_3" : 19
                    },
                    "indices" : 20,
                    "material" : 2
                },
                {
                    "attributes" : {
                        "POSITION" : 21,
                        "NORMAL" : 22,
                        "TEXCOORD_0" : 23,
                        "TEXCOORD_1" : 24,
                        "TEXCOORD_2" : 25,
                        "TEXCOORD_3" : 26
                    },
                    "indices" : 27,
                    "material" : 3
                }
            ]
        }
    ],
    "textures" : [
        {
            "sampler" : 0,
            "source" : 0
        },
        {
            "sampler" : 0,
            "source" : 0
        },
        {
            "sampler" : 0,
            "source" : 0
        },
        {
            "sampler" : 0,
            "source" : 0
        }
    ],
    "images" : [
        {
            "mimeType" : "image/png",
            "name" : "PP_Color_Palette",
            "uri" : "Textures/PP_Color_Palette.png"
        }
    ],
    "accessors" : [
        {
            "bufferView" : 0,
            "componentType" : 5126,
            "count" : 1193,
            "max" : [
                2.4130330085754395,
                5.206306457519531,
                2.4191393852233887
            ],
            "min" : [
                -2.1173229217529297,
                0.4032561779022217,
                -2.5959136486053467
            ],
            "type" : "VEC3"
        },
        {
            "bufferView" : 1,
            "componentType" : 5126,
            "count" : 1193,
            "type" : "VEC3"
        },
        {
            "bufferView" : 2,
            "componentType" : 5126,
            "count" : 1193,
            "type" : "VEC2"
        },
        {
            "bufferView" : 3,
            "componentType" : 5126,
            "count" : 1193,
            "type" : "VEC2"
        },
        {
            "bufferView" : 4,
            "componentType" : 5126,
            "count" : 1193,
            "type" : "VEC2"
        },
        {
            "bufferView" : 5,
            "componentType" : 5126,
            "count" : 1193,
            "type" : "VEC2"
        },
        {
            "bufferView" : 6,
            "componentType" : 5123,
            "count" : 1539,
            "type" : "SCALAR"
        },
        {
            "bufferView" : 7,
            "componentType" : 5126,
            "count" : 1156,
            "max" : [
                2.00107479095459,
                5.202034950256348,
                2.489644765853882
            ],
            "min" : [
                -2.1173229217529297,
                0.4032561779022217,
                -2.5946528911590576
            ],
            "type" : "VEC3"
        },
        {
            "bufferView" : 8,
            "componentType" : 5126,
            "count" : 1156,
            "type" : "VEC3"
        },
        {
            "bufferView" : 9,
            "componentType" : 5126,
            "count" : 1156,
            "type" : "VEC2"
        },
        {
            "bufferView" : 10,
            "componentType" : 5126,
            "count" : 1156,
            "type" : "VEC2"
        },
        {
            "bufferView" : 11,
            "componentType" : 5126,
            "count" : 1156,
            "type" : "VEC2"
        },
        {
            "bufferView" : 12,
            "componentType" : 5126,
            "count" : 1156,
            "type" : "VEC2"
        },
        {
            "bufferView" : 13,
            "componentType" : 5123,
            "count" : 1158,
            "type" : "SCALAR"
        },
        {
            "bufferView" : 14,
            "componentType" : 5126,
            "count" : 1826,
            "max" : [
                2.4279561042785645,
                5.202034950256348,
                3.1055092811584473
            ],
            "min" : [
                -2.7928712368011475,
                0.6685540676116943,
                -2.389798641204834
            ],
            "type" : "VEC3"
        },
        {
            "bufferView" : 15,
            "componentType" : 5126,
            "count" : 1826,
            "type" : "VEC3"
        },
        {
            "bufferView" : 16,
            "componentType" : 5126,
            "count" : 1826,
            "type" : "VEC2"
        },
        {
            "bufferView" : 17,
            "componentType" : 5126,
            "count" : 1826,
            "type" : "VEC2"
        },
        {
            "bufferView" : 18,
            "componentType" : 5126,
            "count" : 1826,
            "type" : "VEC2"
        },
        {
            "bufferView" : 19,
            "componentType" : 5126,
            "count" : 1826,
            "type" : "VEC2"
        },
        {
            "bufferView" : 20,
            "componentType" : 5123,
            "count" : 1836,
            "type" : "SCALAR"
        },
        {
            "bufferView" : 21,
            "componentType" : 5126,
            "count" : 4,
            "max" : [
                0.0778302550315857,
                4.854389667510986,
                0.4018245339393616
            ],
            "min" : [
                -1.9221696853637695,
                4.854389667510986,
                -1.5981755256652832
            ],
            "type" : "VEC3"
        },
        {
            "bufferView" : 22,
            "componentType" : 5126,
            "count" : 4,
            "type" : "VEC3"
        },
        {
            "bufferView" : 23,
            "componentType" : 5126,
            "count" : 4,
            "type" : "VEC2"
        },
        {
            "bufferView" : 24,
            "componentType" : 5126,
            "count" : 4,
            "type" : "VEC2"
        },
        {
            "bufferView" : 25,
            "componentType" : 5126,
            "count" : 4,
            "type" : "VEC2"
        },
        {
            "bufferView" : 26,
            "componentType" : 5126,
            "count" : 4,
            "type" : "VEC2"
        },
        {
            "bufferView" : 27,
            "componentType" : 5123,
            "count" : 6,
            "type" : "SCALAR"
        }
    ],
    "bufferViews" : [
        {
            "buffer" : 0,
            "byteLength" : 14316,
            "byteOffset" : 0
        },
        {
            "buffer" : 0,
            "byteLength" : 14316,
            "byteOffset" : 14316
        },
        {
            "buffer" : 0,
            "byteLength" : 9544,
            "byteOffset" : 28632
        },
        {
            "buffer" : 0,
            "byteLength" : 9544,
            "byteOffset" : 38176
        },
        {
            "buffer" : 0,
            "byteLength" : 9544,
            "byteOffset" : 47720
        },
        {
            "buffer" : 0,
            "byteLength" : 9544,
            "byteOffset" : 57264
        },
        {
            "buffer" : 0,
            "byteLength" : 3078,
            "byteOffset" : 66808
        },
        {
            "buffer" : 0,
            "byteLength" : 13872,
            "byteOffset" : 69888
        },
        {
            "buffer" : 0,
            "byteLength" : 13872,
            "byteOffset" : 83760
        },
        {
            "buffer" : 0,
            "byteLength" : 9248,
            "byteOffset" : 97632
        },
        {
            "buffer" : 0,
            "byteLength" : 9248,
            "byteOffset" : 106880
        },
        {
            "buffer" : 0,
            "byteLength" : 9248,
            "byteOffset" : 116128
        },
        {
            "buffer" : 0,
            "byteLength" : 9248,
            "byteOffset" : 125376
        },
        {
            "buffer" : 0,
            "byteLength" : 2316,
            "byteOffset" : 134624
        },
        {
            "buffer" : 0,
            "byteLength" : 21912,
            "byteOffset" : 136940
        },
        {
            "buffer" : 0,
            "byteLength" : 21912,
            "byteOffset" : 158852
        },
        {
            "buffer" : 0,
            "byteLength" : 14608,
            "byteOffset" : 180764
        },
        {
            "buffer" : 0,
            "byteLength" : 14608,
            "byteOffset" : 195372
        },
        {
            "buffer" : 0,
            "byteLength" : 14608,
            "byteOffset" : 209980
        },
        {
            "buffer" : 0,
            "byteLength" : 14608,
            "byteOffset" : 224588
        },
        {
            "buffer" : 0,
            "byteLength" : 3672,
            "byteOffset" : 239196
        },
        {
            "buffer" : 0,
            "byteLength" : 48,
            "byteOffset" : 242868
        },
        {
            "buffer" : 0,
            "byteLength" : 48,
            "byteOffset" : 242916
        },
        {
            "buffer" : 0,
            "byteLength" : 32,
            "byteOffset" : 242964
        },
        {
            "buffer" : 0,
            "byteLength" : 32,
            "byteOffset" : 242996
        },
        {
            "buffer" : 0,
            "byteLength" : 32,
            "byteOffset" : 243028
        },
        {
            "buffer" : 0,
            "byteLength" : 32,
            "byteOffset" : 243060
        },
        {
            "buffer" : 0,
            "byteLength" : 12,
            "byteOffset" : 243092
        }
    ],
    "samplers" : [
        {
            "magFilter" : 9729,
            "minFilter" : 9987
        }
    ],
    "buffers" : [
        {
            "byteLength" : 243104,
            "uri" : "LVertical1Connector.bin"
        }
    ]
}
