{
    "asset" : {
        "generator" : "Khronos glTF Blender I/O v3.2.43",
        "version" : "2.0"
    },
    "extensionsUsed" : [
        "KHR_lights_punctual"
    ],
    "extensionsRequired" : [
        "KHR_lights_punctual"
    ],
    "extensions" : {
        "KHR_lights_punctual" : {
            "lights" : [
                {
                    "color" : [
                        1,
                        0.010974152013659477,
                        0.00900487694889307
                    ],
                    "intensity" : 10.000000953674316,
                    "type" : "point",
                    "name" : "Point.007"
                }
            ]
        }
    },
    "scene" : 0,
    "scenes" : [
        {
            "name" : "Scene",
            "nodes" : [
                0,
                1,
                2
            ]
        }
    ],
    "nodes" : [
        {
            "mesh" : 0,
            "name" : "LVertical1Connector"
        },
        {
            "extensions" : {
                "KHR_lights_punctual" : {
                    "light" : 0
                }
            },
            "name" : "Point",
            "rotation" : [
                -0.7071068286895752,
                0,
                0,
                0.7071068286895752
            ],
            "translation" : [
                -0.853252112865448,
                4.664066314697266,
                -0.37618309259414673
            ]
        },
        {
            "mesh" : 1,
            "name" : "EmergencyLight"
        }
    ],
    "materials" : [
        {
            "doubleSided" : true,
            "name" : "PP_Standard_Material.029",
            "pbrMetallicRoughness" : {
                "baseColorTexture" : {
                    "index" : 0
                },
                "metallicFactor" : 0,
                "roughnessFactor" : 0.5527864098548889
            }
        },
        {
            "doubleSided" : true,
            "name" : "PP_Standard_Material.030",
            "pbrMetallicRoughness" : {
                "baseColorTexture" : {
                    "index" : 1
                },
                "metallicFactor" : 0,
                "roughnessFactor" : 0.5527864098548889
            }
        },
        {
            "doubleSided" : true,
            "name" : "PP_Standard_Material.031",
            "pbrMetallicRoughness" : {
                "baseColorTexture" : {
                    "index" : 2
                },
                "metallicFactor" : 0,
                "roughnessFactor" : 0.5527864098548889
            }
        },
        {
            "doubleSided" : true,
            "name" : "PP_Standard_Material.032",
            "pbrMetallicRoughness" : {
                "baseColorTexture" : {
                    "index" : 3
                },
                "metallicFactor" : 0,
                "roughnessFactor" : 0.5527864098548889
            }
        },
        {
            "doubleSided" : true,
            "emissiveFactor" : [
                3,
                3,
                3
            ],
            "emissiveTexture" : {
                "index" : 4
            },
            "name" : "EmergencyLight.001",
            "pbrMetallicRoughness" : {
                "baseColorTexture" : {
                    "index" : 5
                },
                "metallicFactor" : 0,
                "roughnessFactor" : 0.4000000059604645
            }
        }
    ],
    "meshes" : [
        {
            "name" : "Scene.008",
            "primitives" : [
                {
                    "attributes" : {
                        "POSITION" : 0,
                        "NORMAL" : 1,
                        "TEXCOORD_0" : 2,
                        "TEXCOORD_1" : 3,
                        "TEXCOORD_2" : 4,
                        "TEXCOORD_3" : 5
                    },
                    "indices" : 6,
                    "material" : 0
                },
                {
                    "attributes" : {
                        "POSITION" : 7,
                        "NORMAL" : 8,
                        "TEXCOORD_0" : 9,
                        "TEXCOORD_1" : 10,
                        "TEXCOORD_2" : 11,
                        "TEXCOORD_3" : 12
                    },
                    "indices" : 13,
                    "material" : 1
                },
                {
                    "attributes" : {
                        "POSITION" : 14,
                        "NORMAL" : 15,
                        "TEXCOORD_0" : 16,
                        "TEXCOORD_1" : 17,
                        "TEXCOORD_2" : 18,
                        "TEXCOORD_3" : 19
                    },
                    "indices" : 20,
                    "material" : 2
                },
                {
                    "attributes" : {
                        "POSITION" : 21,
                        "NORMAL" : 22,
                        "TEXCOORD_0" : 23,
                        "TEXCOORD_1" : 24,
                        "TEXCOORD_2" : 25,
                        "TEXCOORD_3" : 26
                    },
                    "indices" : 27,
                    "material" : 3
                }
            ]
        },
        {
            "name" : "Cylinder.002",
            "primitives" : [
                {
                    "attributes" : {
                        "POSITION" : 28,
                        "NORMAL" : 29,
                        "TEXCOORD_0" : 30
                    },
                    "indices" : 31,
                    "material" : 4
                }
            ]
        }
    ],
    "textures" : [
        {
            "sampler" : 0,
            "source" : 0
        },
        {
            "sampler" : 0,
            "source" : 0
        },
        {
            "sampler" : 0,
            "source" : 0
        },
        {
            "sampler" : 0,
            "source" : 0
        },
        {
            "sampler" : 0,
            "source" : 1
        },
        {
            "sampler" : 0,
            "source" : 2
        }
    ],
    "images" : [
        {
            "mimeType" : "image/png",
            "name" : "PP_Color_Palette",
            "uri" : "Textures/PP_Color_Palette.png"
        },
        {
            "mimeType" : "image/png",
            "name" : "LampEmission",
            "uri" : "Textures/LampEmission.png"
        },
        {
            "mimeType" : "image/png",
            "name" : "LampDiffuse",
            "uri" : "Textures/LampDiffuse.png"
        }
    ],
    "accessors" : [
        {
            "bufferView" : 0,
            "componentType" : 5126,
            "count" : 1454,
            "max" : [
                2.4130330085754395,
                5.206306457519531,
                2.4191393852233887
            ],
            "min" : [
                -2.1173229217529297,
                0.4032561779022217,
                -2.5959136486053467
            ],
            "type" : "VEC3"
        },
        {
            "bufferView" : 1,
            "componentType" : 5126,
            "count" : 1454,
            "type" : "VEC3"
        },
        {
            "bufferView" : 2,
            "componentType" : 5126,
            "count" : 1454,
            "type" : "VEC2"
        },
        {
            "bufferView" : 3,
            "componentType" : 5126,
            "count" : 1454,
            "type" : "VEC2"
        },
        {
            "bufferView" : 4,
            "componentType" : 5126,
            "count" : 1454,
            "type" : "VEC2"
        },
        {
            "bufferView" : 5,
            "componentType" : 5126,
            "count" : 1454,
            "type" : "VEC2"
        },
        {
            "bufferView" : 6,
            "componentType" : 5123,
            "count" : 1539,
            "type" : "SCALAR"
        },
        {
            "bufferView" : 7,
            "componentType" : 5126,
            "count" : 1156,
            "max" : [
                2.00107479095459,
                5.202034950256348,
                2.489644765853882
            ],
            "min" : [
                -2.1173229217529297,
                0.4032561779022217,
                -2.5946528911590576
            ],
            "type" : "VEC3"
        },
        {
            "bufferView" : 8,
            "componentType" : 5126,
            "count" : 1156,
            "type" : "VEC3"
        },
        {
            "bufferView" : 9,
            "componentType" : 5126,
            "count" : 1156,
            "type" : "VEC2"
        },
        {
            "bufferView" : 10,
            "componentType" : 5126,
            "count" : 1156,
            "type" : "VEC2"
        },
        {
            "bufferView" : 11,
            "componentType" : 5126,
            "count" : 1156,
            "type" : "VEC2"
        },
        {
            "bufferView" : 12,
            "componentType" : 5126,
            "count" : 1156,
            "type" : "VEC2"
        },
        {
            "bufferView" : 13,
            "componentType" : 5123,
            "count" : 1158,
            "type" : "SCALAR"
        },
        {
            "bufferView" : 14,
            "componentType" : 5126,
            "count" : 1826,
            "max" : [
                2.4279561042785645,
                5.202034950256348,
                3.1055092811584473
            ],
            "min" : [
                -2.7928712368011475,
                0.6685540676116943,
                -2.389798641204834
            ],
            "type" : "VEC3"
        },
        {
            "bufferView" : 15,
            "componentType" : 5126,
            "count" : 1826,
            "type" : "VEC3"
        },
        {
            "bufferView" : 16,
            "componentType" : 5126,
            "count" : 1826,
            "type" : "VEC2"
        },
        {
            "bufferView" : 17,
            "componentType" : 5126,
            "count" : 1826,
            "type" : "VEC2"
        },
        {
            "bufferView" : 18,
            "componentType" : 5126,
            "count" : 1826,
            "type" : "VEC2"
        },
        {
            "bufferView" : 19,
            "componentType" : 5126,
            "count" : 1826,
            "type" : "VEC2"
        },
        {
            "bufferView" : 20,
            "componentType" : 5123,
            "count" : 1836,
            "type" : "SCALAR"
        },
        {
            "bufferView" : 21,
            "componentType" : 5126,
            "count" : 4,
            "max" : [
                0.0778302550315857,
                4.854389667510986,
                0.4018245339393616
            ],
            "min" : [
                -1.9221696853637695,
                4.854389667510986,
                -1.5981755256652832
            ],
            "type" : "VEC3"
        },
        {
            "bufferView" : 22,
            "componentType" : 5126,
            "count" : 4,
            "type" : "VEC3"
        },
        {
            "bufferView" : 23,
            "componentType" : 5126,
            "count" : 4,
            "type" : "VEC2"
        },
        {
            "bufferView" : 24,
            "componentType" : 5126,
            "count" : 4,
            "type" : "VEC2"
        },
        {
            "bufferView" : 25,
            "componentType" : 5126,
            "count" : 4,
            "type" : "VEC2"
        },
        {
            "bufferView" : 26,
            "componentType" : 5126,
            "count" : 4,
            "type" : "VEC2"
        },
        {
            "bufferView" : 27,
            "componentType" : 5123,
            "count" : 6,
            "type" : "SCALAR"
        },
        {
            "bufferView" : 28,
            "componentType" : 5126,
            "count" : 1137,
            "max" : [
                -0.7033233642578125,
                4.850776672363281,
                -0.2292453646659851
            ],
            "min" : [
                -1.0033233165740967,
                4.628804683685303,
                -0.5292453765869141
            ],
            "type" : "VEC3"
        },
        {
            "bufferView" : 29,
            "componentType" : 5126,
            "count" : 1137,
            "type" : "VEC3"
        },
        {
            "bufferView" : 30,
            "componentType" : 5126,
            "count" : 1137,
            "type" : "VEC2"
        },
        {
            "bufferView" : 31,
            "componentType" : 5123,
            "count" : 1140,
            "type" : "SCALAR"
        }
    ],
    "bufferViews" : [
        {
            "buffer" : 0,
            "byteLength" : 17448,
            "byteOffset" : 0
        },
        {
            "buffer" : 0,
            "byteLength" : 17448,
            "byteOffset" : 17448
        },
        {
            "buffer" : 0,
            "byteLength" : 11632,
            "byteOffset" : 34896
        },
        {
            "buffer" : 0,
            "byteLength" : 11632,
            "byteOffset" : 46528
        },
        {
            "buffer" : 0,
            "byteLength" : 11632,
            "byteOffset" : 58160
        },
        {
            "buffer" : 0,
            "byteLength" : 11632,
            "byteOffset" : 69792
        },
        {
            "buffer" : 0,
            "byteLength" : 3078,
            "byteOffset" : 81424
        },
        {
            "buffer" : 0,
            "byteLength" : 13872,
            "byteOffset" : 84504
        },
        {
            "buffer" : 0,
            "byteLength" : 13872,
            "byteOffset" : 98376
        },
        {
            "buffer" : 0,
            "byteLength" : 9248,
            "byteOffset" : 112248
        },
        {
            "buffer" : 0,
            "byteLength" : 9248,
            "byteOffset" : 121496
        },
        {
            "buffer" : 0,
            "byteLength" : 9248,
            "byteOffset" : 130744
        },
        {
            "buffer" : 0,
            "byteLength" : 9248,
            "byteOffset" : 139992
        },
        {
            "buffer" : 0,
            "byteLength" : 2316,
            "byteOffset" : 149240
        },
        {
            "buffer" : 0,
            "byteLength" : 21912,
            "byteOffset" : 151556
        },
        {
            "buffer" : 0,
            "byteLength" : 21912,
            "byteOffset" : 173468
        },
        {
            "buffer" : 0,
            "byteLength" : 14608,
            "byteOffset" : 195380
        },
        {
            "buffer" : 0,
            "byteLength" : 14608,
            "byteOffset" : 209988
        },
        {
            "buffer" : 0,
            "byteLength" : 14608,
            "byteOffset" : 224596
        },
        {
            "buffer" : 0,
            "byteLength" : 14608,
            "byteOffset" : 239204
        },
        {
            "buffer" : 0,
            "byteLength" : 3672,
            "byteOffset" : 253812
        },
        {
            "buffer" : 0,
            "byteLength" : 48,
            "byteOffset" : 257484
        },
        {
            "buffer" : 0,
            "byteLength" : 48,
            "byteOffset" : 257532
        },
        {
            "buffer" : 0,
            "byteLength" : 32,
            "byteOffset" : 257580
        },
        {
            "buffer" : 0,
            "byteLength" : 32,
            "byteOffset" : 257612
        },
        {
            "buffer" : 0,
            "byteLength" : 32,
            "byteOffset" : 257644
        },
        {
            "buffer" : 0,
            "byteLength" : 32,
            "byteOffset" : 257676
        },
        {
            "buffer" : 0,
            "byteLength" : 12,
            "byteOffset" : 257708
        },
        {
            "buffer" : 0,
            "byteLength" : 13644,
            "byteOffset" : 257720
        },
        {
            "buffer" : 0,
            "byteLength" : 13644,
            "byteOffset" : 271364
        },
        {
            "buffer" : 0,
            "byteLength" : 9096,
            "byteOffset" : 285008
        },
        {
            "buffer" : 0,
            "byteLength" : 2280,
            "byteOffset" : 294104
        }
    ],
    "samplers" : [
        {
            "magFilter" : 9729,
            "minFilter" : 9987
        }
    ],
    "buffers" : [
        {
            "byteLength" : 296384,
            "uri" : "LVertical1Connector.bin"
        }
    ]
}
