{
    "asset" : {
        "generator" : "Khronos glTF Blender I/O v3.2.43",
        "version" : "2.0"
    },
    "scene" : 0,
    "scenes" : [
        {
            "name" : "Scene",
            "nodes" : [
                0
            ]
        }
    ],
    "nodes" : [
        {
            "mesh" : 0,
            "name" : "LVertical2Connector_Col"
        }
    ],
    "meshes" : [
        {
            "name" : "Scene.035",
            "primitives" : [
                {
                    "attributes" : {
                        "POSITION" : 0,
                        "NORMAL" : 1,
                        "TEXCOORD_0" : 2,
                        "TEXCOORD_1" : 3
                    },
                    "indices" : 4
                }
            ]
        }
    ],
    "accessors" : [
        {
            "bufferView" : 0,
            "componentType" : 5126,
            "count" : 415,
            "max" : [
                1.9405993223190308,
                4.313694953918457,
                2.500000476837158
            ],
            "min" : [
                -1.926858901977539,
                -2.537086629672558e-06,
                -1.3054378032684326
            ],
            "type" : "VEC3"
        },
        {
            "bufferView" : 1,
            "componentType" : 5126,
            "count" : 415,
            "type" : "VEC3"
        },
        {
            "bufferView" : 2,
            "componentType" : 5126,
            "count" : 415,
            "type" : "VEC2"
        },
        {
            "bufferView" : 3,
            "componentType" : 5126,
            "count" : 415,
            "type" : "VEC2"
        },
        {
            "bufferView" : 4,
            "componentType" : 5123,
            "count" : 726,
            "type" : "SCALAR"
        }
    ],
    "bufferViews" : [
        {
            "buffer" : 0,
            "byteLength" : 4980,
            "byteOffset" : 0
        },
        {
            "buffer" : 0,
            "byteLength" : 4980,
            "byteOffset" : 4980
        },
        {
            "buffer" : 0,
            "byteLength" : 3320,
            "byteOffset" : 9960
        },
        {
            "buffer" : 0,
            "byteLength" : 3320,
            "byteOffset" : 13280
        },
        {
            "buffer" : 0,
            "byteLength" : 1452,
            "byteOffset" : 16600
        }
    ],
    "buffers" : [
        {
            "byteLength" : 18052,
            "uri" : "LVertical2Connector_Col.bin"
        }
    ]
}
