{
    "asset" : {
        "generator" : "Khronos glTF Blender I/O v3.2.43",
        "version" : "2.0"
    },
    "scene" : 0,
    "scenes" : [
        {
            "name" : "Scene",
            "nodes" : [
                0
            ]
        }
    ],
    "nodes" : [
        {
            "mesh" : 0,
            "name" : "LVertical1Connector_Col"
        }
    ],
    "meshes" : [
        {
            "name" : "Scene.030",
            "primitives" : [
                {
                    "attributes" : {
                        "POSITION" : 0,
                        "NORMAL" : 1,
                        "TEXCOORD_0" : 2,
                        "TEXCOORD_1" : 3
                    },
                    "indices" : 4
                }
            ]
        }
    ],
    "accessors" : [
        {
            "bufferView" : 0,
            "componentType" : 5126,
            "count" : 489,
            "max" : [
                1.9405925273895264,
                5.000000476837158,
                2.161686658859253
            ],
            "min" : [
                -1.9268652200698853,
                0.7655623555183411,
                -2.500002145767212
            ],
            "type" : "VEC3"
        },
        {
            "bufferView" : 1,
            "componentType" : 5126,
            "count" : 489,
            "type" : "VEC3"
        },
        {
            "bufferView" : 2,
            "componentType" : 5126,
            "count" : 489,
            "type" : "VEC2"
        },
        {
            "bufferView" : 3,
            "componentType" : 5126,
            "count" : 489,
            "type" : "VEC2"
        },
        {
            "bufferView" : 4,
            "componentType" : 5123,
            "count" : 846,
            "type" : "SCALAR"
        }
    ],
    "bufferViews" : [
        {
            "buffer" : 0,
            "byteLength" : 5868,
            "byteOffset" : 0
        },
        {
            "buffer" : 0,
            "byteLength" : 5868,
            "byteOffset" : 5868
        },
        {
            "buffer" : 0,
            "byteLength" : 3912,
            "byteOffset" : 11736
        },
        {
            "buffer" : 0,
            "byteLength" : 3912,
            "byteOffset" : 15648
        },
        {
            "buffer" : 0,
            "byteLength" : 1692,
            "byteOffset" : 19560
        }
    ],
    "buffers" : [
        {
            "byteLength" : 21252,
            "uri" : "LVertical1Connector_Col.bin"
        }
    ]
}
