{
    "asset" : {
        "generator" : "Khronos glTF Blender I/O v3.3.32",
        "version" : "2.0"
    },
    "scene" : 0,
    "scenes" : [
        {
            "name" : "Scene",
            "nodes" : [
                0
            ]
        }
    ],
    "nodes" : [
        {
            "mesh" : 0,
            "name" : "PlusVerticalConnector_Col"
        }
    ],
    "meshes" : [
        {
            "name" : "Scene.145",
            "primitives" : [
                {
                    "attributes" : {
                        "POSITION" : 0,
                        "NORMAL" : 1,
                        "TEXCOORD_0" : 2,
                        "TEXCOORD_1" : 3
                    },
                    "indices" : 4
                }
            ]
        }
    ],
    "accessors" : [
        {
            "bufferView" : 0,
            "componentType" : 5126,
            "count" : 1654,
            "max" : [
                2.583937644958496,
                5.000000953674316,
                3.062021255493164
            ],
            "min" : [
                -2.7507102489471436,
                -2.9882139642722905e-06,
                -2.500002384185791
            ],
            "type" : "VEC3"
        },
        {
            "bufferView" : 1,
            "componentType" : 5126,
            "count" : 1654,
            "type" : "VEC3"
        },
        {
            "bufferView" : 2,
            "componentType" : 5126,
            "count" : 1654,
            "type" : "VEC2"
        },
        {
            "bufferView" : 3,
            "componentType" : 5126,
            "count" : 1654,
            "type" : "VEC2"
        },
        {
            "bufferView" : 4,
            "componentType" : 5123,
            "count" : 1680,
            "type" : "SCALAR"
        }
    ],
    "bufferViews" : [
        {
            "buffer" : 0,
            "byteLength" : 19848,
            "byteOffset" : 0,
            "target" : 34962
        },
        {
            "buffer" : 0,
            "byteLength" : 19848,
            "byteOffset" : 19848,
            "target" : 34962
        },
        {
            "buffer" : 0,
            "byteLength" : 13232,
            "byteOffset" : 39696,
            "target" : 34962
        },
        {
            "buffer" : 0,
            "byteLength" : 13232,
            "byteOffset" : 52928,
            "target" : 34962
        },
        {
            "buffer" : 0,
            "byteLength" : 3360,
            "byteOffset" : 66160,
            "target" : 34963
        }
    ],
    "buffers" : [
        {
            "byteLength" : 69520,
            "uri" : "PlusVerticalConnector_Col.bin"
        }
    ]
}
