{
    "asset" : {
        "generator" : "Khronos glTF Blender I/O v3.2.43",
        "version" : "2.0"
    },
    "scene" : 0,
    "scenes" : [
        {
            "name" : "Scene",
            "nodes" : [
                0
            ]
        }
    ],
    "nodes" : [
        {
            "mesh" : 0,
            "name" : "PlusHorizontalConnector_Col"
        }
    ],
    "meshes" : [
        {
            "name" : "Scene.039",
            "primitives" : [
                {
                    "attributes" : {
                        "POSITION" : 0,
                        "NORMAL" : 1,
                        "TEXCOORD_0" : 2,
                        "TEXCOORD_1" : 3
                    },
                    "indices" : 4
                }
            ]
        }
    ],
    "accessors" : [
        {
            "bufferView" : 0,
            "componentType" : 5126,
            "count" : 978,
            "max" : [
                2.500000476837158,
                4.406264781951904,
                2.500000476837158
            ],
            "min" : [
                -2.500002145767212,
                0.7270100712776184,
                -2.500002145767212
            ],
            "type" : "VEC3"
        },
        {
            "bufferView" : 1,
            "componentType" : 5126,
            "count" : 978,
            "type" : "VEC3"
        },
        {
            "bufferView" : 2,
            "componentType" : 5126,
            "count" : 978,
            "type" : "VEC2"
        },
        {
            "bufferView" : 3,
            "componentType" : 5126,
            "count" : 978,
            "type" : "VEC2"
        },
        {
            "bufferView" : 4,
            "componentType" : 5123,
            "count" : 978,
            "type" : "SCALAR"
        }
    ],
    "bufferViews" : [
        {
            "buffer" : 0,
            "byteLength" : 11736,
            "byteOffset" : 0
        },
        {
            "buffer" : 0,
            "byteLength" : 11736,
            "byteOffset" : 11736
        },
        {
            "buffer" : 0,
            "byteLength" : 7824,
            "byteOffset" : 23472
        },
        {
            "buffer" : 0,
            "byteLength" : 7824,
            "byteOffset" : 31296
        },
        {
            "buffer" : 0,
            "byteLength" : 1956,
            "byteOffset" : 39120
        }
    ],
    "buffers" : [
        {
            "byteLength" : 41076,
            "uri" : "PlusHorizontalConnector_Col.bin"
        }
    ]
}
