{
    "asset" : {
        "generator" : "Khronos glTF Blender I/O v3.3.32",
        "version" : "2.0"
    },
    "scene" : 0,
    "scenes" : [
        {
            "name" : "Scene",
            "nodes" : [
                0
            ]
        }
    ],
    "nodes" : [
        {
            "mesh" : 0,
            "name" : "Riverbed1_Col"
        }
    ],
    "meshes" : [
        {
            "name" : "Scene.136",
            "primitives" : [
                {
                    "attributes" : {
                        "POSITION" : 0,
                        "NORMAL" : 1,
                        "TEXCOORD_0" : 2,
                        "TEXCOORD_1" : 3
                    },
                    "indices" : 4
                }
            ]
        }
    ],
    "accessors" : [
        {
            "bufferView" : 0,
            "componentType" : 5126,
            "count" : 1313,
            "max" : [
                2.5,
                1.4930628538131714,
                2.5
            ],
            "min" : [
                -2.5,
                -0.3513922393321991,
                -2.5
            ],
            "type" : "VEC3"
        },
        {
            "bufferView" : 1,
            "componentType" : 5126,
            "count" : 1313,
            "type" : "VEC3"
        },
        {
            "bufferView" : 2,
            "componentType" : 5126,
            "count" : 1313,
            "type" : "VEC2"
        },
        {
            "bufferView" : 3,
            "componentType" : 5126,
            "count" : 1313,
            "type" : "VEC2"
        },
        {
            "bufferView" : 4,
            "componentType" : 5123,
            "count" : 1392,
            "type" : "SCALAR"
        }
    ],
    "bufferViews" : [
        {
            "buffer" : 0,
            "byteLength" : 15756,
            "byteOffset" : 0,
            "target" : 34962
        },
        {
            "buffer" : 0,
            "byteLength" : 15756,
            "byteOffset" : 15756,
            "target" : 34962
        },
        {
            "buffer" : 0,
            "byteLength" : 10504,
            "byteOffset" : 31512,
            "target" : 34962
        },
        {
            "buffer" : 0,
            "byteLength" : 10504,
            "byteOffset" : 42016,
            "target" : 34962
        },
        {
            "buffer" : 0,
            "byteLength" : 2784,
            "byteOffset" : 52520,
            "target" : 34963
        }
    ],
    "buffers" : [
        {
            "byteLength" : 55304,
            "uri" : "Riverbed1_Col.bin"
        }
    ]
}
