{
    "asset" : {
        "generator" : "Khronos glTF Blender I/O v3.2.43",
        "version" : "2.0"
    },
    "scene" : 0,
    "scenes" : [
        {
            "name" : "Scene",
            "nodes" : [
                0
            ]
        }
    ],
    "nodes" : [
        {
            "mesh" : 0,
            "name" : "Roof1_Col"
        }
    ],
    "meshes" : [
        {
            "name" : "Scene.025",
            "primitives" : [
                {
                    "attributes" : {
                        "POSITION" : 0,
                        "NORMAL" : 1,
                        "TEXCOORD_0" : 2,
                        "TEXCOORD_1" : 3
                    },
                    "indices" : 4
                }
            ]
        }
    ],
    "accessors" : [
        {
            "bufferView" : 0,
            "componentType" : 5126,
            "count" : 86,
            "max" : [
                2.5,
                4.731199741363525,
                2.5000014305114746
            ],
            "min" : [
                -2.5,
                4.218045711517334,
                -2.4999985694885254
            ],
            "type" : "VEC3"
        },
        {
            "bufferView" : 1,
            "componentType" : 5126,
            "count" : 86,
            "type" : "VEC3"
        },
        {
            "bufferView" : 2,
            "componentType" : 5126,
            "count" : 86,
            "type" : "VEC2"
        },
        {
            "bufferView" : 3,
            "componentType" : 5126,
            "count" : 86,
            "type" : "VEC2"
        },
        {
            "bufferView" : 4,
            "componentType" : 5123,
            "count" : 150,
            "type" : "SCALAR"
        }
    ],
    "bufferViews" : [
        {
            "buffer" : 0,
            "byteLength" : 1032,
            "byteOffset" : 0
        },
        {
            "buffer" : 0,
            "byteLength" : 1032,
            "byteOffset" : 1032
        },
        {
            "buffer" : 0,
            "byteLength" : 688,
            "byteOffset" : 2064
        },
        {
            "buffer" : 0,
            "byteLength" : 688,
            "byteOffset" : 2752
        },
        {
            "buffer" : 0,
            "byteLength" : 300,
            "byteOffset" : 3440
        }
    ],
    "buffers" : [
        {
            "byteLength" : 3740,
            "uri" : "Roof1_Col.bin"
        }
    ]
}
