{
    "asset" : {
        "generator" : "Khronos glTF Blender I/O v3.3.32",
        "version" : "2.0"
    },
    "scene" : 0,
    "scenes" : [
        {
            "name" : "Scene",
            "nodes" : [
                0
            ]
        }
    ],
    "nodes" : [
        {
            "mesh" : 0,
            "name" : "ShelfEnd2_Col"
        }
    ],
    "meshes" : [
        {
            "name" : "Scene.113",
            "primitives" : [
                {
                    "attributes" : {
                        "POSITION" : 0,
                        "NORMAL" : 1,
                        "TEXCOORD_0" : 2,
                        "TEXCOORD_1" : 3
                    },
                    "indices" : 4
                }
            ]
        }
    ],
    "accessors" : [
        {
            "bufferView" : 0,
            "componentType" : 5126,
            "count" : 132,
            "max" : [
                -1.824414610862732,
                0.7050719261169434,
                2.4986629486083984
            ],
            "min" : [
                -2.5,
                0.2702895402908325,
                -2.4986629486083984
            ],
            "type" : "VEC3"
        },
        {
            "bufferView" : 1,
            "componentType" : 5126,
            "count" : 132,
            "type" : "VEC3"
        },
        {
            "bufferView" : 2,
            "componentType" : 5126,
            "count" : 132,
            "type" : "VEC2"
        },
        {
            "bufferView" : 3,
            "componentType" : 5126,
            "count" : 132,
            "type" : "VEC2"
        },
        {
            "bufferView" : 4,
            "componentType" : 5123,
            "count" : 150,
            "type" : "SCALAR"
        }
    ],
    "bufferViews" : [
        {
            "buffer" : 0,
            "byteLength" : 1584,
            "byteOffset" : 0,
            "target" : 34962
        },
        {
            "buffer" : 0,
            "byteLength" : 1584,
            "byteOffset" : 1584,
            "target" : 34962
        },
        {
            "buffer" : 0,
            "byteLength" : 1056,
            "byteOffset" : 3168,
            "target" : 34962
        },
        {
            "buffer" : 0,
            "byteLength" : 1056,
            "byteOffset" : 4224,
            "target" : 34962
        },
        {
            "buffer" : 0,
            "byteLength" : 300,
            "byteOffset" : 5280,
            "target" : 34963
        }
    ],
    "buffers" : [
        {
            "byteLength" : 5580,
            "uri" : "ShelfEnd2_Col.bin"
        }
    ]
}
