{
    "asset" : {
        "generator" : "Khronos glTF Blender I/O v3.2.43",
        "version" : "2.0"
    },
    "scene" : 0,
    "scenes" : [
        {
            "name" : "Scene",
            "nodes" : [
                0
            ]
        }
    ],
    "nodes" : [
        {
            "mesh" : 0,
            "name" : "SideTwoConnector_Col"
        }
    ],
    "meshes" : [
        {
            "name" : "Scene.043",
            "primitives" : [
                {
                    "attributes" : {
                        "POSITION" : 0,
                        "NORMAL" : 1,
                        "TEXCOORD_0" : 2,
                        "TEXCOORD_1" : 3
                    },
                    "indices" : 4
                }
            ]
        }
    ],
    "accessors" : [
        {
            "bufferView" : 0,
            "componentType" : 5126,
            "count" : 457,
            "max" : [
                1.9405993223190308,
                4.406264781951904,
                2.500000476837158
            ],
            "min" : [
                -1.7901688814163208,
                0.7270100712776184,
                -2.500002145767212
            ],
            "type" : "VEC3"
        },
        {
            "bufferView" : 1,
            "componentType" : 5126,
            "count" : 457,
            "type" : "VEC3"
        },
        {
            "bufferView" : 2,
            "componentType" : 5126,
            "count" : 457,
            "type" : "VEC2"
        },
        {
            "bufferView" : 3,
            "componentType" : 5126,
            "count" : 457,
            "type" : "VEC2"
        },
        {
            "bufferView" : 4,
            "componentType" : 5123,
            "count" : 582,
            "type" : "SCALAR"
        }
    ],
    "bufferViews" : [
        {
            "buffer" : 0,
            "byteLength" : 5484,
            "byteOffset" : 0
        },
        {
            "buffer" : 0,
            "byteLength" : 5484,
            "byteOffset" : 5484
        },
        {
            "buffer" : 0,
            "byteLength" : 3656,
            "byteOffset" : 10968
        },
        {
            "buffer" : 0,
            "byteLength" : 3656,
            "byteOffset" : 14624
        },
        {
            "buffer" : 0,
            "byteLength" : 1164,
            "byteOffset" : 18280
        }
    ],
    "buffers" : [
        {
            "byteLength" : 19444,
            "uri" : "SideTwoConnector_Col.bin"
        }
    ]
}
