{
    "asset" : {
        "generator" : "Khronos glTF Blender I/O v3.2.43",
        "version" : "2.0"
    },
    "scene" : 0,
    "scenes" : [
        {
            "name" : "Scene",
            "nodes" : [
                0
            ]
        }
    ],
    "nodes" : [
        {
            "mesh" : 0,
            "name" : "THorizontal1Connector"
        }
    ],
    "materials" : [
        {
            "doubleSided" : true,
            "name" : "PP_Standard_Material.042",
            "pbrMetallicRoughness" : {
                "baseColorTexture" : {
                    "index" : 0
                },
                "metallicFactor" : 0,
                "roughnessFactor" : 0.5527864098548889
            }
        },
        {
            "doubleSided" : true,
            "name" : "PP_Standard_Material.043",
            "pbrMetallicRoughness" : {
                "baseColorTexture" : {
                    "index" : 1
                },
                "metallicFactor" : 0,
                "roughnessFactor" : 0.5527864098548889
            }
        }
    ],
    "meshes" : [
        {
            "name" : "Scene.046",
            "primitives" : [
                {
                    "attributes" : {
                        "POSITION" : 0,
                        "NORMAL" : 1,
                        "TEXCOORD_0" : 2,
                        "TEXCOORD_1" : 3
                    },
                    "indices" : 4,
                    "material" : 0
                },
                {
                    "attributes" : {
                        "POSITION" : 5,
                        "NORMAL" : 6,
                        "TEXCOORD_0" : 7,
                        "TEXCOORD_1" : 8
                    },
                    "indices" : 9,
                    "material" : 1
                }
            ]
        }
    ],
    "textures" : [
        {
            "sampler" : 0,
            "source" : 0
        },
        {
            "sampler" : 0,
            "source" : 0
        }
    ],
    "images" : [
        {
            "mimeType" : "image/png",
            "name" : "PP_Color_Palette",
            "uri" : "Textures/PP_Color_Palette.png"
        }
    ],
    "accessors" : [
        {
            "bufferView" : 0,
            "componentType" : 5126,
            "count" : 255,
            "max" : [
                2.3966012001037598,
                4.715345859527588,
                0.15091891586780548
            ],
            "min" : [
                -2.1883585453033447,
                0.4274948835372925,
                -2.50000262260437
            ],
            "type" : "VEC3"
        },
        {
            "bufferView" : 1,
            "componentType" : 5126,
            "count" : 255,
            "type" : "VEC3"
        },
        {
            "bufferView" : 2,
            "componentType" : 5126,
            "count" : 255,
            "type" : "VEC2"
        },
        {
            "bufferView" : 3,
            "componentType" : 5126,
            "count" : 255,
            "type" : "VEC2"
        },
        {
            "bufferView" : 4,
            "componentType" : 5123,
            "count" : 261,
            "type" : "SCALAR"
        },
        {
            "bufferView" : 5,
            "componentType" : 5126,
            "count" : 898,
            "max" : [
                2.4836394786834717,
                4.820676326751709,
                2.5000007152557373
            ],
            "min" : [
                -2.500000238418579,
                0.31998395919799805,
                -2.500001907348633
            ],
            "type" : "VEC3"
        },
        {
            "bufferView" : 6,
            "componentType" : 5126,
            "count" : 898,
            "type" : "VEC3"
        },
        {
            "bufferView" : 7,
            "componentType" : 5126,
            "count" : 898,
            "type" : "VEC2"
        },
        {
            "bufferView" : 8,
            "componentType" : 5126,
            "count" : 898,
            "type" : "VEC2"
        },
        {
            "bufferView" : 9,
            "componentType" : 5123,
            "count" : 921,
            "type" : "SCALAR"
        }
    ],
    "bufferViews" : [
        {
            "buffer" : 0,
            "byteLength" : 3060,
            "byteOffset" : 0
        },
        {
            "buffer" : 0,
            "byteLength" : 3060,
            "byteOffset" : 3060
        },
        {
            "buffer" : 0,
            "byteLength" : 2040,
            "byteOffset" : 6120
        },
        {
            "buffer" : 0,
            "byteLength" : 2040,
            "byteOffset" : 8160
        },
        {
            "buffer" : 0,
            "byteLength" : 522,
            "byteOffset" : 10200
        },
        {
            "buffer" : 0,
            "byteLength" : 10776,
            "byteOffset" : 10724
        },
        {
            "buffer" : 0,
            "byteLength" : 10776,
            "byteOffset" : 21500
        },
        {
            "buffer" : 0,
            "byteLength" : 7184,
            "byteOffset" : 32276
        },
        {
            "buffer" : 0,
            "byteLength" : 7184,
            "byteOffset" : 39460
        },
        {
            "buffer" : 0,
            "byteLength" : 1842,
            "byteOffset" : 46644
        }
    ],
    "samplers" : [
        {
            "magFilter" : 9729,
            "minFilter" : 9987
        }
    ],
    "buffers" : [
        {
            "byteLength" : 48488,
            "uri" : "THorizontal1Connector.bin"
        }
    ]
}
