{
    "asset" : {
        "generator" : "Khronos glTF Blender I/O v3.2.43",
        "version" : "2.0"
    },
    "scene" : 0,
    "scenes" : [
        {
            "name" : "Scene",
            "nodes" : [
                0
            ]
        }
    ],
    "nodes" : [
        {
            "mesh" : 0,
            "name" : "TunnelStraightTransitionBunker1"
        }
    ],
    "materials" : [
        {
            "alphaMode" : "BLEND",
            "doubleSided" : true,
            "name" : "T_Generic_Colors.002",
            "pbrMetallicRoughness" : {
                "baseColorTexture" : {
                    "index" : 0
                },
                "roughnessFactor" : 0.858578622341156
            }
        },
        {
            "alphaMode" : "BLEND",
            "doubleSided" : true,
            "name" : "T_Generic_Colors 1.002",
            "pbrMetallicRoughness" : {
                "baseColorTexture" : {
                    "index" : 1
                },
                "roughnessFactor" : 0.858578622341156
            }
        },
        {
            "doubleSided" : true,
            "name" : "PP_Standard_Material.013",
            "pbrMetallicRoughness" : {
                "baseColorTexture" : {
                    "index" : 2
                },
                "metallicFactor" : 0,
                "roughnessFactor" : 0.5527864098548889
            }
        }
    ],
    "meshes" : [
        {
            "name" : "Scene.057",
            "primitives" : [
                {
                    "attributes" : {
                        "POSITION" : 0,
                        "NORMAL" : 1,
                        "TEXCOORD_0" : 2,
                        "TEXCOORD_1" : 3,
                        "TEXCOORD_2" : 4,
                        "TEXCOORD_3" : 5
                    },
                    "indices" : 6,
                    "material" : 0
                },
                {
                    "attributes" : {
                        "POSITION" : 7,
                        "NORMAL" : 8,
                        "TEXCOORD_0" : 9,
                        "TEXCOORD_1" : 10,
                        "TEXCOORD_2" : 11,
                        "TEXCOORD_3" : 12
                    },
                    "indices" : 13,
                    "material" : 1
                },
                {
                    "attributes" : {
                        "POSITION" : 14,
                        "NORMAL" : 15,
                        "TEXCOORD_0" : 16,
                        "TEXCOORD_1" : 17,
                        "TEXCOORD_2" : 18,
                        "TEXCOORD_3" : 19
                    },
                    "indices" : 20,
                    "material" : 2
                }
            ]
        }
    ],
    "textures" : [
        {
            "sampler" : 0,
            "source" : 0
        },
        {
            "sampler" : 0,
            "source" : 0
        },
        {
            "sampler" : 0,
            "source" : 1
        }
    ],
    "images" : [
        {
            "mimeType" : "image/png",
            "name" : "T_Generic_colors-T_Generic_colors.TGA",
            "uri" : "Textures/T_Generic_colors-T_Generic_colors_TGA.png"
        },
        {
            "mimeType" : "image/png",
            "name" : "PP_Color_Palette",
            "uri" : "Textures/PP_Color_Palette.png"
        }
    ],
    "accessors" : [
        {
            "bufferView" : 0,
            "componentType" : 5126,
            "count" : 305,
            "max" : [
                1.7194745540618896,
                4.025938510894775,
                2.499999523162842
            ],
            "min" : [
                -1.6196904182434082,
                0.8896101117134094,
                -2.5000007152557373
            ],
            "type" : "VEC3"
        },
        {
            "bufferView" : 1,
            "componentType" : 5126,
            "count" : 305,
            "type" : "VEC3"
        },
        {
            "bufferView" : 2,
            "componentType" : 5126,
            "count" : 305,
            "type" : "VEC2"
        },
        {
            "bufferView" : 3,
            "componentType" : 5126,
            "count" : 305,
            "type" : "VEC2"
        },
        {
            "bufferView" : 4,
            "componentType" : 5126,
            "count" : 305,
            "type" : "VEC2"
        },
        {
            "bufferView" : 5,
            "componentType" : 5126,
            "count" : 305,
            "type" : "VEC2"
        },
        {
            "bufferView" : 6,
            "componentType" : 5123,
            "count" : 306,
            "type" : "SCALAR"
        },
        {
            "bufferView" : 7,
            "componentType" : 5126,
            "count" : 36,
            "max" : [
                1.7194740772247314,
                4.025938510894775,
                0.643830418586731
            ],
            "min" : [
                -1.3875837326049805,
                0.9298685789108276,
                0.45341479778289795
            ],
            "type" : "VEC3"
        },
        {
            "bufferView" : 8,
            "componentType" : 5126,
            "count" : 36,
            "type" : "VEC3"
        },
        {
            "bufferView" : 9,
            "componentType" : 5126,
            "count" : 36,
            "type" : "VEC2"
        },
        {
            "bufferView" : 10,
            "componentType" : 5126,
            "count" : 36,
            "type" : "VEC2"
        },
        {
            "bufferView" : 11,
            "componentType" : 5126,
            "count" : 36,
            "type" : "VEC2"
        },
        {
            "bufferView" : 12,
            "componentType" : 5126,
            "count" : 36,
            "type" : "VEC2"
        },
        {
            "bufferView" : 13,
            "componentType" : 5123,
            "count" : 36,
            "type" : "SCALAR"
        },
        {
            "bufferView" : 14,
            "componentType" : 5126,
            "count" : 399,
            "max" : [
                1.9405992031097412,
                4.216641902923584,
                2.5
            ],
            "min" : [
                -1.6240488290786743,
                0.7270100712776184,
                0.4520552158355713
            ],
            "type" : "VEC3"
        },
        {
            "bufferView" : 15,
            "componentType" : 5126,
            "count" : 399,
            "type" : "VEC3"
        },
        {
            "bufferView" : 16,
            "componentType" : 5126,
            "count" : 399,
            "type" : "VEC2"
        },
        {
            "bufferView" : 17,
            "componentType" : 5126,
            "count" : 399,
            "type" : "VEC2"
        },
        {
            "bufferView" : 18,
            "componentType" : 5126,
            "count" : 399,
            "type" : "VEC2"
        },
        {
            "bufferView" : 19,
            "componentType" : 5126,
            "count" : 399,
            "type" : "VEC2"
        },
        {
            "bufferView" : 20,
            "componentType" : 5123,
            "count" : 399,
            "type" : "SCALAR"
        }
    ],
    "bufferViews" : [
        {
            "buffer" : 0,
            "byteLength" : 3660,
            "byteOffset" : 0
        },
        {
            "buffer" : 0,
            "byteLength" : 3660,
            "byteOffset" : 3660
        },
        {
            "buffer" : 0,
            "byteLength" : 2440,
            "byteOffset" : 7320
        },
        {
            "buffer" : 0,
            "byteLength" : 2440,
            "byteOffset" : 9760
        },
        {
            "buffer" : 0,
            "byteLength" : 2440,
            "byteOffset" : 12200
        },
        {
            "buffer" : 0,
            "byteLength" : 2440,
            "byteOffset" : 14640
        },
        {
            "buffer" : 0,
            "byteLength" : 612,
            "byteOffset" : 17080
        },
        {
            "buffer" : 0,
            "byteLength" : 432,
            "byteOffset" : 17692
        },
        {
            "buffer" : 0,
            "byteLength" : 432,
            "byteOffset" : 18124
        },
        {
            "buffer" : 0,
            "byteLength" : 288,
            "byteOffset" : 18556
        },
        {
            "buffer" : 0,
            "byteLength" : 288,
            "byteOffset" : 18844
        },
        {
            "buffer" : 0,
            "byteLength" : 288,
            "byteOffset" : 19132
        },
        {
            "buffer" : 0,
            "byteLength" : 288,
            "byteOffset" : 19420
        },
        {
            "buffer" : 0,
            "byteLength" : 72,
            "byteOffset" : 19708
        },
        {
            "buffer" : 0,
            "byteLength" : 4788,
            "byteOffset" : 19780
        },
        {
            "buffer" : 0,
            "byteLength" : 4788,
            "byteOffset" : 24568
        },
        {
            "buffer" : 0,
            "byteLength" : 3192,
            "byteOffset" : 29356
        },
        {
            "buffer" : 0,
            "byteLength" : 3192,
            "byteOffset" : 32548
        },
        {
            "buffer" : 0,
            "byteLength" : 3192,
            "byteOffset" : 35740
        },
        {
            "buffer" : 0,
            "byteLength" : 3192,
            "byteOffset" : 38932
        },
        {
            "buffer" : 0,
            "byteLength" : 798,
            "byteOffset" : 42124
        }
    ],
    "samplers" : [
        {
            "magFilter" : 9729,
            "minFilter" : 9987
        }
    ],
    "buffers" : [
        {
            "byteLength" : 42924,
            "uri" : "TunnelStraightTransitionBunker1.bin"
        }
    ]
}
