{
    "asset" : {
        "generator" : "Khronos glTF Blender I/O v3.3.32",
        "version" : "2.0"
    },
    "scene" : 0,
    "scenes" : [
        {
            "name" : "Scene",
            "nodes" : [
                0
            ]
        }
    ],
    "nodes" : [
        {
            "mesh" : 0,
            "name" : "TunnelCross1_Col"
        }
    ],
    "meshes" : [
        {
            "name" : "Scene.106",
            "primitives" : [
                {
                    "attributes" : {
                        "POSITION" : 0,
                        "NORMAL" : 1,
                        "TEXCOORD_0" : 2,
                        "TEXCOORD_1" : 3
                    },
                    "indices" : 4
                }
            ]
        }
    ],
    "accessors" : [
        {
            "bufferView" : 0,
            "componentType" : 5126,
            "count" : 2231,
            "max" : [
                3.131699323654175,
                4.9314069747924805,
                3.16910982131958
            ],
            "min" : [
                -3.2199113368988037,
                0.2575712203979492,
                -3.1825006008148193
            ],
            "type" : "VEC3"
        },
        {
            "bufferView" : 1,
            "componentType" : 5126,
            "count" : 2231,
            "type" : "VEC3"
        },
        {
            "bufferView" : 2,
            "componentType" : 5126,
            "count" : 2231,
            "type" : "VEC2"
        },
        {
            "bufferView" : 3,
            "componentType" : 5126,
            "count" : 2231,
            "type" : "VEC2"
        },
        {
            "bufferView" : 4,
            "componentType" : 5123,
            "count" : 2415,
            "type" : "SCALAR"
        }
    ],
    "bufferViews" : [
        {
            "buffer" : 0,
            "byteLength" : 26772,
            "byteOffset" : 0,
            "target" : 34962
        },
        {
            "buffer" : 0,
            "byteLength" : 26772,
            "byteOffset" : 26772,
            "target" : 34962
        },
        {
            "buffer" : 0,
            "byteLength" : 17848,
            "byteOffset" : 53544,
            "target" : 34962
        },
        {
            "buffer" : 0,
            "byteLength" : 17848,
            "byteOffset" : 71392,
            "target" : 34962
        },
        {
            "buffer" : 0,
            "byteLength" : 4830,
            "byteOffset" : 89240,
            "target" : 34963
        }
    ],
    "buffers" : [
        {
            "byteLength" : 94072,
            "uri" : "TunnelCross1_Col.bin"
        }
    ]
}
