{
    "asset" : {
        "generator" : "Khronos glTF Blender I/O v3.3.32",
        "version" : "2.0"
    },
    "extensionsUsed" : [
        "KHR_lights_punctual"
    ],
    "extensionsRequired" : [
        "KHR_lights_punctual"
    ],
    "extensions" : {
        "KHR_lights_punctual" : {
            "lights" : [
                {
                    "color" : [
                        1,
                        0.7634416222572327,
                        0.16504213213920593
                    ],
                    "intensity" : 0.1,
                    "type" : "point",
                    "name" : "Point.042"
                }
            ]
        }
    },
    "scene" : 0,
    "scenes" : [
        {
            "name" : "Scene",
            "nodes" : [
                0,
                1,
                2
            ]
        }
    ],
    "nodes" : [
        {
            "mesh" : 0,
            "name" : "TunnelT1"
        },
        {
            "extensions" : {
                "KHR_lights_punctual" : {
                    "light" : 0
                }
            },
            "name" : "Point.042",
            "rotation" : [
                -0.7071068286895752,
                0,
                0,
                0.7071068286895752
            ],
            "translation" : [
                1.4374819993972778,
                2.2923765182495117,
                0
            ]
        },
        {
            "mesh" : 1,
            "name" : "TunnelLight.016"
        }
    ],
    "materials" : [
        {
            "doubleSided" : true,
            "name" : "Ground",
            "normalTexture" : {
                "index" : 0,
                "scale" : 10
            },
            "pbrMetallicRoughness" : {
                "baseColorTexture" : {
                    "index" : 1
                },
                "metallicFactor" : 0,
                "roughnessFactor" : 0.6863636374473572
            }
        },
        {
            "doubleSided" : true,
            "emissiveFactor" : [
                2,
                2,
                2
            ],
            "emissiveTexture" : {
                "index" : 2
            },
            "name" : "TunnelLight",
            "pbrMetallicRoughness" : {
                "baseColorTexture" : {
                    "index" : 3
                },
                "metallicFactor" : 0,
                "roughnessFactor" : 0.4000000059604645
            }
        }
    ],
    "meshes" : [
        {
            "name" : "Scene.059",
            "primitives" : [
                {
                    "attributes" : {
                        "POSITION" : 0,
                        "NORMAL" : 1,
                        "TEXCOORD_0" : 2,
                        "TEXCOORD_1" : 3
                    },
                    "indices" : 4,
                    "material" : 0
                }
            ]
        },
        {
            "name" : "Cylinder.033",
            "primitives" : [
                {
                    "attributes" : {
                        "POSITION" : 5,
                        "NORMAL" : 6,
                        "TEXCOORD_0" : 7
                    },
                    "indices" : 8,
                    "material" : 1
                }
            ]
        }
    ],
    "textures" : [
        {
            "sampler" : 0,
            "source" : 0
        },
        {
            "sampler" : 0,
            "source" : 1
        },
        {
            "sampler" : 0,
            "source" : 2
        },
        {
            "sampler" : 0,
            "source" : 3
        }
    ],
    "images" : [
        {
            "mimeType" : "image/png",
            "name" : "NormalGroundGroup6",
            "uri" : "Textures/NormalGroundGroup6.png"
        },
        {
            "mimeType" : "image/png",
            "name" : "DiffuseGroundGroup6",
            "uri" : "Textures/DiffuseGroundGroup6.png"
        },
        {
            "mimeType" : "image/png",
            "name" : "TunnelLightEmission",
            "uri" : "Textures/TunnelLightEmission.png"
        },
        {
            "mimeType" : "image/png",
            "name" : "TunnelLightDiffuse",
            "uri" : "Textures/TunnelLightDiffuse.png"
        }
    ],
    "accessors" : [
        {
            "bufferView" : 0,
            "componentType" : 5126,
            "count" : 5889,
            "max" : [
                2.426060199737549,
                4.811062812805176,
                2.9890339374542236
            ],
            "min" : [
                -2.930713653564453,
                0.3727128505706787,
                -3.04255747795105
            ],
            "type" : "VEC3"
        },
        {
            "bufferView" : 1,
            "componentType" : 5126,
            "count" : 5889,
            "type" : "VEC3"
        },
        {
            "bufferView" : 2,
            "componentType" : 5126,
            "count" : 5889,
            "type" : "VEC2"
        },
        {
            "bufferView" : 3,
            "componentType" : 5126,
            "count" : 5889,
            "type" : "VEC2"
        },
        {
            "bufferView" : 4,
            "componentType" : 5123,
            "count" : 5889,
            "type" : "SCALAR"
        },
        {
            "bufferView" : 5,
            "componentType" : 5126,
            "count" : 290,
            "max" : [
                1.6661508083343506,
                2.392376661300659,
                0.15000005066394806
            ],
            "min" : [
                1.5661509037017822,
                2.1923763751983643,
                -0.15000005066394806
            ],
            "type" : "VEC3"
        },
        {
            "bufferView" : 6,
            "componentType" : 5126,
            "count" : 290,
            "type" : "VEC3"
        },
        {
            "bufferView" : 7,
            "componentType" : 5126,
            "count" : 290,
            "type" : "VEC2"
        },
        {
            "bufferView" : 8,
            "componentType" : 5123,
            "count" : 372,
            "type" : "SCALAR"
        }
    ],
    "bufferViews" : [
        {
            "buffer" : 0,
            "byteLength" : 70668,
            "byteOffset" : 0,
            "target" : 34962
        },
        {
            "buffer" : 0,
            "byteLength" : 70668,
            "byteOffset" : 70668,
            "target" : 34962
        },
        {
            "buffer" : 0,
            "byteLength" : 47112,
            "byteOffset" : 141336,
            "target" : 34962
        },
        {
            "buffer" : 0,
            "byteLength" : 47112,
            "byteOffset" : 188448,
            "target" : 34962
        },
        {
            "buffer" : 0,
            "byteLength" : 11778,
            "byteOffset" : 235560,
            "target" : 34963
        },
        {
            "buffer" : 0,
            "byteLength" : 3480,
            "byteOffset" : 247340,
            "target" : 34962
        },
        {
            "buffer" : 0,
            "byteLength" : 3480,
            "byteOffset" : 250820,
            "target" : 34962
        },
        {
            "buffer" : 0,
            "byteLength" : 2320,
            "byteOffset" : 254300,
            "target" : 34962
        },
        {
            "buffer" : 0,
            "byteLength" : 744,
            "byteOffset" : 256620,
            "target" : 34963
        }
    ],
    "samplers" : [
        {
            "magFilter" : 9729,
            "minFilter" : 9987
        }
    ],
    "buffers" : [
        {
            "byteLength" : 257364,
            "uri" : "TunnelT1.bin"
        }
    ]
}
