{
    "asset" : {
        "generator" : "Khronos glTF Blender I/O v3.3.32",
        "version" : "2.0"
    },
    "scene" : 0,
    "scenes" : [
        {
            "name" : "Scene",
            "nodes" : [
                0
            ]
        }
    ],
    "nodes" : [
        {
            "mesh" : 0,
            "name" : "TunnelT1_Col"
        }
    ],
    "meshes" : [
        {
            "name" : "Scene.110",
            "primitives" : [
                {
                    "attributes" : {
                        "POSITION" : 0,
                        "NORMAL" : 1,
                        "TEXCOORD_0" : 2,
                        "TEXCOORD_1" : 3
                    },
                    "indices" : 4
                }
            ]
        }
    ],
    "accessors" : [
        {
            "bufferView" : 0,
            "componentType" : 5126,
            "count" : 5889,
            "max" : [
                2.426060199737549,
                4.811062812805176,
                2.9890339374542236
            ],
            "min" : [
                -2.930713653564453,
                0.3727128505706787,
                -3.04255747795105
            ],
            "type" : "VEC3"
        },
        {
            "bufferView" : 1,
            "componentType" : 5126,
            "count" : 5889,
            "type" : "VEC3"
        },
        {
            "bufferView" : 2,
            "componentType" : 5126,
            "count" : 5889,
            "type" : "VEC2"
        },
        {
            "bufferView" : 3,
            "componentType" : 5126,
            "count" : 5889,
            "type" : "VEC2"
        },
        {
            "bufferView" : 4,
            "componentType" : 5123,
            "count" : 5889,
            "type" : "SCALAR"
        }
    ],
    "bufferViews" : [
        {
            "buffer" : 0,
            "byteLength" : 70668,
            "byteOffset" : 0,
            "target" : 34962
        },
        {
            "buffer" : 0,
            "byteLength" : 70668,
            "byteOffset" : 70668,
            "target" : 34962
        },
        {
            "buffer" : 0,
            "byteLength" : 47112,
            "byteOffset" : 141336,
            "target" : 34962
        },
        {
            "buffer" : 0,
            "byteLength" : 47112,
            "byteOffset" : 188448,
            "target" : 34962
        },
        {
            "buffer" : 0,
            "byteLength" : 11778,
            "byteOffset" : 235560,
            "target" : 34963
        }
    ],
    "buffers" : [
        {
            "byteLength" : 247340,
            "uri" : "TunnelT1_Col.bin"
        }
    ]
}
