{
    "asset" : {
        "generator" : "Khronos glTF Blender I/O v3.2.43",
        "version" : "2.0"
    },
    "scene" : 0,
    "scenes" : [
        {
            "name" : "Scene",
            "nodes" : [
                0
            ]
        }
    ],
    "nodes" : [
        {
            "mesh" : 0,
            "name" : "TunnelT2_Col"
        }
    ],
    "meshes" : [
        {
            "name" : "Scene.062",
            "primitives" : [
                {
                    "attributes" : {
                        "POSITION" : 0,
                        "NORMAL" : 1,
                        "TEXCOORD_0" : 2,
                        "TEXCOORD_1" : 3
                    },
                    "indices" : 4
                }
            ]
        }
    ],
    "accessors" : [
        {
            "bufferView" : 0,
            "componentType" : 5126,
            "count" : 657,
            "max" : [
                2.500002861022949,
                4.406264781951904,
                2.500000476837158
            ],
            "min" : [
                -1.7901688814163208,
                0.7270100712776184,
                -2.500002145767212
            ],
            "type" : "VEC3"
        },
        {
            "bufferView" : 1,
            "componentType" : 5126,
            "count" : 657,
            "type" : "VEC3"
        },
        {
            "bufferView" : 2,
            "componentType" : 5126,
            "count" : 657,
            "type" : "VEC2"
        },
        {
            "bufferView" : 3,
            "componentType" : 5126,
            "count" : 657,
            "type" : "VEC2"
        },
        {
            "bufferView" : 4,
            "componentType" : 5123,
            "count" : 657,
            "type" : "SCALAR"
        }
    ],
    "bufferViews" : [
        {
            "buffer" : 0,
            "byteLength" : 7884,
            "byteOffset" : 0
        },
        {
            "buffer" : 0,
            "byteLength" : 7884,
            "byteOffset" : 7884
        },
        {
            "buffer" : 0,
            "byteLength" : 5256,
            "byteOffset" : 15768
        },
        {
            "buffer" : 0,
            "byteLength" : 5256,
            "byteOffset" : 21024
        },
        {
            "buffer" : 0,
            "byteLength" : 1314,
            "byteOffset" : 26280
        }
    ],
    "buffers" : [
        {
            "byteLength" : 27596,
            "uri" : "TunnelT2_Col.bin"
        }
    ]
}
