{
    "asset" : {
        "generator" : "Khronos glTF Blender I/O v3.2.43",
        "version" : "2.0"
    },
    "scene" : 0,
    "scenes" : [
        {
            "name" : "Scene",
            "nodes" : [
                0
            ]
        }
    ],
    "nodes" : [
        {
            "mesh" : 0,
            "name" : "TunnelT1_Col"
        }
    ],
    "meshes" : [
        {
            "name" : "Scene.060",
            "primitives" : [
                {
                    "attributes" : {
                        "POSITION" : 0,
                        "NORMAL" : 1,
                        "TEXCOORD_0" : 2,
                        "TEXCOORD_1" : 3
                    },
                    "indices" : 4
                }
            ]
        }
    ],
    "accessors" : [
        {
            "bufferView" : 0,
            "componentType" : 5126,
            "count" : 762,
            "max" : [
                1.9405993223190308,
                4.406264781951904,
                2.500000476837158
            ],
            "min" : [
                -2.500000238418579,
                0.7270100712776184,
                -2.500002145767212
            ],
            "type" : "VEC3"
        },
        {
            "bufferView" : 1,
            "componentType" : 5126,
            "count" : 762,
            "type" : "VEC3"
        },
        {
            "bufferView" : 2,
            "componentType" : 5126,
            "count" : 762,
            "type" : "VEC2"
        },
        {
            "bufferView" : 3,
            "componentType" : 5126,
            "count" : 762,
            "type" : "VEC2"
        },
        {
            "bufferView" : 4,
            "componentType" : 5123,
            "count" : 762,
            "type" : "SCALAR"
        }
    ],
    "bufferViews" : [
        {
            "buffer" : 0,
            "byteLength" : 9144,
            "byteOffset" : 0
        },
        {
            "buffer" : 0,
            "byteLength" : 9144,
            "byteOffset" : 9144
        },
        {
            "buffer" : 0,
            "byteLength" : 6096,
            "byteOffset" : 18288
        },
        {
            "buffer" : 0,
            "byteLength" : 6096,
            "byteOffset" : 24384
        },
        {
            "buffer" : 0,
            "byteLength" : 1524,
            "byteOffset" : 30480
        }
    ],
    "buffers" : [
        {
            "byteLength" : 32004,
            "uri" : "TunnelT1_Col.bin"
        }
    ]
}
