{
    "asset" : {
        "generator" : "Khronos glTF Blender I/O v3.3.32",
        "version" : "2.0"
    },
    "extensionsUsed" : [
        "KHR_lights_punctual"
    ],
    "extensionsRequired" : [
        "KHR_lights_punctual"
    ],
    "extensions" : {
        "KHR_lights_punctual" : {
            "lights" : [
                {
                    "color" : [
                        1,
                        0.7634416222572327,
                        0.16504213213920593
                    ],
                    "intensity" : 6,
                    "type" : "point",
                    "name" : "Point.041"
                }
            ]
        }
    },
    "scene" : 0,
    "scenes" : [
        {
            "name" : "Scene",
            "nodes" : [
                0,
                1,
                2
            ]
        }
    ],
    "nodes" : [
        {
            "mesh" : 0,
            "name" : "TunnelStraight1"
        },
        {
            "extensions" : {
                "KHR_lights_punctual" : {
                    "light" : 0
                }
            },
            "name" : "Point.041",
            "rotation" : [
                -0.7071068286895752,
                0,
                0,
                0.7071068286895752
            ],
            "translation" : [
                -1.2138197422027588,
                2.492598295211792,
                0
            ]
        },
        {
            "mesh" : 1,
            "name" : "TunnelLight.015"
        }
    ],
    "materials" : [
        {
            "doubleSided" : true,
            "name" : "Ground",
            "normalTexture" : {
                "index" : 0,
                "scale" : 10
            },
            "pbrMetallicRoughness" : {
                "baseColorTexture" : {
                    "index" : 1
                },
                "metallicFactor" : 0,
                "roughnessFactor" : 0.6863636374473572
            }
        },
        {
            "doubleSided" : true,
            "emissiveFactor" : [
                2,
                2,
                2
            ],
            "emissiveTexture" : {
                "index" : 2
            },
            "name" : "TunnelLight",
            "pbrMetallicRoughness" : {
                "baseColorTexture" : {
                    "index" : 3
                },
                "metallicFactor" : 0,
                "roughnessFactor" : 0.4000000059604645
            }
        }
    ],
    "meshes" : [
        {
            "name" : "Scene.061",
            "primitives" : [
                {
                    "attributes" : {
                        "POSITION" : 0,
                        "NORMAL" : 1,
                        "TEXCOORD_0" : 2,
                        "TEXCOORD_1" : 3
                    },
                    "indices" : 4,
                    "material" : 0
                }
            ]
        },
        {
            "name" : "Cylinder.032",
            "primitives" : [
                {
                    "attributes" : {
                        "POSITION" : 5,
                        "NORMAL" : 6,
                        "TEXCOORD_0" : 7
                    },
                    "indices" : 8,
                    "material" : 1
                }
            ]
        }
    ],
    "textures" : [
        {
            "sampler" : 0,
            "source" : 0
        },
        {
            "sampler" : 0,
            "source" : 1
        },
        {
            "sampler" : 0,
            "source" : 2
        },
        {
            "sampler" : 0,
            "source" : 3
        }
    ],
    "images" : [
        {
            "mimeType" : "image/png",
            "name" : "NormalGroundGroup6",
            "uri" : "Textures/NormalGroundGroup6.png"
        },
        {
            "mimeType" : "image/png",
            "name" : "DiffuseGroundGroup6",
            "uri" : "Textures/DiffuseGroundGroup6.png"
        },
        {
            "mimeType" : "image/png",
            "name" : "TunnelLightEmission",
            "uri" : "Textures/TunnelLightEmission.png"
        },
        {
            "mimeType" : "image/png",
            "name" : "TunnelLightDiffuse",
            "uri" : "Textures/TunnelLightDiffuse.png"
        }
    ],
    "accessors" : [
        {
            "bufferView" : 0,
            "componentType" : 5126,
            "count" : 2823,
            "max" : [
                3.020552158355713,
                5.321342468261719,
                2.500000476837158
            ],
            "min" : [
                -2.590904951095581,
                -0.09134221076965332,
                -2.500002384185791
            ],
            "type" : "VEC3"
        },
        {
            "bufferView" : 1,
            "componentType" : 5126,
            "count" : 2823,
            "type" : "VEC3"
        },
        {
            "bufferView" : 2,
            "componentType" : 5126,
            "count" : 2823,
            "type" : "VEC2"
        },
        {
            "bufferView" : 3,
            "componentType" : 5126,
            "count" : 2823,
            "type" : "VEC2"
        },
        {
            "bufferView" : 4,
            "componentType" : 5123,
            "count" : 2838,
            "type" : "SCALAR"
        },
        {
            "bufferView" : 5,
            "componentType" : 5126,
            "count" : 294,
            "max" : [
                -1.3466036319732666,
                2.5925984382629395,
                0.15000005066394806
            ],
            "min" : [
                -1.446603775024414,
                2.3925981521606445,
                -0.15000005066394806
            ],
            "type" : "VEC3"
        },
        {
            "bufferView" : 6,
            "componentType" : 5126,
            "count" : 294,
            "type" : "VEC3"
        },
        {
            "bufferView" : 7,
            "componentType" : 5126,
            "count" : 294,
            "type" : "VEC2"
        },
        {
            "bufferView" : 8,
            "componentType" : 5123,
            "count" : 372,
            "type" : "SCALAR"
        }
    ],
    "bufferViews" : [
        {
            "buffer" : 0,
            "byteLength" : 33876,
            "byteOffset" : 0,
            "target" : 34962
        },
        {
            "buffer" : 0,
            "byteLength" : 33876,
            "byteOffset" : 33876,
            "target" : 34962
        },
        {
            "buffer" : 0,
            "byteLength" : 22584,
            "byteOffset" : 67752,
            "target" : 34962
        },
        {
            "buffer" : 0,
            "byteLength" : 22584,
            "byteOffset" : 90336,
            "target" : 34962
        },
        {
            "buffer" : 0,
            "byteLength" : 5676,
            "byteOffset" : 112920,
            "target" : 34963
        },
        {
            "buffer" : 0,
            "byteLength" : 3528,
            "byteOffset" : 118596,
            "target" : 34962
        },
        {
            "buffer" : 0,
            "byteLength" : 3528,
            "byteOffset" : 122124,
            "target" : 34962
        },
        {
            "buffer" : 0,
            "byteLength" : 2352,
            "byteOffset" : 125652,
            "target" : 34962
        },
        {
            "buffer" : 0,
            "byteLength" : 744,
            "byteOffset" : 128004,
            "target" : 34963
        }
    ],
    "samplers" : [
        {
            "magFilter" : 9729,
            "minFilter" : 9987
        }
    ],
    "buffers" : [
        {
            "byteLength" : 128748,
            "uri" : "TunnelStraight1.bin"
        }
    ]
}
