{
    "asset" : {
        "generator" : "Khronos glTF Blender I/O v3.2.43",
        "version" : "2.0"
    },
    "scene" : 0,
    "scenes" : [
        {
            "name" : "Scene",
            "nodes" : [
                0
            ]
        }
    ],
    "nodes" : [
        {
            "mesh" : 0,
            "name" : "TVertical3Connector"
        }
    ],
    "materials" : [
        {
            "doubleSided" : true,
            "name" : "PP_Standard_Material.058",
            "pbrMetallicRoughness" : {
                "baseColorTexture" : {
                    "index" : 0
                },
                "metallicFactor" : 0,
                "roughnessFactor" : 0.5527864098548889
            }
        },
        {
            "doubleSided" : true,
            "name" : "PP_Standard_Material.054",
            "pbrMetallicRoughness" : {
                "baseColorTexture" : {
                    "index" : 1
                },
                "metallicFactor" : 0,
                "roughnessFactor" : 0.5527864098548889
            }
        },
        {
            "doubleSided" : true,
            "name" : "T_Generic_Colors.001",
            "pbrMetallicRoughness" : {
                "baseColorTexture" : {
                    "index" : 2
                },
                "roughnessFactor" : 0.858578622341156
            }
        }
    ],
    "meshes" : [
        {
            "name" : "Scene.058",
            "primitives" : [
                {
                    "attributes" : {
                        "POSITION" : 0,
                        "NORMAL" : 1,
                        "TEXCOORD_0" : 2,
                        "TEXCOORD_1" : 3
                    },
                    "indices" : 4,
                    "material" : 0
                },
                {
                    "attributes" : {
                        "POSITION" : 5,
                        "NORMAL" : 6,
                        "TEXCOORD_0" : 7,
                        "TEXCOORD_1" : 8
                    },
                    "indices" : 9,
                    "material" : 1
                },
                {
                    "attributes" : {
                        "POSITION" : 10,
                        "NORMAL" : 11,
                        "TEXCOORD_0" : 12,
                        "TEXCOORD_1" : 13
                    },
                    "indices" : 14,
                    "material" : 2
                }
            ]
        }
    ],
    "textures" : [
        {
            "sampler" : 0,
            "source" : 0
        },
        {
            "sampler" : 0,
            "source" : 0
        },
        {
            "sampler" : 0,
            "source" : 0
        }
    ],
    "images" : [
        {
            "mimeType" : "image/png",
            "name" : "PP_Color_Palette",
            "uri" : "Textures/PP_Color_Palette.png"
        }
    ],
    "accessors" : [
        {
            "bufferView" : 0,
            "componentType" : 5126,
            "count" : 524,
            "max" : [
                2.536268472671509,
                4.913024425506592,
                2.889352798461914
            ],
            "min" : [
                -2.606898069381714,
                -3.0756150408706162e-06,
                -2.500002384185791
            ],
            "type" : "VEC3"
        },
        {
            "bufferView" : 1,
            "componentType" : 5126,
            "count" : 524,
            "type" : "VEC3"
        },
        {
            "bufferView" : 2,
            "componentType" : 5126,
            "count" : 524,
            "type" : "VEC2"
        },
        {
            "bufferView" : 3,
            "componentType" : 5126,
            "count" : 524,
            "type" : "VEC2"
        },
        {
            "bufferView" : 4,
            "componentType" : 5123,
            "count" : 528,
            "type" : "SCALAR"
        },
        {
            "bufferView" : 5,
            "componentType" : 5126,
            "count" : 685,
            "max" : [
                2.2982518672943115,
                5.000000476837158,
                2.8494558334350586
            ],
            "min" : [
                -2.5596086978912354,
                -2.2452236407843884e-06,
                -2.500001907348633
            ],
            "type" : "VEC3"
        },
        {
            "bufferView" : 6,
            "componentType" : 5126,
            "count" : 685,
            "type" : "VEC3"
        },
        {
            "bufferView" : 7,
            "componentType" : 5126,
            "count" : 685,
            "type" : "VEC2"
        },
        {
            "bufferView" : 8,
            "componentType" : 5126,
            "count" : 685,
            "type" : "VEC2"
        },
        {
            "bufferView" : 9,
            "componentType" : 5123,
            "count" : 708,
            "type" : "SCALAR"
        },
        {
            "bufferView" : 10,
            "componentType" : 5126,
            "count" : 936,
            "max" : [
                1.710336685180664,
                4.941680908203125,
                0.9206266403198242
            ],
            "min" : [
                -1.7343993186950684,
                0.21889519691467285,
                -1.2544975280761719
            ],
            "type" : "VEC3"
        },
        {
            "bufferView" : 11,
            "componentType" : 5126,
            "count" : 936,
            "type" : "VEC3"
        },
        {
            "bufferView" : 12,
            "componentType" : 5126,
            "count" : 936,
            "type" : "VEC2"
        },
        {
            "bufferView" : 13,
            "componentType" : 5126,
            "count" : 936,
            "type" : "VEC2"
        },
        {
            "bufferView" : 14,
            "componentType" : 5123,
            "count" : 990,
            "type" : "SCALAR"
        }
    ],
    "bufferViews" : [
        {
            "buffer" : 0,
            "byteLength" : 6288,
            "byteOffset" : 0
        },
        {
            "buffer" : 0,
            "byteLength" : 6288,
            "byteOffset" : 6288
        },
        {
            "buffer" : 0,
            "byteLength" : 4192,
            "byteOffset" : 12576
        },
        {
            "buffer" : 0,
            "byteLength" : 4192,
            "byteOffset" : 16768
        },
        {
            "buffer" : 0,
            "byteLength" : 1056,
            "byteOffset" : 20960
        },
        {
            "buffer" : 0,
            "byteLength" : 8220,
            "byteOffset" : 22016
        },
        {
            "buffer" : 0,
            "byteLength" : 8220,
            "byteOffset" : 30236
        },
        {
            "buffer" : 0,
            "byteLength" : 5480,
            "byteOffset" : 38456
        },
        {
            "buffer" : 0,
            "byteLength" : 5480,
            "byteOffset" : 43936
        },
        {
            "buffer" : 0,
            "byteLength" : 1416,
            "byteOffset" : 49416
        },
        {
            "buffer" : 0,
            "byteLength" : 11232,
            "byteOffset" : 50832
        },
        {
            "buffer" : 0,
            "byteLength" : 11232,
            "byteOffset" : 62064
        },
        {
            "buffer" : 0,
            "byteLength" : 7488,
            "byteOffset" : 73296
        },
        {
            "buffer" : 0,
            "byteLength" : 7488,
            "byteOffset" : 80784
        },
        {
            "buffer" : 0,
            "byteLength" : 1980,
            "byteOffset" : 88272
        }
    ],
    "samplers" : [
        {
            "magFilter" : 9729,
            "minFilter" : 9987
        }
    ],
    "buffers" : [
        {
            "byteLength" : 90252,
            "uri" : "TVertical3Connector.bin"
        }
    ]
}
