{
    "asset" : {
        "generator" : "Khronos glTF Blender I/O v3.2.43",
        "version" : "2.0"
    },
    "scene" : 0,
    "scenes" : [
        {
            "name" : "Scene",
            "nodes" : [
                0
            ]
        }
    ],
    "nodes" : [
        {
            "mesh" : 0,
            "name" : "TVertical2Connector_Col"
        }
    ],
    "meshes" : [
        {
            "name" : "Scene.057",
            "primitives" : [
                {
                    "attributes" : {
                        "POSITION" : 0,
                        "NORMAL" : 1,
                        "TEXCOORD_0" : 2,
                        "TEXCOORD_1" : 3
                    },
                    "indices" : 4
                }
            ]
        }
    ],
    "accessors" : [
        {
            "bufferView" : 0,
            "componentType" : 5126,
            "count" : 479,
            "max" : [
                1.9405993223190308,
                4.406264781951904,
                2.500000476837158
            ],
            "min" : [
                -1.926858901977539,
                -2.537086629672558e-06,
                -2.500002145767212
            ],
            "type" : "VEC3"
        },
        {
            "bufferView" : 1,
            "componentType" : 5126,
            "count" : 479,
            "type" : "VEC3"
        },
        {
            "bufferView" : 2,
            "componentType" : 5126,
            "count" : 479,
            "type" : "VEC2"
        },
        {
            "bufferView" : 3,
            "componentType" : 5126,
            "count" : 479,
            "type" : "VEC2"
        },
        {
            "bufferView" : 4,
            "componentType" : 5123,
            "count" : 798,
            "type" : "SCALAR"
        }
    ],
    "bufferViews" : [
        {
            "buffer" : 0,
            "byteLength" : 5748,
            "byteOffset" : 0
        },
        {
            "buffer" : 0,
            "byteLength" : 5748,
            "byteOffset" : 5748
        },
        {
            "buffer" : 0,
            "byteLength" : 3832,
            "byteOffset" : 11496
        },
        {
            "buffer" : 0,
            "byteLength" : 3832,
            "byteOffset" : 15328
        },
        {
            "buffer" : 0,
            "byteLength" : 1596,
            "byteOffset" : 19160
        }
    ],
    "buffers" : [
        {
            "byteLength" : 20756,
            "uri" : "TVertical2Connector_Col.bin"
        }
    ]
}
