{
    "asset" : {
        "generator" : "Khronos glTF Blender I/O v3.3.32",
        "version" : "2.0"
    },
    "scene" : 0,
    "scenes" : [
        {
            "name" : "Scene",
            "nodes" : [
                0
            ]
        }
    ],
    "nodes" : [
        {
            "mesh" : 0,
            "name" : "TVertical3Connector_Col"
        }
    ],
    "meshes" : [
        {
            "name" : "Scene.147",
            "primitives" : [
                {
                    "attributes" : {
                        "POSITION" : 0,
                        "NORMAL" : 1,
                        "TEXCOORD_0" : 2,
                        "TEXCOORD_1" : 3
                    },
                    "indices" : 4
                }
            ]
        }
    ],
    "accessors" : [
        {
            "bufferView" : 0,
            "componentType" : 5126,
            "count" : 1409,
            "max" : [
                2.536268711090088,
                5.000000953674316,
                2.889352798461914
            ],
            "min" : [
                -2.606898069381714,
                -3.0756150408706162e-06,
                -2.500002384185791
            ],
            "type" : "VEC3"
        },
        {
            "bufferView" : 1,
            "componentType" : 5126,
            "count" : 1409,
            "type" : "VEC3"
        },
        {
            "bufferView" : 2,
            "componentType" : 5126,
            "count" : 1409,
            "type" : "VEC2"
        },
        {
            "bufferView" : 3,
            "componentType" : 5126,
            "count" : 1409,
            "type" : "VEC2"
        },
        {
            "bufferView" : 4,
            "componentType" : 5123,
            "count" : 1464,
            "type" : "SCALAR"
        }
    ],
    "bufferViews" : [
        {
            "buffer" : 0,
            "byteLength" : 16908,
            "byteOffset" : 0,
            "target" : 34962
        },
        {
            "buffer" : 0,
            "byteLength" : 16908,
            "byteOffset" : 16908,
            "target" : 34962
        },
        {
            "buffer" : 0,
            "byteLength" : 11272,
            "byteOffset" : 33816,
            "target" : 34962
        },
        {
            "buffer" : 0,
            "byteLength" : 11272,
            "byteOffset" : 45088,
            "target" : 34962
        },
        {
            "buffer" : 0,
            "byteLength" : 2928,
            "byteOffset" : 56360,
            "target" : 34963
        }
    ],
    "buffers" : [
        {
            "byteLength" : 59288,
            "uri" : "TVertical3Connector_Col.bin"
        }
    ]
}
