{
    "asset" : {
        "generator" : "Khronos glTF Blender I/O v3.3.32",
        "version" : "2.0"
    },
    "scene" : 0,
    "scenes" : [
        {
            "name" : "Scene",
            "nodes" : [
                0
            ]
        }
    ],
    "nodes" : [
        {
            "mesh" : 0,
            "name" : "TVertical1Connector_Col"
        }
    ],
    "meshes" : [
        {
            "name" : "Scene.146",
            "primitives" : [
                {
                    "attributes" : {
                        "POSITION" : 0,
                        "NORMAL" : 1,
                        "TEXCOORD_0" : 2,
                        "TEXCOORD_1" : 3
                    },
                    "indices" : 4
                }
            ]
        }
    ],
    "accessors" : [
        {
            "bufferView" : 0,
            "componentType" : 5126,
            "count" : 1316,
            "max" : [
                2.5086262226104736,
                5.079015731811523,
                2.7103872299194336
            ],
            "min" : [
                -2.5023508071899414,
                0.3796243667602539,
                -2.500002384185791
            ],
            "type" : "VEC3"
        },
        {
            "bufferView" : 1,
            "componentType" : 5126,
            "count" : 1316,
            "type" : "VEC3"
        },
        {
            "bufferView" : 2,
            "componentType" : 5126,
            "count" : 1316,
            "type" : "VEC2"
        },
        {
            "bufferView" : 3,
            "componentType" : 5126,
            "count" : 1316,
            "type" : "VEC2"
        },
        {
            "bufferView" : 4,
            "componentType" : 5123,
            "count" : 1380,
            "type" : "SCALAR"
        }
    ],
    "bufferViews" : [
        {
            "buffer" : 0,
            "byteLength" : 15792,
            "byteOffset" : 0,
            "target" : 34962
        },
        {
            "buffer" : 0,
            "byteLength" : 15792,
            "byteOffset" : 15792,
            "target" : 34962
        },
        {
            "buffer" : 0,
            "byteLength" : 10528,
            "byteOffset" : 31584,
            "target" : 34962
        },
        {
            "buffer" : 0,
            "byteLength" : 10528,
            "byteOffset" : 42112,
            "target" : 34962
        },
        {
            "buffer" : 0,
            "byteLength" : 2760,
            "byteOffset" : 52640,
            "target" : 34963
        }
    ],
    "buffers" : [
        {
            "byteLength" : 55400,
            "uri" : "TVertical1Connector_Col.bin"
        }
    ]
}
