{
    "asset" : {
        "generator" : "Khronos glTF Blender I/O v3.2.43",
        "version" : "2.0"
    },
    "scene" : 0,
    "scenes" : [
        {
            "name" : "Scene",
            "nodes" : [
                0
            ]
        }
    ],
    "nodes" : [
        {
            "mesh" : 0,
            "name" : "WallFloorTunnelEntrance2_Col"
        }
    ],
    "meshes" : [
        {
            "name" : "Scene.062",
            "primitives" : [
                {
                    "attributes" : {
                        "POSITION" : 0,
                        "NORMAL" : 1,
                        "TEXCOORD_0" : 2,
                        "TEXCOORD_1" : 3
                    },
                    "indices" : 4
                }
            ]
        }
    ],
    "accessors" : [
        {
            "bufferView" : 0,
            "componentType" : 5126,
            "count" : 597,
            "max" : [
                2.500013828277588,
                4.999999523162842,
                2.5
            ],
            "min" : [
                -2.500000238418579,
                -1.1920928955078125e-06,
                -1.8363749980926514
            ],
            "type" : "VEC3"
        },
        {
            "bufferView" : 1,
            "componentType" : 5126,
            "count" : 597,
            "type" : "VEC3"
        },
        {
            "bufferView" : 2,
            "componentType" : 5126,
            "count" : 597,
            "type" : "VEC2"
        },
        {
            "bufferView" : 3,
            "componentType" : 5126,
            "count" : 597,
            "type" : "VEC2"
        },
        {
            "bufferView" : 4,
            "componentType" : 5123,
            "count" : 864,
            "type" : "SCALAR"
        }
    ],
    "bufferViews" : [
        {
            "buffer" : 0,
            "byteLength" : 7164,
            "byteOffset" : 0
        },
        {
            "buffer" : 0,
            "byteLength" : 7164,
            "byteOffset" : 7164
        },
        {
            "buffer" : 0,
            "byteLength" : 4776,
            "byteOffset" : 14328
        },
        {
            "buffer" : 0,
            "byteLength" : 4776,
            "byteOffset" : 19104
        },
        {
            "buffer" : 0,
            "byteLength" : 1728,
            "byteOffset" : 23880
        }
    ],
    "buffers" : [
        {
            "byteLength" : 25608,
            "uri" : "WallFloorTunnelEntrance2_Col.bin"
        }
    ]
}
