{
    "asset" : {
        "generator" : "Khronos glTF Blender I/O v3.2.43",
        "version" : "2.0"
    },
    "scene" : 0,
    "scenes" : [
        {
            "name" : "Scene",
            "nodes" : [
                0
            ]
        }
    ],
    "nodes" : [
        {
            "mesh" : 0,
            "name" : "WallFloorInnerCorner_Col"
        }
    ],
    "meshes" : [
        {
            "name" : "Scene.069",
            "primitives" : [
                {
                    "attributes" : {
                        "POSITION" : 0,
                        "NORMAL" : 1,
                        "TEXCOORD_0" : 2,
                        "TEXCOORD_1" : 3
                    },
                    "indices" : 4
                }
            ]
        }
    ],
    "accessors" : [
        {
            "bufferView" : 0,
            "componentType" : 5126,
            "count" : 237,
            "max" : [
                2.5,
                4.999999046325684,
                2.5
            ],
            "min" : [
                -2.5,
                0.30606377124786377,
                -2.500000476837158
            ],
            "type" : "VEC3"
        },
        {
            "bufferView" : 1,
            "componentType" : 5126,
            "count" : 237,
            "type" : "VEC3"
        },
        {
            "bufferView" : 2,
            "componentType" : 5126,
            "count" : 237,
            "type" : "VEC2"
        },
        {
            "bufferView" : 3,
            "componentType" : 5126,
            "count" : 237,
            "type" : "VEC2"
        },
        {
            "bufferView" : 4,
            "componentType" : 5123,
            "count" : 285,
            "type" : "SCALAR"
        }
    ],
    "bufferViews" : [
        {
            "buffer" : 0,
            "byteLength" : 2844,
            "byteOffset" : 0
        },
        {
            "buffer" : 0,
            "byteLength" : 2844,
            "byteOffset" : 2844
        },
        {
            "buffer" : 0,
            "byteLength" : 1896,
            "byteOffset" : 5688
        },
        {
            "buffer" : 0,
            "byteLength" : 1896,
            "byteOffset" : 7584
        },
        {
            "buffer" : 0,
            "byteLength" : 570,
            "byteOffset" : 9480
        }
    ],
    "buffers" : [
        {
            "byteLength" : 10052,
            "uri" : "WallFloorInnerCorner_Col.bin"
        }
    ]
}
