{
    "asset" : {
        "generator" : "Khronos glTF Blender I/O v3.3.32",
        "version" : "2.0"
    },
    "scene" : 0,
    "scenes" : [
        {
            "name" : "Scene",
            "nodes" : [
                0
            ]
        }
    ],
    "nodes" : [
        {
            "mesh" : 0,
            "name" : "Wall1_Col"
        }
    ],
    "meshes" : [
        {
            "name" : "Scene.072",
            "primitives" : [
                {
                    "attributes" : {
                        "POSITION" : 0,
                        "NORMAL" : 1,
                        "TEXCOORD_0" : 2,
                        "TEXCOORD_1" : 3
                    },
                    "indices" : 4
                }
            ]
        }
    ],
    "accessors" : [
        {
            "bufferView" : 0,
            "componentType" : 5126,
            "count" : 2614,
            "max" : [
                2.5000059604644775,
                5,
                -1.2127857208251953
            ],
            "min" : [
                -2.5,
                -0.0023530907928943634,
                -2.756521701812744
            ],
            "type" : "VEC3"
        },
        {
            "bufferView" : 1,
            "componentType" : 5126,
            "count" : 2614,
            "type" : "VEC3"
        },
        {
            "bufferView" : 2,
            "componentType" : 5126,
            "count" : 2614,
            "type" : "VEC2"
        },
        {
            "bufferView" : 3,
            "componentType" : 5126,
            "count" : 2614,
            "type" : "VEC2"
        },
        {
            "bufferView" : 4,
            "componentType" : 5123,
            "count" : 2718,
            "type" : "SCALAR"
        }
    ],
    "bufferViews" : [
        {
            "buffer" : 0,
            "byteLength" : 31368,
            "byteOffset" : 0,
            "target" : 34962
        },
        {
            "buffer" : 0,
            "byteLength" : 31368,
            "byteOffset" : 31368,
            "target" : 34962
        },
        {
            "buffer" : 0,
            "byteLength" : 20912,
            "byteOffset" : 62736,
            "target" : 34962
        },
        {
            "buffer" : 0,
            "byteLength" : 20912,
            "byteOffset" : 83648,
            "target" : 34962
        },
        {
            "buffer" : 0,
            "byteLength" : 5436,
            "byteOffset" : 104560,
            "target" : 34963
        }
    ],
    "buffers" : [
        {
            "byteLength" : 109996,
            "uri" : "Wall1_Col.bin"
        }
    ]
}
