{
    "asset" : {
        "generator" : "Khronos glTF Blender I/O v3.3.32",
        "version" : "2.0"
    },
    "scene" : 0,
    "scenes" : [
        {
            "name" : "Scene",
            "nodes" : [
                0
            ]
        }
    ],
    "nodes" : [
        {
            "mesh" : 0,
            "name" : "WallFloorTunnelEntrance3_Col"
        }
    ],
    "meshes" : [
        {
            "name" : "Scene.131",
            "primitives" : [
                {
                    "attributes" : {
                        "POSITION" : 0,
                        "NORMAL" : 1,
                        "TEXCOORD_0" : 2,
                        "TEXCOORD_1" : 3
                    },
                    "indices" : 4
                }
            ]
        }
    ],
    "accessors" : [
        {
            "bufferView" : 0,
            "componentType" : 5126,
            "count" : 1449,
            "max" : [
                2.544839859008789,
                4.999999523162842,
                2.5
            ],
            "min" : [
                -2.5,
                -0.2531049847602844,
                -2.5000009536743164
            ],
            "type" : "VEC3"
        },
        {
            "bufferView" : 1,
            "componentType" : 5126,
            "count" : 1449,
            "type" : "VEC3"
        },
        {
            "bufferView" : 2,
            "componentType" : 5126,
            "count" : 1449,
            "type" : "VEC2"
        },
        {
            "bufferView" : 3,
            "componentType" : 5126,
            "count" : 1449,
            "type" : "VEC2"
        },
        {
            "bufferView" : 4,
            "componentType" : 5123,
            "count" : 1518,
            "type" : "SCALAR"
        }
    ],
    "bufferViews" : [
        {
            "buffer" : 0,
            "byteLength" : 17388,
            "byteOffset" : 0,
            "target" : 34962
        },
        {
            "buffer" : 0,
            "byteLength" : 17388,
            "byteOffset" : 17388,
            "target" : 34962
        },
        {
            "buffer" : 0,
            "byteLength" : 11592,
            "byteOffset" : 34776,
            "target" : 34962
        },
        {
            "buffer" : 0,
            "byteLength" : 11592,
            "byteOffset" : 46368,
            "target" : 34962
        },
        {
            "buffer" : 0,
            "byteLength" : 3036,
            "byteOffset" : 57960,
            "target" : 34963
        }
    ],
    "buffers" : [
        {
            "byteLength" : 60996,
            "uri" : "WallFloorTunnelEntrance3_Col.bin"
        }
    ]
}
