{
    "asset" : {
        "generator" : "Khronos glTF Blender I/O v3.3.32",
        "version" : "2.0"
    },
    "scene" : 0,
    "scenes" : [
        {
            "name" : "Scene",
            "nodes" : [
                0
            ]
        }
    ],
    "nodes" : [
        {
            "mesh" : 0,
            "name" : "WallFloorInnerCorner_Col"
        }
    ],
    "meshes" : [
        {
            "name" : "Scene.081",
            "primitives" : [
                {
                    "attributes" : {
                        "POSITION" : 0,
                        "NORMAL" : 1,
                        "TEXCOORD_0" : 2,
                        "TEXCOORD_1" : 3
                    },
                    "indices" : 4
                }
            ]
        }
    ],
    "accessors" : [
        {
            "bufferView" : 0,
            "componentType" : 5126,
            "count" : 2084,
            "max" : [
                2.5,
                5.030759811401367,
                2.5
            ],
            "min" : [
                -2.5,
                -0.4785134792327881,
                -2.5175564289093018
            ],
            "type" : "VEC3"
        },
        {
            "bufferView" : 1,
            "componentType" : 5126,
            "count" : 2084,
            "type" : "VEC3"
        },
        {
            "bufferView" : 2,
            "componentType" : 5126,
            "count" : 2084,
            "type" : "VEC2"
        },
        {
            "bufferView" : 3,
            "componentType" : 5126,
            "count" : 2084,
            "type" : "VEC2"
        },
        {
            "bufferView" : 4,
            "componentType" : 5123,
            "count" : 2157,
            "type" : "SCALAR"
        }
    ],
    "bufferViews" : [
        {
            "buffer" : 0,
            "byteLength" : 25008,
            "byteOffset" : 0,
            "target" : 34962
        },
        {
            "buffer" : 0,
            "byteLength" : 25008,
            "byteOffset" : 25008,
            "target" : 34962
        },
        {
            "buffer" : 0,
            "byteLength" : 16672,
            "byteOffset" : 50016,
            "target" : 34962
        },
        {
            "buffer" : 0,
            "byteLength" : 16672,
            "byteOffset" : 66688,
            "target" : 34962
        },
        {
            "buffer" : 0,
            "byteLength" : 4314,
            "byteOffset" : 83360,
            "target" : 34963
        }
    ],
    "buffers" : [
        {
            "byteLength" : 87676,
            "uri" : "WallFloorInnerCorner_Col.bin"
        }
    ]
}
