{
    "asset" : {
        "generator" : "Khronos glTF Blender I/O v3.2.43",
        "version" : "2.0"
    },
    "scene" : 0,
    "scenes" : [
        {
            "name" : "Scene",
            "nodes" : [
                0
            ]
        }
    ],
    "nodes" : [
        {
            "mesh" : 0,
            "name" : "WallRoof1Replacer2_Col"
        }
    ],
    "meshes" : [
        {
            "name" : "Scene.070",
            "primitives" : [
                {
                    "attributes" : {
                        "POSITION" : 0,
                        "NORMAL" : 1,
                        "TEXCOORD_0" : 2,
                        "TEXCOORD_1" : 3
                    },
                    "indices" : 4
                }
            ]
        }
    ],
    "accessors" : [
        {
            "bufferView" : 0,
            "componentType" : 5126,
            "count" : 403,
            "max" : [
                2.5000007152557373,
                4.700010299682617,
                2.5
            ],
            "min" : [
                -2.5,
                0,
                -2.5000007152557373
            ],
            "type" : "VEC3"
        },
        {
            "bufferView" : 1,
            "componentType" : 5126,
            "count" : 403,
            "type" : "VEC3"
        },
        {
            "bufferView" : 2,
            "componentType" : 5126,
            "count" : 403,
            "type" : "VEC2"
        },
        {
            "bufferView" : 3,
            "componentType" : 5126,
            "count" : 403,
            "type" : "VEC2"
        },
        {
            "bufferView" : 4,
            "componentType" : 5123,
            "count" : 600,
            "type" : "SCALAR"
        }
    ],
    "bufferViews" : [
        {
            "buffer" : 0,
            "byteLength" : 4836,
            "byteOffset" : 0
        },
        {
            "buffer" : 0,
            "byteLength" : 4836,
            "byteOffset" : 4836
        },
        {
            "buffer" : 0,
            "byteLength" : 3224,
            "byteOffset" : 9672
        },
        {
            "buffer" : 0,
            "byteLength" : 3224,
            "byteOffset" : 12896
        },
        {
            "buffer" : 0,
            "byteLength" : 1200,
            "byteOffset" : 16120
        }
    ],
    "buffers" : [
        {
            "byteLength" : 17320,
            "uri" : "WallRoof1Replacer2_Col.bin"
        }
    ]
}
