{
    "asset" : {
        "generator" : "Khronos glTF Blender I/O v3.3.32",
        "version" : "2.0"
    },
    "scene" : 0,
    "scenes" : [
        {
            "name" : "Scene",
            "nodes" : [
                0
            ]
        }
    ],
    "nodes" : [
        {
            "mesh" : 0,
            "name" : "WallShelf1_Col"
        }
    ],
    "meshes" : [
        {
            "name" : "Scene.118",
            "primitives" : [
                {
                    "attributes" : {
                        "POSITION" : 0,
                        "NORMAL" : 1,
                        "TEXCOORD_0" : 2,
                        "TEXCOORD_1" : 3
                    },
                    "indices" : 4
                }
            ]
        }
    ],
    "accessors" : [
        {
            "bufferView" : 0,
            "componentType" : 5126,
            "count" : 761,
            "max" : [
                2.5000059604644775,
                5,
                2.5
            ],
            "min" : [
                -2.5,
                -0.0023530907928943634,
                -1.7256702184677124
            ],
            "type" : "VEC3"
        },
        {
            "bufferView" : 1,
            "componentType" : 5126,
            "count" : 761,
            "type" : "VEC3"
        },
        {
            "bufferView" : 2,
            "componentType" : 5126,
            "count" : 761,
            "type" : "VEC2"
        },
        {
            "bufferView" : 3,
            "componentType" : 5126,
            "count" : 761,
            "type" : "VEC2"
        },
        {
            "bufferView" : 4,
            "componentType" : 5123,
            "count" : 810,
            "type" : "SCALAR"
        }
    ],
    "bufferViews" : [
        {
            "buffer" : 0,
            "byteLength" : 9132,
            "byteOffset" : 0,
            "target" : 34962
        },
        {
            "buffer" : 0,
            "byteLength" : 9132,
            "byteOffset" : 9132,
            "target" : 34962
        },
        {
            "buffer" : 0,
            "byteLength" : 6088,
            "byteOffset" : 18264,
            "target" : 34962
        },
        {
            "buffer" : 0,
            "byteLength" : 6088,
            "byteOffset" : 24352,
            "target" : 34962
        },
        {
            "buffer" : 0,
            "byteLength" : 1620,
            "byteOffset" : 30440,
            "target" : 34963
        }
    ],
    "buffers" : [
        {
            "byteLength" : 32060,
            "uri" : "WallShelf1_Col.bin"
        }
    ]
}
