{
    "asset" : {
        "generator" : "Khronos glTF Blender I/O v3.2.43",
        "version" : "2.0"
    },
    "scene" : 0,
    "scenes" : [
        {
            "name" : "Scene",
            "nodes" : [
                0
            ]
        }
    ],
    "nodes" : [
        {
            "mesh" : 0,
            "name" : "WallShelfEnd3_Col"
        }
    ],
    "meshes" : [
        {
            "name" : "Scene.085",
            "primitives" : [
                {
                    "attributes" : {
                        "POSITION" : 0,
                        "NORMAL" : 1,
                        "TEXCOORD_0" : 2,
                        "TEXCOORD_1" : 3
                    },
                    "indices" : 4
                }
            ]
        }
    ],
    "accessors" : [
        {
            "bufferView" : 0,
            "componentType" : 5126,
            "count" : 267,
            "max" : [
                2.5000059604644775,
                5,
                2.5
            ],
            "min" : [
                -2.5,
                -0.0023530907928943634,
                -1.6286284923553467
            ],
            "type" : "VEC3"
        },
        {
            "bufferView" : 1,
            "componentType" : 5126,
            "count" : 267,
            "type" : "VEC3"
        },
        {
            "bufferView" : 2,
            "componentType" : 5126,
            "count" : 267,
            "type" : "VEC2"
        },
        {
            "bufferView" : 3,
            "componentType" : 5126,
            "count" : 267,
            "type" : "VEC2"
        },
        {
            "bufferView" : 4,
            "componentType" : 5123,
            "count" : 462,
            "type" : "SCALAR"
        }
    ],
    "bufferViews" : [
        {
            "buffer" : 0,
            "byteLength" : 3204,
            "byteOffset" : 0
        },
        {
            "buffer" : 0,
            "byteLength" : 3204,
            "byteOffset" : 3204
        },
        {
            "buffer" : 0,
            "byteLength" : 2136,
            "byteOffset" : 6408
        },
        {
            "buffer" : 0,
            "byteLength" : 2136,
            "byteOffset" : 8544
        },
        {
            "buffer" : 0,
            "byteLength" : 924,
            "byteOffset" : 10680
        }
    ],
    "buffers" : [
        {
            "byteLength" : 11604,
            "uri" : "WallShelfEnd3_Col.bin"
        }
    ]
}
