{
    "asset" : {
        "generator" : "Khronos glTF Blender I/O v3.2.43",
        "version" : "2.0"
    },
    "scene" : 0,
    "scenes" : [
        {
            "name" : "Scene",
            "nodes" : [
                0
            ]
        }
    ],
    "nodes" : [
        {
            "mesh" : 0,
            "name" : "WallShelf1_Col"
        }
    ],
    "meshes" : [
        {
            "name" : "Scene.079",
            "primitives" : [
                {
                    "attributes" : {
                        "POSITION" : 0,
                        "NORMAL" : 1,
                        "TEXCOORD_0" : 2,
                        "TEXCOORD_1" : 3
                    },
                    "indices" : 4
                }
            ]
        }
    ],
    "accessors" : [
        {
            "bufferView" : 0,
            "componentType" : 5126,
            "count" : 379,
            "max" : [
                2.5000059604644775,
                5,
                2.5
            ],
            "min" : [
                -2.5,
                -0.0023530907928943634,
                -1.6610510349273682
            ],
            "type" : "VEC3"
        },
        {
            "bufferView" : 1,
            "componentType" : 5126,
            "count" : 379,
            "type" : "VEC3"
        },
        {
            "bufferView" : 2,
            "componentType" : 5126,
            "count" : 379,
            "type" : "VEC2"
        },
        {
            "bufferView" : 3,
            "componentType" : 5126,
            "count" : 379,
            "type" : "VEC2"
        },
        {
            "bufferView" : 4,
            "componentType" : 5123,
            "count" : 630,
            "type" : "SCALAR"
        }
    ],
    "bufferViews" : [
        {
            "buffer" : 0,
            "byteLength" : 4548,
            "byteOffset" : 0
        },
        {
            "buffer" : 0,
            "byteLength" : 4548,
            "byteOffset" : 4548
        },
        {
            "buffer" : 0,
            "byteLength" : 3032,
            "byteOffset" : 9096
        },
        {
            "buffer" : 0,
            "byteLength" : 3032,
            "byteOffset" : 12128
        },
        {
            "buffer" : 0,
            "byteLength" : 1260,
            "byteOffset" : 15160
        }
    ],
    "buffers" : [
        {
            "byteLength" : 16420,
            "uri" : "WallShelf1_Col.bin"
        }
    ]
}
