{
    "asset" : {
        "generator" : "Khronos glTF Blender I/O v3.3.32",
        "version" : "2.0"
    },
    "scene" : 0,
    "scenes" : [
        {
            "name" : "Scene",
            "nodes" : [
                0
            ]
        }
    ],
    "nodes" : [
        {
            "mesh" : 0,
            "name" : "WallToRoofCorner1"
        }
    ],
    "materials" : [
        {
            "doubleSided" : true,
            "name" : "Ground",
            "normalTexture" : {
                "index" : 0,
                "scale" : 10
            },
            "pbrMetallicRoughness" : {
                "baseColorTexture" : {
                    "index" : 1
                },
                "metallicFactor" : 0,
                "roughnessFactor" : 0.6863636374473572
            }
        }
    ],
    "meshes" : [
        {
            "name" : "Scene.108",
            "primitives" : [
                {
                    "attributes" : {
                        "POSITION" : 0,
                        "NORMAL" : 1,
                        "TEXCOORD_0" : 2,
                        "TEXCOORD_1" : 3
                    },
                    "indices" : 4,
                    "material" : 0
                }
            ]
        }
    ],
    "textures" : [
        {
            "sampler" : 0,
            "source" : 0
        },
        {
            "sampler" : 0,
            "source" : 1
        }
    ],
    "images" : [
        {
            "mimeType" : "image/png",
            "name" : "NormalGroundGroup3",
            "uri" : "Textures/NormalGroundGroup3.png"
        },
        {
            "mimeType" : "image/png",
            "name" : "DiffuseGroundGroup3",
            "uri" : "Textures/DiffuseGroundGroup3.png"
        }
    ],
    "accessors" : [
        {
            "bufferView" : 0,
            "componentType" : 5126,
            "count" : 688,
            "max" : [
                2.498875617980957,
                5.000000953674316,
                2.610856056213379
            ],
            "min" : [
                -2.4999988079071045,
                -0.002353495452553034,
                -2.626753091812134
            ],
            "type" : "VEC3"
        },
        {
            "bufferView" : 1,
            "componentType" : 5126,
            "count" : 688,
            "type" : "VEC3"
        },
        {
            "bufferView" : 2,
            "componentType" : 5126,
            "count" : 688,
            "type" : "VEC2"
        },
        {
            "bufferView" : 3,
            "componentType" : 5126,
            "count" : 688,
            "type" : "VEC2"
        },
        {
            "bufferView" : 4,
            "componentType" : 5123,
            "count" : 723,
            "type" : "SCALAR"
        }
    ],
    "bufferViews" : [
        {
            "buffer" : 0,
            "byteLength" : 8256,
            "byteOffset" : 0,
            "target" : 34962
        },
        {
            "buffer" : 0,
            "byteLength" : 8256,
            "byteOffset" : 8256,
            "target" : 34962
        },
        {
            "buffer" : 0,
            "byteLength" : 5504,
            "byteOffset" : 16512,
            "target" : 34962
        },
        {
            "buffer" : 0,
            "byteLength" : 5504,
            "byteOffset" : 22016,
            "target" : 34962
        },
        {
            "buffer" : 0,
            "byteLength" : 1446,
            "byteOffset" : 27520,
            "target" : 34963
        }
    ],
    "samplers" : [
        {
            "magFilter" : 9729,
            "minFilter" : 9987
        }
    ],
    "buffers" : [
        {
            "byteLength" : 28968,
            "uri" : "WallToRoofCorner1.bin"
        }
    ]
}
