{
    "asset" : {
        "generator" : "Khronos glTF Blender I/O v3.2.43",
        "version" : "2.0"
    },
    "scene" : 0,
    "scenes" : [
        {
            "name" : "Scene",
            "nodes" : [
                0
            ]
        }
    ],
    "nodes" : [
        {
            "mesh" : 0,
            "name" : "WallRoof1_Col"
        }
    ],
    "meshes" : [
        {
            "name" : "Scene.075",
            "primitives" : [
                {
                    "attributes" : {
                        "POSITION" : 0,
                        "NORMAL" : 1,
                        "TEXCOORD_0" : 2,
                        "TEXCOORD_1" : 3
                    },
                    "indices" : 4
                }
            ]
        }
    ],
    "accessors" : [
        {
            "bufferView" : 0,
            "componentType" : 5126,
            "count" : 240,
            "max" : [
                2.5000007152557373,
                4.700010299682617,
                2.5
            ],
            "min" : [
                -2.5,
                0,
                -1.7325481176376343
            ],
            "type" : "VEC3"
        },
        {
            "bufferView" : 1,
            "componentType" : 5126,
            "count" : 240,
            "type" : "VEC3"
        },
        {
            "bufferView" : 2,
            "componentType" : 5126,
            "count" : 240,
            "type" : "VEC2"
        },
        {
            "bufferView" : 3,
            "componentType" : 5126,
            "count" : 240,
            "type" : "VEC2"
        },
        {
            "bufferView" : 4,
            "componentType" : 5123,
            "count" : 294,
            "type" : "SCALAR"
        }
    ],
    "bufferViews" : [
        {
            "buffer" : 0,
            "byteLength" : 2880,
            "byteOffset" : 0
        },
        {
            "buffer" : 0,
            "byteLength" : 2880,
            "byteOffset" : 2880
        },
        {
            "buffer" : 0,
            "byteLength" : 1920,
            "byteOffset" : 5760
        },
        {
            "buffer" : 0,
            "byteLength" : 1920,
            "byteOffset" : 7680
        },
        {
            "buffer" : 0,
            "byteLength" : 588,
            "byteOffset" : 9600
        }
    ],
    "buffers" : [
        {
            "byteLength" : 10188,
            "uri" : "WallRoof1_Col.bin"
        }
    ]
}
