{
    "asset" : {
        "generator" : "Khronos glTF Blender I/O v3.3.32",
        "version" : "2.0"
    },
    "scene" : 0,
    "scenes" : [
        {
            "name" : "Scene",
            "nodes" : [
                0
            ]
        }
    ],
    "nodes" : [
        {
            "mesh" : 0,
            "name" : "WallShelfEnd1_Col"
        }
    ],
    "meshes" : [
        {
            "name" : "Scene.119",
            "primitives" : [
                {
                    "attributes" : {
                        "POSITION" : 0,
                        "NORMAL" : 1,
                        "TEXCOORD_0" : 2,
                        "TEXCOORD_1" : 3
                    },
                    "indices" : 4
                }
            ]
        }
    ],
    "accessors" : [
        {
            "bufferView" : 0,
            "componentType" : 5126,
            "count" : 601,
            "max" : [
                2.5000059604644775,
                5,
                2.4986629486083984
            ],
            "min" : [
                -2.5,
                -0.0023530907928943634,
                -1.7256702184677124
            ],
            "type" : "VEC3"
        },
        {
            "bufferView" : 1,
            "componentType" : 5126,
            "count" : 601,
            "type" : "VEC3"
        },
        {
            "bufferView" : 2,
            "componentType" : 5126,
            "count" : 601,
            "type" : "VEC2"
        },
        {
            "bufferView" : 3,
            "componentType" : 5126,
            "count" : 601,
            "type" : "VEC2"
        },
        {
            "bufferView" : 4,
            "componentType" : 5123,
            "count" : 633,
            "type" : "SCALAR"
        }
    ],
    "bufferViews" : [
        {
            "buffer" : 0,
            "byteLength" : 7212,
            "byteOffset" : 0,
            "target" : 34962
        },
        {
            "buffer" : 0,
            "byteLength" : 7212,
            "byteOffset" : 7212,
            "target" : 34962
        },
        {
            "buffer" : 0,
            "byteLength" : 4808,
            "byteOffset" : 14424,
            "target" : 34962
        },
        {
            "buffer" : 0,
            "byteLength" : 4808,
            "byteOffset" : 19232,
            "target" : 34962
        },
        {
            "buffer" : 0,
            "byteLength" : 1266,
            "byteOffset" : 24040,
            "target" : 34963
        }
    ],
    "buffers" : [
        {
            "byteLength" : 25308,
            "uri" : "WallShelfEnd1_Col.bin"
        }
    ]
}
