{
    "asset" : {
        "generator" : "Khronos glTF Blender I/O v3.2.43",
        "version" : "2.0"
    },
    "scene" : 0,
    "scenes" : [
        {
            "name" : "Scene",
            "nodes" : [
                7
            ]
        }
    ],
    "nodes" : [
        {
            "mesh" : 0,
            "name" : "pCube6"
        },
        {
            "mesh" : 1,
            "name" : "pCube7"
        },
        {
            "mesh" : 2,
            "name" : "pCube8"
        },
        {
            "children" : [
                0,
                1,
                2
            ],
            "name" : "body"
        },
        {
            "mesh" : 3,
            "name" : "pCube16"
        },
        {
            "mesh" : 4,
            "name" : "pCube17"
        },
        {
            "mesh" : 5,
            "name" : "pCylinder6"
        },
        {
            "children" : [
                3,
                4,
                5,
                6
            ],
            "name" : "bot"
        }
    ],
    "materials" : [
        {
            "doubleSided" : true,
            "emissiveFactor" : [
                1,
                1,
                1
            ],
            "emissiveTexture" : {
                "index" : 0
            },
            "name" : "lambert1",
            "pbrMetallicRoughness" : {
                "baseColorTexture" : {
                    "index" : 1
                },
                "metallicRoughnessTexture" : {
                    "index" : 2
                }
            }
        }
    ],
    "meshes" : [
        {
            "name" : "Mesh.001",
            "primitives" : [
                {
                    "attributes" : {
                        "POSITION" : 0,
                        "NORMAL" : 1,
                        "TEXCOORD_0" : 2
                    },
                    "indices" : 3,
                    "material" : 0
                }
            ]
        },
        {
            "name" : "Mesh.002",
            "primitives" : [
                {
                    "attributes" : {
                        "POSITION" : 4,
                        "NORMAL" : 5,
                        "TEXCOORD_0" : 6
                    },
                    "indices" : 7,
                    "material" : 0
                }
            ]
        },
        {
            "name" : "Mesh.003",
            "primitives" : [
                {
                    "attributes" : {
                        "POSITION" : 8,
                        "NORMAL" : 9,
                        "TEXCOORD_0" : 10
                    },
                    "indices" : 11,
                    "material" : 0
                }
            ]
        },
        {
            "name" : "Mesh.004",
            "primitives" : [
                {
                    "attributes" : {
                        "POSITION" : 12,
                        "NORMAL" : 13,
                        "TEXCOORD_0" : 14
                    },
                    "indices" : 15,
                    "material" : 0
                }
            ]
        },
        {
            "name" : "Mesh.005",
            "primitives" : [
                {
                    "attributes" : {
                        "POSITION" : 16,
                        "NORMAL" : 17,
                        "TEXCOORD_0" : 18
                    },
                    "indices" : 19,
                    "material" : 0
                }
            ]
        },
        {
            "name" : "Mesh",
            "primitives" : [
                {
                    "attributes" : {
                        "POSITION" : 20,
                        "NORMAL" : 21,
                        "TEXCOORD_0" : 22
                    },
                    "indices" : 23,
                    "material" : 0
                }
            ]
        }
    ],
    "textures" : [
        {
            "sampler" : 0,
            "source" : 0
        },
        {
            "sampler" : 0,
            "source" : 1
        },
        {
            "sampler" : 0,
            "source" : 2
        }
    ],
    "images" : [
        {
            "bufferView" : 4,
            "mimeType" : "image/png",
            "name" : "T_lambert1_Emissive"
        },
        {
            "bufferView" : 5,
            "mimeType" : "image/png",
            "name" : "T_lambert1_BaseColor"
        },
        {
            "bufferView" : 6,
            "mimeType" : "image/png",
            "name" : "T_lambert1_Metallic_Roughness"
        }
    ],
    "accessors" : [
        {
            "bufferView" : 0,
            "componentType" : 5126,
            "count" : 64,
            "max" : [
                0.04565415903925896,
                0.5271776914596558,
                0.13924969732761383
            ],
            "min" : [
                -0.04565415903925896,
                0.38675394654273987,
                0.04794134572148323
            ],
            "type" : "VEC3"
        },
        {
            "bufferView" : 1,
            "componentType" : 5126,
            "count" : 64,
            "type" : "VEC3"
        },
        {
            "bufferView" : 2,
            "componentType" : 5126,
            "count" : 64,
            "type" : "VEC2"
        },
        {
            "bufferView" : 3,
            "componentType" : 5123,
            "count" : 90,
            "type" : "SCALAR"
        },
        {
            "bufferView" : 7,
            "componentType" : 5126,
            "count" : 210,
            "max" : [
                0.11381767690181732,
                0.5798327922821045,
                0.1339929699897766
            ],
            "min" : [
                -0.11381767690181732,
                0.36467719078063965,
                -0.17367753386497498
            ],
            "type" : "VEC3"
        },
        {
            "bufferView" : 8,
            "componentType" : 5126,
            "count" : 210,
            "type" : "VEC3"
        },
        {
            "bufferView" : 9,
            "componentType" : 5126,
            "count" : 210,
            "type" : "VEC2"
        },
        {
            "bufferView" : 10,
            "componentType" : 5123,
            "count" : 444,
            "type" : "SCALAR"
        },
        {
            "bufferView" : 11,
            "componentType" : 5126,
            "count" : 216,
            "max" : [
                0.16078752279281616,
                0.711861789226532,
                -0.12491440027952194
            ],
            "min" : [
                -0.16078752279281616,
                0.33498096466064453,
                -0.4405321478843689
            ],
            "type" : "VEC3"
        },
        {
            "bufferView" : 12,
            "componentType" : 5126,
            "count" : 216,
            "type" : "VEC3"
        },
        {
            "bufferView" : 13,
            "componentType" : 5126,
            "count" : 216,
            "type" : "VEC2"
        },
        {
            "bufferView" : 14,
            "componentType" : 5123,
            "count" : 432,
            "type" : "SCALAR"
        },
        {
            "bufferView" : 15,
            "componentType" : 5126,
            "count" : 4038,
            "max" : [
                0.6477558612823486,
                0.46724000573158264,
                0.0462290458381176
            ],
            "min" : [
                -0.6477558612823486,
                -0.00010287659097230062,
                -0.458026647567749
            ],
            "type" : "VEC3"
        },
        {
            "bufferView" : 16,
            "componentType" : 5126,
            "count" : 4038,
            "type" : "VEC3"
        },
        {
            "bufferView" : 17,
            "componentType" : 5126,
            "count" : 4038,
            "type" : "VEC2"
        },
        {
            "bufferView" : 18,
            "componentType" : 5123,
            "count" : 7236,
            "type" : "SCALAR"
        },
        {
            "bufferView" : 19,
            "componentType" : 5126,
            "count" : 470,
            "max" : [
                0.2204241156578064,
                1.1286321878433228,
                -0.24368567764759064
            ],
            "min" : [
                -0.2204241156578064,
                0.7029032707214355,
                -0.3494164049625397
            ],
            "type" : "VEC3"
        },
        {
            "bufferView" : 20,
            "componentType" : 5126,
            "count" : 470,
            "type" : "VEC3"
        },
        {
            "bufferView" : 21,
            "componentType" : 5126,
            "count" : 470,
            "type" : "VEC2"
        },
        {
            "bufferView" : 22,
            "componentType" : 5123,
            "count" : 810,
            "type" : "SCALAR"
        },
        {
            "bufferView" : 23,
            "componentType" : 5126,
            "count" : 196,
            "max" : [
                0.08409801125526428,
                1.0723142623901367,
                -0.2959539294242859
            ],
            "min" : [
                -0.08393087983131409,
                0.506946325302124,
                -0.9308883547782898
            ],
            "type" : "VEC3"
        },
        {
            "bufferView" : 24,
            "componentType" : 5126,
            "count" : 196,
            "type" : "VEC3"
        },
        {
            "bufferView" : 25,
            "componentType" : 5126,
            "count" : 196,
            "type" : "VEC2"
        },
        {
            "bufferView" : 26,
            "componentType" : 5123,
            "count" : 435,
            "type" : "SCALAR"
        }
    ],
    "bufferViews" : [
        {
            "buffer" : 0,
            "byteLength" : 768,
            "byteOffset" : 0
        },
        {
            "buffer" : 0,
            "byteLength" : 768,
            "byteOffset" : 768
        },
        {
            "buffer" : 0,
            "byteLength" : 512,
            "byteOffset" : 1536
        },
        {
            "buffer" : 0,
            "byteLength" : 180,
            "byteOffset" : 2048
        },
        {
            "buffer" : 0,
            "byteLength" : 15490,
            "byteOffset" : 2228
        },
        {
            "buffer" : 0,
            "byteLength" : 50501,
            "byteOffset" : 17720
        },
        {
            "buffer" : 0,
            "byteLength" : 168148,
            "byteOffset" : 68224
        },
        {
            "buffer" : 0,
            "byteLength" : 2520,
            "byteOffset" : 236372
        },
        {
            "buffer" : 0,
            "byteLength" : 2520,
            "byteOffset" : 238892
        },
        {
            "buffer" : 0,
            "byteLength" : 1680,
            "byteOffset" : 241412
        },
        {
            "buffer" : 0,
            "byteLength" : 888,
            "byteOffset" : 243092
        },
        {
            "buffer" : 0,
            "byteLength" : 2592,
            "byteOffset" : 243980
        },
        {
            "buffer" : 0,
            "byteLength" : 2592,
            "byteOffset" : 246572
        },
        {
            "buffer" : 0,
            "byteLength" : 1728,
            "byteOffset" : 249164
        },
        {
            "buffer" : 0,
            "byteLength" : 864,
            "byteOffset" : 250892
        },
        {
            "buffer" : 0,
            "byteLength" : 48456,
            "byteOffset" : 251756
        },
        {
            "buffer" : 0,
            "byteLength" : 48456,
            "byteOffset" : 300212
        },
        {
            "buffer" : 0,
            "byteLength" : 32304,
            "byteOffset" : 348668
        },
        {
            "buffer" : 0,
            "byteLength" : 14472,
            "byteOffset" : 380972
        },
        {
            "buffer" : 0,
            "byteLength" : 5640,
            "byteOffset" : 395444
        },
        {
            "buffer" : 0,
            "byteLength" : 5640,
            "byteOffset" : 401084
        },
        {
            "buffer" : 0,
            "byteLength" : 3760,
            "byteOffset" : 406724
        },
        {
            "buffer" : 0,
            "byteLength" : 1620,
            "byteOffset" : 410484
        },
        {
            "buffer" : 0,
            "byteLength" : 2352,
            "byteOffset" : 412104
        },
        {
            "buffer" : 0,
            "byteLength" : 2352,
            "byteOffset" : 414456
        },
        {
            "buffer" : 0,
            "byteLength" : 1568,
            "byteOffset" : 416808
        },
        {
            "buffer" : 0,
            "byteLength" : 870,
            "byteOffset" : 418376
        }
    ],
    "samplers" : [
        {
            "magFilter" : 9729,
            "minFilter" : 9987
        }
    ],
    "buffers" : [
        {
            "byteLength" : 419248,
            "uri" : "data:application/octet-stream;base64,"
        }
    ]
}
