{
    "asset" : {
        "generator" : "Khronos glTF Blender I/O v3.2.43",
        "version" : "2.0"
    },
    "scene" : 0,
    "scenes" : [
        {
            "name" : "Scene",
            "nodes" : [
                7
            ]
        }
    ],
    "nodes" : [
        {
            "mesh" : 0,
            "name" : "pCube6"
        },
        {
            "mesh" : 1,
            "name" : "pCube7"
        },
        {
            "mesh" : 2,
            "name" : "pCube8"
        },
        {
            "children" : [
                0,
                1,
                2
            ],
            "name" : "body"
        },
        {
            "mesh" : 3,
            "name" : "pCube16"
        },
        {
            "mesh" : 4,
            "name" : "pCube17"
        },
        {
            "mesh" : 5,
            "name" : "pCylinder6"
        },
        {
            "children" : [
                3,
                4,
                5,
                6
            ],
            "name" : "bot"
        }
    ],
    "materials" : [
        {
            "doubleSided" : true,
            "emissiveFactor" : [
                4,
                4,
                4
            ],
            "emissiveTexture" : {
                "index" : 0
            },
            "name" : "lambert1",
            "pbrMetallicRoughness" : {
                "baseColorTexture" : {
                    "index" : 1
                },
                "metallicRoughnessTexture" : {
                    "index" : 2
                }
            }
        }
    ],
    "meshes" : [
        {
            "name" : "Mesh.001",
            "primitives" : [
                {
                    "attributes" : {
                        "POSITION" : 0,
                        "NORMAL" : 1,
                        "TEXCOORD_0" : 2
                    },
                    "indices" : 3,
                    "material" : 0
                }
            ]
        },
        {
            "name" : "Mesh.002",
            "primitives" : [
                {
                    "attributes" : {
                        "POSITION" : 4,
                        "NORMAL" : 5,
                        "TEXCOORD_0" : 6
                    },
                    "indices" : 7,
                    "material" : 0
                }
            ]
        },
        {
            "name" : "Mesh.003",
            "primitives" : [
                {
                    "attributes" : {
                        "POSITION" : 8,
                        "NORMAL" : 9,
                        "TEXCOORD_0" : 10
                    },
                    "indices" : 11,
                    "material" : 0
                }
            ]
        },
        {
            "name" : "Mesh.004",
            "primitives" : [
                {
                    "attributes" : {
                        "POSITION" : 12,
                        "NORMAL" : 13,
                        "TEXCOORD_0" : 14
                    },
                    "indices" : 15,
                    "material" : 0
                }
            ]
        },
        {
            "name" : "Mesh.005",
            "primitives" : [
                {
                    "attributes" : {
                        "POSITION" : 16,
                        "NORMAL" : 17,
                        "TEXCOORD_0" : 18
                    },
                    "indices" : 19,
                    "material" : 0
                }
            ]
        },
        {
            "name" : "Mesh",
            "primitives" : [
                {
                    "attributes" : {
                        "POSITION" : 20,
                        "NORMAL" : 21,
                        "TEXCOORD_0" : 22
                    },
                    "indices" : 23,
                    "material" : 0
                }
            ]
        }
    ],
    "textures" : [
        {
            "sampler" : 0,
            "source" : 0
        },
        {
            "sampler" : 0,
            "source" : 1
        },
        {
            "sampler" : 0,
            "source" : 2
        }
    ],
    "images" : [
        {
            "mimeType" : "image/png",
            "name" : "Image_0",
            "uri" : "tex/Image_0.png"
        },
        {
            "mimeType" : "image/png",
            "name" : "Image_1",
            "uri" : "tex/Image_1.png"
        },
        {
            "mimeType" : "image/png",
            "name" : "Image_2",
            "uri" : "tex/Image_2.png"
        }
    ],
    "accessors" : [
        {
            "bufferView" : 0,
            "componentType" : 5126,
            "count" : 82,
            "max" : [
                0.04565415903925896,
                0.5271776914596558,
                0.13924969732761383
            ],
            "min" : [
                -0.04565415903925896,
                0.38675394654273987,
                0.04794134572148323
            ],
            "type" : "VEC3"
        },
        {
            "bufferView" : 1,
            "componentType" : 5126,
            "count" : 82,
            "type" : "VEC3"
        },
        {
            "bufferView" : 2,
            "componentType" : 5126,
            "count" : 82,
            "type" : "VEC2"
        },
        {
            "bufferView" : 3,
            "componentType" : 5123,
            "count" : 90,
            "type" : "SCALAR"
        },
        {
            "bufferView" : 4,
            "componentType" : 5126,
            "count" : 313,
            "max" : [
                0.11381767690181732,
                0.5798327922821045,
                0.1339929699897766
            ],
            "min" : [
                -0.11381767690181732,
                0.36467719078063965,
                -0.17367753386497498
            ],
            "type" : "VEC3"
        },
        {
            "bufferView" : 5,
            "componentType" : 5126,
            "count" : 313,
            "type" : "VEC3"
        },
        {
            "bufferView" : 6,
            "componentType" : 5126,
            "count" : 313,
            "type" : "VEC2"
        },
        {
            "bufferView" : 7,
            "componentType" : 5123,
            "count" : 444,
            "type" : "SCALAR"
        },
        {
            "bufferView" : 8,
            "componentType" : 5126,
            "count" : 366,
            "max" : [
                0.16078752279281616,
                0.711861789226532,
                -0.12491440027952194
            ],
            "min" : [
                -0.16078752279281616,
                0.33498096466064453,
                -0.4405321478843689
            ],
            "type" : "VEC3"
        },
        {
            "bufferView" : 9,
            "componentType" : 5126,
            "count" : 366,
            "type" : "VEC3"
        },
        {
            "bufferView" : 10,
            "componentType" : 5126,
            "count" : 366,
            "type" : "VEC2"
        },
        {
            "bufferView" : 11,
            "componentType" : 5123,
            "count" : 432,
            "type" : "SCALAR"
        },
        {
            "bufferView" : 12,
            "componentType" : 5126,
            "count" : 6386,
            "max" : [
                0.6477558612823486,
                0.46724000573158264,
                0.0462290458381176
            ],
            "min" : [
                -0.6477558612823486,
                -0.00010287659097230062,
                -0.458026647567749
            ],
            "type" : "VEC3"
        },
        {
            "bufferView" : 13,
            "componentType" : 5126,
            "count" : 6386,
            "type" : "VEC3"
        },
        {
            "bufferView" : 14,
            "componentType" : 5126,
            "count" : 6386,
            "type" : "VEC2"
        },
        {
            "bufferView" : 15,
            "componentType" : 5123,
            "count" : 7236,
            "type" : "SCALAR"
        },
        {
            "bufferView" : 16,
            "componentType" : 5126,
            "count" : 769,
            "max" : [
                0.2204241156578064,
                1.1286321878433228,
                -0.24368567764759064
            ],
            "min" : [
                -0.2204241156578064,
                0.7029032707214355,
                -0.3494164049625397
            ],
            "type" : "VEC3"
        },
        {
            "bufferView" : 17,
            "componentType" : 5126,
            "count" : 769,
            "type" : "VEC3"
        },
        {
            "bufferView" : 18,
            "componentType" : 5126,
            "count" : 769,
            "type" : "VEC2"
        },
        {
            "bufferView" : 19,
            "componentType" : 5123,
            "count" : 810,
            "type" : "SCALAR"
        },
        {
            "bufferView" : 20,
            "componentType" : 5126,
            "count" : 267,
            "max" : [
                0.08409801125526428,
                1.0723142623901367,
                -0.2959539294242859
            ],
            "min" : [
                -0.08393087983131409,
                0.506946325302124,
                -0.9308883547782898
            ],
            "type" : "VEC3"
        },
        {
            "bufferView" : 21,
            "componentType" : 5126,
            "count" : 267,
            "type" : "VEC3"
        },
        {
            "bufferView" : 22,
            "componentType" : 5126,
            "count" : 267,
            "type" : "VEC2"
        },
        {
            "bufferView" : 23,
            "componentType" : 5123,
            "count" : 435,
            "type" : "SCALAR"
        }
    ],
    "bufferViews" : [
        {
            "buffer" : 0,
            "byteLength" : 984,
            "byteOffset" : 0
        },
        {
            "buffer" : 0,
            "byteLength" : 984,
            "byteOffset" : 984
        },
        {
            "buffer" : 0,
            "byteLength" : 656,
            "byteOffset" : 1968
        },
        {
            "buffer" : 0,
            "byteLength" : 180,
            "byteOffset" : 2624
        },
        {
            "buffer" : 0,
            "byteLength" : 3756,
            "byteOffset" : 2804
        },
        {
            "buffer" : 0,
            "byteLength" : 3756,
            "byteOffset" : 6560
        },
        {
            "buffer" : 0,
            "byteLength" : 2504,
            "byteOffset" : 10316
        },
        {
            "buffer" : 0,
            "byteLength" : 888,
            "byteOffset" : 12820
        },
        {
            "buffer" : 0,
            "byteLength" : 4392,
            "byteOffset" : 13708
        },
        {
            "buffer" : 0,
            "byteLength" : 4392,
            "byteOffset" : 18100
        },
        {
            "buffer" : 0,
            "byteLength" : 2928,
            "byteOffset" : 22492
        },
        {
            "buffer" : 0,
            "byteLength" : 864,
            "byteOffset" : 25420
        },
        {
            "buffer" : 0,
            "byteLength" : 76632,
            "byteOffset" : 26284
        },
        {
            "buffer" : 0,
            "byteLength" : 76632,
            "byteOffset" : 102916
        },
        {
            "buffer" : 0,
            "byteLength" : 51088,
            "byteOffset" : 179548
        },
        {
            "buffer" : 0,
            "byteLength" : 14472,
            "byteOffset" : 230636
        },
        {
            "buffer" : 0,
            "byteLength" : 9228,
            "byteOffset" : 245108
        },
        {
            "buffer" : 0,
            "byteLength" : 9228,
            "byteOffset" : 254336
        },
        {
            "buffer" : 0,
            "byteLength" : 6152,
            "byteOffset" : 263564
        },
        {
            "buffer" : 0,
            "byteLength" : 1620,
            "byteOffset" : 269716
        },
        {
            "buffer" : 0,
            "byteLength" : 3204,
            "byteOffset" : 271336
        },
        {
            "buffer" : 0,
            "byteLength" : 3204,
            "byteOffset" : 274540
        },
        {
            "buffer" : 0,
            "byteLength" : 2136,
            "byteOffset" : 277744
        },
        {
            "buffer" : 0,
            "byteLength" : 870,
            "byteOffset" : 279880
        }
    ],
    "samplers" : [
        {
            "magFilter" : 9729,
            "minFilter" : 9987
        }
    ],
    "buffers" : [
        {
            "byteLength" : 280752,
            "uri" : "enemy1.bin"
        }
    ]
}
