{
    "asset" : {
        "generator" : "Khronos glTF Blender I/O v3.3.32",
        "version" : "2.0"
    },
    "scene" : 0,
    "scenes" : [
        {
            "name" : "Scene",
            "nodes" : [
                0
            ]
        }
    ],
    "nodes" : [
        {
            "mesh" : 0,
            "name" : "chargeshot"
        }
    ],
    "materials" : [
        {
            "doubleSided" : true,
            "emissiveFactor" : [
                1,
                1,
                1
            ],
            "emissiveTexture" : {
                "index" : 0
            },
            "name" : "CombinedMaterial",
            "normalTexture" : {
                "index" : 1
            },
            "pbrMetallicRoughness" : {
                "baseColorTexture" : {
                    "index" : 2
                },
                "metallicRoughnessTexture" : {
                    "index" : 3
                }
            }
        }
    ],
    "meshes" : [
        {
            "name" : "Cylinder.014",
            "primitives" : [
                {
                    "attributes" : {
                        "POSITION" : 0,
                        "NORMAL" : 1,
                        "TEXCOORD_0" : 2
                    },
                    "indices" : 3,
                    "material" : 0
                }
            ]
        }
    ],
    "textures" : [
        {
            "sampler" : 0,
            "source" : 0
        },
        {
            "sampler" : 0,
            "source" : 1
        },
        {
            "sampler" : 0,
            "source" : 2
        },
        {
            "sampler" : 0,
            "source" : 3
        }
    ],
    "images" : [
        {
            "mimeType" : "image/png",
            "name" : "EmissionWeapon",
            "uri" : "Textures/EmissionWeapon.png"
        },
        {
            "mimeType" : "image/png",
            "name" : "NormalWeapon",
            "uri" : "Textures/NormalWeapon.png"
        },
        {
            "mimeType" : "image/png",
            "name" : "DiffuseWeapon",
            "uri" : "Textures/DiffuseWeapon.png"
        },
        {
            "mimeType" : "image/png",
            "name" : "RoughnessMetallicWeapon",
            "uri" : "Textures/RoughnessMetallicWeapon.png"
        }
    ],
    "accessors" : [
        {
            "bufferView" : 0,
            "componentType" : 5126,
            "count" : 2570,
            "max" : [
                1.2295974493026733,
                0.7246060371398926,
                0.1521081179380417
            ],
            "min" : [
                0.03613698482513428,
                0.29716816544532776,
                -0.15906059741973877
            ],
            "type" : "VEC3"
        },
        {
            "bufferView" : 1,
            "componentType" : 5126,
            "count" : 2570,
            "type" : "VEC3"
        },
        {
            "bufferView" : 2,
            "componentType" : 5126,
            "count" : 2570,
            "type" : "VEC2"
        },
        {
            "bufferView" : 3,
            "componentType" : 5123,
            "count" : 7992,
            "type" : "SCALAR"
        }
    ],
    "bufferViews" : [
        {
            "buffer" : 0,
            "byteLength" : 30840,
            "byteOffset" : 0,
            "target" : 34962
        },
        {
            "buffer" : 0,
            "byteLength" : 30840,
            "byteOffset" : 30840,
            "target" : 34962
        },
        {
            "buffer" : 0,
            "byteLength" : 20560,
            "byteOffset" : 61680,
            "target" : 34962
        },
        {
            "buffer" : 0,
            "byteLength" : 15984,
            "byteOffset" : 82240,
            "target" : 34963
        }
    ],
    "samplers" : [
        {
            "magFilter" : 9729,
            "minFilter" : 9987
        }
    ],
    "buffers" : [
        {
            "byteLength" : 98224,
            "uri" : "ChargeShot.bin"
        }
    ]
}
