{
    "asset" : {
        "generator" : "Khronos glTF Blender I/O v3.3.32",
        "version" : "2.0"
    },
    "scene" : 0,
    "scenes" : [
        {
            "name" : "Scene",
            "nodes" : [
                0
            ]
        }
    ],
    "nodes" : [
        {
            "mesh" : 0,
            "name" : "maingun"
        }
    ],
    "materials" : [
        {
            "doubleSided" : true,
            "emissiveFactor" : [
                1,
                1,
                1
            ],
            "emissiveTexture" : {
                "index" : 0
            },
            "name" : "CombinedMaterial",
            "normalTexture" : {
                "index" : 1
            },
            "pbrMetallicRoughness" : {
                "baseColorTexture" : {
                    "index" : 2
                },
                "metallicRoughnessTexture" : {
                    "index" : 3
                }
            }
        }
    ],
    "meshes" : [
        {
            "name" : "Cube.010",
            "primitives" : [
                {
                    "attributes" : {
                        "POSITION" : 0,
                        "NORMAL" : 1,
                        "TEXCOORD_0" : 2
                    },
                    "indices" : 3,
                    "material" : 0
                }
            ]
        }
    ],
    "textures" : [
        {
            "sampler" : 0,
            "source" : 0
        },
        {
            "sampler" : 0,
            "source" : 1
        },
        {
            "sampler" : 0,
            "source" : 2
        },
        {
            "sampler" : 0,
            "source" : 3
        }
    ],
    "images" : [
        {
            "mimeType" : "image/png",
            "name" : "EmissionWeapon",
            "uri" : "Textures/EmissionWeapon.png"
        },
        {
            "mimeType" : "image/png",
            "name" : "NormalWeapon",
            "uri" : "Textures/NormalWeapon.png"
        },
        {
            "mimeType" : "image/png",
            "name" : "DiffuseWeapon",
            "uri" : "Textures/DiffuseWeapon.png"
        },
        {
            "mimeType" : "image/png",
            "name" : "RoughnessMetallicWeapon",
            "uri" : "Textures/RoughnessMetallicWeapon.png"
        }
    ],
    "accessors" : [
        {
            "bufferView" : 0,
            "componentType" : 5126,
            "count" : 15288,
            "max" : [
                1.3165613412857056,
                0.42299383878707886,
                0.22309967875480652
            ],
            "min" : [
                -1.588070034980774,
                -0.9923678636550903,
                -0.22309967875480652
            ],
            "type" : "VEC3"
        },
        {
            "bufferView" : 1,
            "componentType" : 5126,
            "count" : 15288,
            "type" : "VEC3"
        },
        {
            "bufferView" : 2,
            "componentType" : 5126,
            "count" : 15288,
            "type" : "VEC2"
        },
        {
            "bufferView" : 3,
            "componentType" : 5123,
            "count" : 16272,
            "type" : "SCALAR"
        }
    ],
    "bufferViews" : [
        {
            "buffer" : 0,
            "byteLength" : 183456,
            "byteOffset" : 0,
            "target" : 34962
        },
        {
            "buffer" : 0,
            "byteLength" : 183456,
            "byteOffset" : 183456,
            "target" : 34962
        },
        {
            "buffer" : 0,
            "byteLength" : 122304,
            "byteOffset" : 366912,
            "target" : 34962
        },
        {
            "buffer" : 0,
            "byteLength" : 32544,
            "byteOffset" : 489216,
            "target" : 34963
        }
    ],
    "samplers" : [
        {
            "magFilter" : 9729,
            "minFilter" : 9987
        }
    ],
    "buffers" : [
        {
            "byteLength" : 521760,
            "uri" : "Maingun.bin"
        }
    ]
}
