{
    "asset" : {
        "generator" : "Khronos glTF Blender I/O v3.3.32",
        "version" : "2.0"
    },
    "scene" : 0,
    "scenes" : [
        {
            "name" : "Scene",
            "nodes" : [
                0
            ]
        }
    ],
    "nodes" : [
        {
            "mesh" : 0,
            "name" : "tesla"
        }
    ],
    "materials" : [
        {
            "doubleSided" : true,
            "emissiveFactor" : [
                1,
                1,
                1
            ],
            "emissiveTexture" : {
                "index" : 0
            },
            "name" : "CombinedMaterial",
            "normalTexture" : {
                "index" : 1
            },
            "pbrMetallicRoughness" : {
                "baseColorTexture" : {
                    "index" : 2
                },
                "metallicRoughnessTexture" : {
                    "index" : 3
                }
            }
        }
    ],
    "meshes" : [
        {
            "name" : "Cube.021",
            "primitives" : [
                {
                    "attributes" : {
                        "POSITION" : 0,
                        "NORMAL" : 1,
                        "TEXCOORD_0" : 2
                    },
                    "indices" : 3,
                    "material" : 0
                }
            ]
        }
    ],
    "textures" : [
        {
            "sampler" : 0,
            "source" : 0
        },
        {
            "sampler" : 0,
            "source" : 1
        },
        {
            "sampler" : 0,
            "source" : 2
        },
        {
            "sampler" : 0,
            "source" : 3
        }
    ],
    "images" : [
        {
            "mimeType" : "image/png",
            "name" : "EmissionWeapon",
            "uri" : "Textures/EmissionWeapon.png"
        },
        {
            "mimeType" : "image/png",
            "name" : "NormalWeapon",
            "uri" : "Textures/NormalWeapon.png"
        },
        {
            "mimeType" : "image/png",
            "name" : "DiffuseWeapon",
            "uri" : "Textures/DiffuseWeapon.png"
        },
        {
            "mimeType" : "image/png",
            "name" : "RoughnessMetallicWeapon",
            "uri" : "Textures/RoughnessMetallicWeapon.png"
        }
    ],
    "accessors" : [
        {
            "bufferView" : 0,
            "componentType" : 5126,
            "count" : 15100,
            "max" : [
                0.35737746953964233,
                -0.3102574646472931,
                0.06900040060281754
            ],
            "min" : [
                -0.03157319128513336,
                -1.0404211282730103,
                -0.0690331682562828
            ],
            "type" : "VEC3"
        },
        {
            "bufferView" : 1,
            "componentType" : 5126,
            "count" : 15100,
            "type" : "VEC3"
        },
        {
            "bufferView" : 2,
            "componentType" : 5126,
            "count" : 15100,
            "type" : "VEC2"
        },
        {
            "bufferView" : 3,
            "componentType" : 5123,
            "count" : 49272,
            "type" : "SCALAR"
        }
    ],
    "bufferViews" : [
        {
            "buffer" : 0,
            "byteLength" : 181200,
            "byteOffset" : 0,
            "target" : 34962
        },
        {
            "buffer" : 0,
            "byteLength" : 181200,
            "byteOffset" : 181200,
            "target" : 34962
        },
        {
            "buffer" : 0,
            "byteLength" : 120800,
            "byteOffset" : 362400,
            "target" : 34962
        },
        {
            "buffer" : 0,
            "byteLength" : 98544,
            "byteOffset" : 483200,
            "target" : 34963
        }
    ],
    "samplers" : [
        {
            "magFilter" : 9729,
            "minFilter" : 9987
        }
    ],
    "buffers" : [
        {
            "byteLength" : 581744,
            "uri" : "Tesla.bin"
        }
    ]
}
